<svg xmlns="http://www.w3.org/2000/svg" width="100" height="100" viewBox="0 0 100 100">
    <g fill="none" fill-rule="evenodd">
        <circle cx="50" cy="50" r="50" fill="#EB66EB"/>
        <g stroke="#FFF">
            <path d="M50.027 67.718c-9.853 0-17.898-8.046-17.898-17.944s8.045-17.898 17.898-17.898c8.136 0 15.051 5.469 17.22 12.926h6.916c-2.305-11.209-12.249-19.66-24.136-19.66-13.56 0-24.633 11.073-24.633 24.632 0 13.605 11.074 24.633 24.633 24.633 11.887 0 21.83-8.452 24.136-19.661h-6.916c-2.169 7.503-9.04 12.972-17.22 12.972"/>
            <path d="M37.96 61.842c3.073 3.073 7.367 5.017 12.067 5.017v-7.141c-2.757 0-5.243-1.13-7.05-2.893l-5.018 5.017zM32.942 49.774c0 2.44.543 4.791 1.447 6.87l6.553-2.893a9.868 9.868 0 0 1-.858-4.022c0-5.514 4.474-9.944 9.943-9.944V32.69c-9.401 0-17.085 7.684-17.085 17.085M56.22 33.864l-2.577 6.644a9.94 9.94 0 0 1 5.017 4.294h7.729a17.116 17.116 0 0 0-10.17-10.938M53.643 59.04l2.576 6.644c4.836-1.899 8.633-5.921 10.17-10.938h-7.73a9.94 9.94 0 0 1-5.016 4.294M18.434 59.356c-.09-.362-.226-.768-.316-1.13v-.09c-.09-.362-.181-.724-.272-1.04 0-.09-.045-.136-.045-.226-.09-.316-.135-.633-.18-.904-.046-.135-.046-.271-.091-.407-.045-.226-.09-.497-.136-.723-.045-.226-.045-.407-.09-.633-.18-1.446-.316-2.892-.316-4.384h-6.735c0 1.627.09 3.21.271 4.791v.09c.045.407.09.86.181 1.266 0 .136.045.226.045.362.045.361.136.678.181 1.04.045.18.09.36.09.542.046.27.136.542.181.813.045.226.136.497.181.723.045.226.09.407.18.633.091.271.182.542.227.859.045.135.045.226.09.361.452 1.537 1.04 3.029 1.673 4.52l6.192-2.712a36.858 36.858 0 0 1-1.311-3.751z"/>
            <path d="M50.027 82.814c-9.13 0-17.356-3.707-23.367-9.673l-4.791 4.791c7.186 7.187 17.13 11.661 28.113 11.661 20.294 0 37.017-15.186 39.458-34.802h-6.825c-2.305 15.82-16.046 28.023-32.588 28.023M50.027 16.734c7.413 0 14.237 2.441 19.752 6.554l4.022-5.424C67.202 12.938 58.976 10 50.027 10c-16.904 0-31.322 10.531-37.062 25.356l6.282 2.44c4.791-12.293 16.814-21.062 30.78-21.062M82.705 44.802h6.825a38.839 38.839 0 0 0-5.74-16.09l-5.74 3.57c2.35 3.752 3.977 8 4.655 12.52"/>
            <path d="M75.021 44.802h6.825c-1.762-11.48-9.627-20.926-20.158-25.04l-2.44 6.283A25.51 25.51 0 0 1 75.02 44.802M50.027 24.328v-6.735c-13.65 0-25.31 8.543-30.011 20.52l6.282 2.44c3.707-9.49 12.972-16.225 23.73-16.225M24.58 49.774h-6.734c0 13.514 8.407 25.13 20.249 29.92l2.486-6.236c-9.401-3.797-16-12.972-16-23.684M50.027 75.266V82c16.09 0 29.424-11.842 31.82-27.254H75.02c-2.305 11.706-12.655 20.52-24.994 20.52"/>
        </g>
    </g>
</svg>
