<?xml version="1.0" encoding="UTF-8"?>
<svg width="280px" height="168px" viewBox="0 0 280 168" version="1.1" xmlns="http://www.w3.org/2000/svg" xmlns:xlink="http://www.w3.org/1999/xlink">
    <!-- Generator: Sketch 48.2 (47327) - http://www.bohemiancoding.com/sketch -->
    <title>Page 1</title>
    <desc>Created with Sketch.</desc>
    <defs>
        <linearGradient x1="3.46580038%" y1="3.46580038%" x2="100%" y2="100%" id="linearGradient-1">
            <stop stop-color="#5EBAD5" offset="0%"></stop>
            <stop stop-color="#A0E7FC" offset="24.2426658%"></stop>
            <stop stop-color="#93E2FB" offset="55.4468272%"></stop>
            <stop stop-color="#33CBFA" offset="75.4284917%"></stop>
            <stop stop-color="#0195C4" offset="100%"></stop>
        </linearGradient>
    </defs>
    <g id="Digitallync-Home-PAGE-NEW-Copy-3" stroke="none" stroke-width="1" fill="none" fill-rule="evenodd" transform="translate(-100.000000, -1949.000000)">
        <g id="Group-54" transform="translate(100.000000, 1813.000000)">
            <g id="Group-45" transform="translate(0.000000, 136.000000)">
                <g id="Group-46">
                    <g id="Group-44">
                        <g id="Page-1">
                            <polygon id="Fill-1" fill-opacity="0.600000024" fill="url(#linearGradient-1)" points="0 168 280 168 280 0 0 0"></polygon>
                            <g id="Group-81" transform="translate(3.000000, 26.000000)">
                                <path d="M239.12323,44.3596855 C239.12323,44.3596855 237.317028,44.9305242 235.262201,44.3596855 C234.292629,44.0905437 229.176973,39.6408387 232.044783,33.0666856 C232.044783,33.0666856 233.466864,29.1378588 239.12323,30.0819505 C242.941117,30.7172543 244.529054,37.6095427 244.142056,39.946081 C243.756017,42.2819747 249.425486,41.3394946 251.656395,42.1185556 C253.92725,42.9111543 254.309454,47.2148458 254.953066,50.0709729 C255.596038,52.9274225 260.46307,63.0165363 259.500209,64.0947154 C258.535112,65.1774071 262.096066,64.4202643 262.931738,71.8785565 C263.452954,76.5226238 263.060524,85.5090617 266.149475,89.6622271 C269.238746,93.8157149 272.455844,101.86483 273.228561,105.499373 C274,109.133595 274,112.248872 274,112.248872 C274,112.248872 268.929403,114.973812 267.050339,115.623621 C265.034819,116.3221 263.318735,115.88277 262.931738,115.623621 C262.546338,115.364793 263.18963,112.638241 267.436378,110.950544 C267.436378,110.950544 261.387901,97.4505807 260.486718,96.5422672 C259.586493,95.6336313 253.339244,82.6548684 252.805884,81.6140791 C252.131594,80.2993129 251.213153,78.0040323 251.213153,78.0040323 C251.213153,78.0040323 244.277554,86.2526669 242.990331,90.1470048 C241.702789,94.0406981 245.300813,101.474816 246.716502,105.758523 C248.131552,110.042553 248.90363,111.080441 247.4889,111.340558 C246.07321,111.599708 234.23319,112.248872 233.20322,112.119619 C232.173569,111.988433 231.621354,109.184522 239.380802,108.094095 C239.380802,108.094095 235.577935,94.8890591 235.03307,91.726078 C234.646711,89.4872043 234.324906,87.8107888 243.418553,73.5752784 C244.562928,71.7841151 246.502711,67.2896068 246.502711,67.2896068 L242.56147,60.5078761 C242.56147,60.5078761 229.857335,63.9603056 226.382345,63.5715809 C222.907355,63.1822116 219.046965,58.2493405 219.046965,58.2493405 L219.046965,53.1943081 C219.046965,53.1943081 218.270093,48.1856905 220.848693,54.4842551 C220.920277,54.6608896 220.911648,56.6686558 221.069515,56.7601962 C226.367006,59.8151983 226.664205,60.1500946 227.037141,60.1500946 C227.408161,60.1500946 234.689534,57.6723777 238.704595,55.4805636 C238.916149,55.365171 239.074336,55.1679078 239.251377,55.0035217 C239.251377,55.0035217 234.132525,57.1611693 232.044783,57.3407047 C229.471616,57.5614977 227.412315,58.7673178 220.848693,50.5905618 L219.218254,48.7297761 L218.832215,38.9510619 C218.832215,38.9510619 219.089787,37.9212316 219.904368,39.863888 C221.105946,42.7280733 220.633624,45.2299647 221.234093,45.9645447 C221.835202,46.7007364 227.025956,51.4553614 227.926501,51.8018614 C228.827685,52.1477168 230.500627,52.6231471 231.915997,51.6722866 C233.332006,50.7194921 238.737191,45.8749382 239.036627,45.6580131 C239.338619,45.4407656 240.195383,44.2297883 240.195383,44.2297883 L239.12323,44.3596855 Z" id="Fill-2" fill="#754C24"></path>
                                <path d="M34.8767701,36.8758531 C34.8767701,36.8758531 36.6829724,37.4466932 38.7377992,36.8758531 C39.7073707,36.6067105 44.8230266,32.1566713 41.955217,25.582823 C41.955217,25.582823 40.5331362,21.6539857 34.8767701,22.5980799 C31.0585632,23.2333854 29.4706263,30.1256922 29.8579435,32.4619144 C30.243663,34.7981367 24.5741945,33.8556541 22.3436049,34.6343948 C20.0724301,35.4273179 19.6905455,39.7310209 19.0466146,42.5871557 C18.4036423,45.4436129 13.5369305,55.5327536 14.499791,56.6106133 C15.4648885,57.6933079 11.9039344,56.9368077 11.0682622,64.3947974 C10.5467261,69.0388772 10.939476,78.025339 7.85020532,82.1781932 C4.76125418,86.3320144 1.544156,94.3811509 0.771119293,98.0153818 C0,101.649935 0,104.76522 0,104.76522 C0,104.76522 5.07059669,107.490168 6.9496607,108.139656 C8.96518054,108.838138 10.6812645,108.399129 11.0682622,108.139656 C11.4536621,107.88115 10.8103703,105.154591 6.5636217,103.466889 C6.5636217,103.466889 12.6120986,89.96689 13.5132824,89.058574 C14.4131879,88.150258 20.6604366,75.1708159 21.1937967,74.130346 C21.8684063,72.815254 22.7865272,70.5202896 22.7865272,70.5202896 C22.7865272,70.5202896 29.7224464,78.7686239 31.0096692,82.6629722 C32.2968919,86.5566759 28.6988678,93.9911359 27.283498,98.2748546 C25.8681282,102.558896 25.0963698,103.597109 26.5111005,103.856582 C27.9264703,104.116055 39.7668105,104.76522 40.7967804,104.635645 C41.8264308,104.504781 42.3786455,101.701185 34.6188782,100.610432 C34.6188782,100.610432 38.4217458,87.4053615 38.9666104,84.2423719 C39.3532886,82.00317 39.6747747,80.32675 30.5814471,66.0912016 C29.436752,64.3003558 27.4972895,59.8058355 27.4972895,59.8058355 L31.4385304,53.0237644 C31.4385304,53.0237644 44.1426648,56.4762031 47.6176549,56.0874774 C51.0926451,55.6984294 54.9530351,50.7655451 54.9530351,50.7655451 L54.9530351,45.7104992 C54.9530351,45.7104992 55.7299066,40.7018682 53.1513067,47.000772 C53.0794037,47.1770846 53.0883517,49.1845338 52.9304847,49.2760745 C47.6329942,52.3317294 47.3354758,52.6663043 46.9628587,52.6663043 C46.5918394,52.6663043 39.3104664,50.1885808 35.2950855,47.9964385 C35.0835311,47.8813679 34.9256641,47.6844265 34.7483035,47.5197176 C34.7483035,47.5197176 39.8674746,49.6770487 41.955217,49.8569068 C44.5283842,50.0777005 46.5873654,51.2838461 53.1513067,43.106746 L54.7817462,41.2459553 L55.1677852,31.467215 C55.1677852,31.467215 54.9098933,30.4373819 54.0953127,32.3800435 C52.8940539,35.2442365 53.3663764,37.7458122 52.7659068,38.4807165 C52.1644785,39.2172325 46.973724,43.9715479 46.0731794,44.3177265 C45.1719956,44.6639051 43.499373,45.1393367 42.0840032,44.1884736 C40.6679942,43.2356766 35.2628091,38.3911098 34.9630537,38.1741841 C34.6613808,37.956936 33.8042975,36.7459555 33.8042975,36.7459555 L34.8767701,36.8758531 Z" id="Fill-4" fill="#736357"></path>
                                <path d="M206.651423,56.697696 C206.167525,58.5367432 205.522222,60.3089977 204.731431,62.0006513 L199.73105,60.2213322 L198.0737,63.1178235 L202.091643,66.5894385 C201.020701,68.1378732 199.818915,69.5880455 198.494882,70.9155505 L194.406584,67.5254997 L191.867395,69.6747476 L194.466116,74.3229417 C192.945022,75.4060753 191.32683,76.3559446 189.623638,77.1542459 L186.9275,72.5513295 L183.812091,73.6954756 L184.679605,78.9746681 C182.900644,79.4611631 181.057695,79.7903098 179.16731,79.9505481 L178.194103,74.694155 L174.879404,74.6944761 L173.906515,79.9505481 C172.015176,79.7903098 170.173181,79.4611631 168.392629,78.974347 L169.261735,73.6951545 L166.146325,72.5519717 L163.450188,77.1542459 C161.746995,76.3549812 160.127848,75.4047908 158.607709,74.3216572 L161.206431,69.6747476 L158.666923,67.5254997 L154.578943,70.9149082 C153.254592,69.5874033 152.053125,68.1365887 150.98091,66.5887962 L155.000125,63.1171813 L153.343094,60.2219745 L148.343031,62.0000091 C147.551922,60.3089977 146.905982,58.5357798 146.422721,56.6960904 L151.391904,54.8140133 L150.815684,51.5219038 L145.513503,51.4682769 C145.430413,50.5376747 145.381068,49.597439 145.381068,48.6446796 C145.381068,47.6925625 145.430413,46.7516845 145.513503,45.8214034 L150.816321,45.7671344 L151.391904,42.4750248 L146.422403,40.5929477 C146.905982,38.7535794 147.551922,36.9810038 148.343031,35.2893502 L153.343094,37.068027 L155.000125,34.1724991 L150.98091,30.7008841 C152.053125,29.1524494 153.254592,27.7025982 154.578943,26.3734876 L158.666923,29.7641807 L161.206431,27.6149328 L158.607709,22.9680231 C160.127848,21.8842473 161.746995,20.934378 163.451143,20.1347923 L166.146325,24.7383509 L169.261735,23.594847 L168.392629,18.3153333 C170.173181,17.827875 172.015813,17.4987283 173.906515,17.33849 L174.879404,22.5955254 L178.194103,22.5955254 L179.16731,17.33849 C181.057695,17.4987283 182.900644,17.8275539 184.680878,18.3146911 L183.812091,23.594847 L186.9275,24.7370664 L189.624275,20.1354345 C191.327467,20.934378 192.94534,21.883605 194.466434,22.9673809 L191.867395,27.6149328 L194.407221,29.7638596 L198.495837,26.3741299 C199.818915,27.7025982 201.020701,29.1524494 202.092279,30.7002419 L198.0737,34.1724991 L199.73105,37.068027 L204.732068,35.2903135 C205.522222,36.981646 206.167525,38.7542216 206.652059,40.5929477 L201.682558,42.4750248 L202.257823,45.7677766 L207.560641,45.8226879 C207.643095,46.752969 207.692758,47.6932047 207.692758,48.6446796 C207.692758,49.597439 207.643095,50.5376747 207.560641,51.4682769 L202.257186,51.5219038 L201.682558,54.8146556 L206.651423,56.697696 Z M219.175458,57.9259753 L219.751678,54.6329024 L214.586707,52.6772891 C214.722963,51.3520319 214.794911,50.0065443 214.794911,48.6446796 C214.794911,47.2837783 214.722963,45.9389329 214.586707,44.6133546 L219.751359,42.6570991 L219.176094,39.3633839 L213.660298,39.3071881 C213.007036,36.6650229 212.08381,34.1304325 210.920546,31.7336021 L215.114856,28.1091346 L213.457825,25.2129644 L208.240963,27.0683886 C206.743745,24.8362921 205.01986,22.7721407 203.104326,20.9051562 L205.824658,16.0382802 L203.285787,13.8890323 L199.010297,17.4345046 C196.863638,15.8578114 194.549843,14.4991579 192.099156,13.3948305 L193.003281,7.90113064 L189.887871,6.75698448 L187.082539,11.5461497 C184.553537,10.8136778 181.918841,10.3390643 179.206786,10.1499254 L178.194103,4.67741935 L174.879404,4.67741935 L173.867039,10.1499254 C171.154666,10.3390643 168.519652,10.8136778 165.990969,11.546792 L163.186272,6.7573056 L160.071818,7.90113064 L160.975306,13.3945094 C158.524301,14.4991579 156.210506,15.8578114 154.062892,17.4351468 L149.78772,13.8890323 L147.249167,16.0382802 L149.970137,20.9045139 C148.054602,22.7711773 146.33008,24.8362921 144.832544,27.0683886 L139.616,25.2136066 L137.958969,28.1084923 L142.154553,31.7326387 C140.990652,34.1291481 140.068063,36.6650229 139.413528,39.3078304 L133.897731,39.3643473 L133.322148,42.6564569 L138.487118,44.6120702 C138.350544,45.9376484 138.279233,47.283136 138.279233,48.6446796 C138.279233,50.0065443 138.350544,51.3520319 138.487118,52.6772891 L133.322148,54.6335446 L133.897731,57.9259753 L139.414483,57.9824922 C140.068063,60.6246574 140.990652,63.1598901 142.154553,65.5563994 L137.958969,69.181188 L139.616,72.0767159 L144.832544,70.2212917 C146.33008,72.452746 148.054602,74.5181819 149.970137,76.3848453 L147.249167,81.2520424 L149.78772,83.4009692 L154.063529,79.8542124 C156.210506,81.4315478 158.524301,82.789238 160.974669,83.895171 L160.072136,89.3891919 L163.186272,90.5333381 L165.991605,85.7438517 C168.520289,86.474718 171.154666,86.9493316 173.866403,87.1394339 L174.879404,92.6129032 L178.194103,92.6129032 L179.207423,87.1394339 C181.91916,86.9493316 184.553537,86.4756814 187.081902,85.7438517 L189.888508,90.5333381 L193.003281,89.3891919 L192.098838,83.8954921 C194.549843,82.7911647 196.86332,81.4325112 199.00966,79.8554969 L203.285787,83.4000058 L205.824658,81.2520424 L203.104007,76.3854875 C205.019223,74.518503 206.743745,72.4540305 208.240963,70.2222551 L213.457825,72.0763948 L215.115174,69.181188 L210.919591,65.5563994 C212.083174,63.1605323 213.006399,60.6249785 213.660298,57.9828133 L219.175458,57.9259753 Z" id="Fill-6" fill="#0071BC"></path>
                                <path d="M95.1184297,68.46932 C80.5235999,68.4431297 68.7139069,56.405005 68.7393739,41.5829569 C68.7642042,26.7589687 80.6162362,14.763201 95.2113843,14.7887445 C109.804622,14.8146114 121.614634,26.8524128 121.590122,41.676401 C121.564337,56.4997425 109.71326,68.4945402 95.1184297,68.46932 M130.350458,41.6912744 C130.351731,41.1247897 130.338043,40.5628316 130.312894,40.0044302 L136.080537,37.6537771 L134.987683,31.2911702 L128.788056,31.0651583 C128.458577,29.9823058 128.078481,28.9211169 127.653501,27.8848248 L132.274491,23.6795161 L129.105121,18.0806289 L123.193271,20.0254953 C122.522215,19.1279144 121.810412,18.2642838 121.061363,17.4368668 L123.992298,11.8696666 L119.128735,7.70962493 L114.2327,11.5877176 C113.301881,10.9779058 112.341774,10.4117444 111.354609,9.89149664 L112.233221,3.65078741 L106.261842,1.43108539 L102.967683,6.77453705 C101.893293,6.52750831 100.800758,6.3283333 99.6913512,6.18380208 L98.4151352,0.011316762 L92.0566575,0 L90.7591129,6.16731194 C89.6490692,6.3086098 88.5565341,6.5032581 87.482781,6.74705349 L84.2051757,1.39163839 L78.2258382,3.59032357 L79.0828033,9.83426616 C78.094683,10.3516038 77.1323481,10.9138852 76.2008919,11.5214337 L71.3172728,7.62523422 L66.4377921,11.7687858 L69.3515373,17.3460094 C68.5993053,18.1708397 67.8836821,19.0312369 67.2100794,19.9259078 L61.3052329,17.9606713 L58.1161255,23.548565 L62.7237458,27.7697172 C62.2952632,28.8050393 61.9110296,29.8642882 61.57773,30.946494 L55.3774661,31.150519 L54.2620107,37.5092459 L60.0216952,39.8799459 C59.9949548,40.4386706 59.9803113,41.0003053 59.9793563,41.5664667 C59.9780829,42.1316582 59.9917714,42.6952329 60.0162834,43.2549276 L54.2483221,45.6039641 L55.3414939,51.9659243 L61.5411212,52.1932296 C61.8712374,53.2764053 62.2513326,54.337271 62.6759952,55.3722697 L58.054368,59.5785484 L61.2237384,65.1784056 L67.1362251,63.2322459 C67.8075993,64.1295034 68.5181292,64.9924874 69.2681328,65.8202277 L66.3365607,71.3871045 L71.2007612,75.5477929 L76.0977505,71.6700236 C77.0279333,72.2801587 77.9883582,72.8453502 78.9748869,73.3659212 L78.095638,79.6072771 L84.0682905,81.8269791 L87.3624493,76.4828808 C88.4368391,76.7305562 89.5293742,76.9287612 90.6371895,77.0739391 L91.9134055,83.2470711 L98.2718833,83.2580645 L99.5700645,77.0894592 C100.678835,76.9494547 101.772643,76.7538364 102.846396,76.5103644 L106.12432,81.8670728 L112.103339,79.6670943 L111.245101,73.422505 C112.234494,72.905814 113.197148,72.3428859 114.127967,71.7369542 L119.012541,75.6318603 L123.890749,71.4896021 L120.977322,65.9120551 C121.729872,65.0875482 122.443904,64.2265042 123.11878,63.3318334 L129.024581,65.2973933 L132.213689,59.7098229 L127.605113,55.487054 C128.034551,54.4520553 128.418466,53.3931297 128.750811,52.3112472 L134.951393,52.1072222 L136.067485,45.749142 L130.307482,43.3787653 C130.334541,42.8190706 130.348866,42.2564659 130.350458,41.6912744" id="Fill-8" fill="#F7931E"></path>
                                <path d="M85.9851404,46.0577203 C86.4106166,46.146039 86.9006067,46.1887098 87.4551106,46.1887098 C88.4265938,46.1887098 89.2032769,46.0180265 89.7851598,45.6769905 C90.3670427,45.3343006 90.8016453,44.8282045 91.0895971,44.1580407 C91.3769195,43.4872153 91.520738,42.7307174 91.520738,41.8895394 C91.520738,40.6491079 91.2063513,39.6875253 90.5766338,39.0034686 C89.9469163,38.319412 88.9543481,37.9780452 87.5989291,37.9780452 C87.0403342,37.9780452 86.5021948,38.0217084 85.9851404,38.1096964 C85.951782,38.8284851 85.9351028,39.6392312 85.9351028,40.5425961 L85.9351028,42.6063435 L85.9473762,44.5391013 C85.9473762,44.916854 85.9602789,45.4226193 85.9851404,46.0577203 Z M83.6711409,37.478234 L83.7214932,37.4319245 C84.4427888,37.4673182 84.9346671,37.4845188 85.1974427,37.4845188 L88.1247952,37.4193548 C88.9587539,37.4193548 89.6422853,37.5013887 90.1757042,37.6657872 C90.7100672,37.8301858 91.1843222,38.1149889 91.5990987,38.5201965 C92.0138751,38.9257349 92.3285765,39.3970989 92.5435176,39.9336269 C92.7584586,40.4704857 92.8657718,41.0443921 92.8657718,41.6533613 C92.8657718,42.2444682 92.767585,42.8296212 92.571526,43.4084892 C92.3760964,43.9870265 92.0969563,44.5050307 91.7369379,44.9628327 C91.3762901,45.4209654 90.96529,45.7904486 90.5042525,46.0709515 C90.0435296,46.3514545 89.5821774,46.5383462 89.1189369,46.6329497 C88.6563259,46.7268918 88.1827002,46.7741935 87.6990042,46.7741935 C87.3742323,46.7741935 86.761194,46.7609623 85.8605186,46.7348305 C85.5643846,46.7258994 85.3683256,46.7215992 85.272027,46.7215992 C84.9847046,46.7215992 84.6363301,46.7391307 84.2281624,46.7741935 L84.1781249,46.7215992 L84.1781249,46.5049372 L84.2281624,46.4391116 C84.4736295,46.3074605 84.6149304,46.2250958 84.650177,46.1926792 C84.6854236,46.1599318 84.7146908,45.7765558 84.7373493,45.0418895 C84.7603225,44.3078848 84.7722811,43.7482021 84.7722811,43.3621798 L84.7722811,40.9494577 L84.7659871,39.4566396 C84.7659871,39.1324735 84.7612666,38.8688405 84.7533991,38.6650789 C84.7445874,38.4613174 84.7301112,38.3157734 84.7096556,38.2274547 C84.6885706,38.1401283 84.6646533,38.0789337 84.6375889,38.0432092 C84.6105246,38.0088079 84.5664664,37.9787068 84.5066732,37.9555521 C84.4456211,37.9310742 84.3420843,37.9099042 84.197007,37.892042 L83.7214932,37.8526789 L83.6711409,37.8070311 L83.6711409,37.478234 Z" id="Fill-10" fill="#4D4D4D"></path>
                                <path d="M95.0142983,42.5115642 C95.0909337,42.5229517 95.3865271,42.536332 95.8997907,42.5511358 C96.4146643,42.5662243 96.794943,42.5733414 97.0432029,42.5733414 C97.6350338,42.5733414 97.9969587,42.5648008 98.1251136,42.5454421 C98.1280115,42.455196 98.1312315,42.3854475 98.1312315,42.3361966 C98.1312315,41.7511633 97.9969587,41.3170145 97.727769,41.0320421 C97.4589013,40.7470697 97.0911804,40.6047258 96.6268604,40.6047258 C96.1187488,40.6047258 95.7233362,40.765005 95.4393347,41.0855634 C95.1562991,41.4064065 95.0142983,41.8815503 95.0142983,42.5115642 Z M99.116221,44.8260754 L98.9111088,45.2334636 C98.4673966,45.4856969 98.072306,45.6499617 97.723905,45.7251193 C97.377114,45.8008462 97.0654207,45.8387097 96.793011,45.8387097 C96.2820014,45.8387097 95.7957856,45.7496024 95.3366175,45.5725267 C94.8790595,45.3954509 94.5052207,45.0956747 94.2170332,44.6729134 C93.9294897,44.2504368 93.7852349,43.7414152 93.7852349,43.1452791 C93.7852349,42.7492785 93.8409404,42.3922801 93.9520295,42.0728604 C94.0621525,41.7542949 94.1787155,41.5174347 94.3004305,41.3628492 C94.4218234,41.2079791 94.6272577,41.0365971 94.9180212,40.8475644 C95.2087846,40.6591012 95.51597,40.507932 95.8392552,40.3951956 C96.1631844,40.2821746 96.5135174,40.2258065 96.8889662,40.2258065 C97.4015858,40.2258065 97.8520599,40.3322797 98.2419985,40.5457955 C98.6329032,40.7581725 98.9072448,41.0314727 99.0653455,41.3628492 C99.2224801,41.6947951 99.3020134,42.0472385 99.3020134,42.4213182 C99.3020134,42.5374708 99.2952515,42.6507765 99.2833376,42.760666 L99.2124982,42.8230126 C98.9217347,42.8790961 98.5305081,42.9169595 98.0413943,42.9360336 C97.5500265,42.9551077 97.2254533,42.963933 97.0683186,42.963933 L95.0142983,42.963933 C95.0223483,43.7448314 95.2454923,44.3201853 95.6789006,44.6899947 C96.1152068,45.0598041 96.6484343,45.2442817 97.2798708,45.2442817 C97.5780403,45.2442817 97.8652618,45.1987317 98.1402474,45.1093397 C98.4149111,45.017955 98.7072845,44.8915536 99.0144699,44.7292816 L99.116221,44.8260754 Z" id="Fill-12" fill="#4D4D4D"></path>
                                <path d="M102.55991,45.8387097 L102.138931,44.9114509 L101.636692,43.90095 L100.245376,41.0829039 C100.154557,40.89769 100.075004,40.775205 100.003987,40.7163409 C99.9343363,40.6571795 99.8626367,40.6218015 99.7912784,40.6096125 C99.7178716,40.5983153 99.5734479,40.5882074 99.3566418,40.5804777 L99.3020134,40.533208 L99.3020134,40.279022 L99.3631289,40.2258065 C99.9968175,40.2537521 100.498715,40.2671303 100.870188,40.2671303 C101.393937,40.2671303 101.921783,40.2537521 102.450654,40.2258065 L102.505282,40.2730761 L102.505282,40.533208 L102.450654,40.5804777 C101.979484,40.5920722 101.707026,40.6209097 101.630205,40.6663956 C101.552359,40.7115842 101.515485,40.7698537 101.515485,40.8403123 C101.515485,40.9583379 101.604256,41.2128212 101.785212,41.6028704 L102.613856,43.3988211 L103.264616,44.7399125 L103.944056,43.3988211 L104.506728,42.1819984 C104.723875,41.7205987 104.864543,41.3941703 104.927366,41.2009295 C104.990871,41.0079859 105.022624,40.8801497 105.022624,40.8171234 C105.022624,40.7419081 104.972434,40.6875034 104.87342,40.6545038 C104.773041,40.6209097 104.522775,40.5962343 104.119891,40.5804777 L104.065945,40.533208 L104.065945,40.279022 L104.127402,40.2258065 C104.687001,40.2537521 105.107981,40.2671303 105.389317,40.2671303 C105.623877,40.2671303 106.027444,40.2537521 106.597286,40.2258065 L106.657718,40.279022 L106.657718,40.533208 L106.603773,40.5804777 C106.336435,40.6000991 106.159235,40.6339906 106.070805,40.6812603 C105.981693,40.7279353 105.897019,40.8197991 105.813369,40.9556622 C105.729719,41.0915254 105.487989,41.5142769 105.091251,42.2233222 L104.439466,43.4347936 C104.33021,43.6393316 103.939617,44.4411324 103.264616,45.8387097 L102.55991,45.8387097 Z" id="Fill-14" fill="#4D4D4D"></path>
                                <path d="M166.766678,47.37412 C166.766678,47.8892441 166.846953,48.4433659 167.007165,49.0364855 C167.166696,49.6288959 167.405142,50.1376386 167.723183,50.5612955 C168.040885,50.9853068 168.407228,51.3011881 168.822552,51.5071669 C169.237537,51.7145637 169.709667,51.8177304 170.240984,51.8177304 C170.868563,51.8177304 171.427091,51.6684756 171.916569,51.3681933 C172.406047,51.0686201 172.779533,50.6031294 173.033966,49.9727847 C173.28908,49.3417311 173.416636,48.6341001 173.416636,47.8491828 C173.416636,46.9976149 173.271052,46.2265241 172.979542,45.5387465 C172.688032,44.8516779 172.273048,44.3510893 171.734248,44.0383987 C171.195788,43.7260626 170.599503,43.5704263 169.943351,43.5704263 C168.958953,43.5704263 168.183408,43.8905619 167.617056,44.5326059 C167.050364,45.1742953 166.766678,46.1205212 166.766678,47.37412 M165.503356,47.7924589 C165.503356,47.1589236 165.591115,46.5686402 165.764592,46.0198363 C165.938069,45.4710323 166.235361,44.9637077 166.654088,44.4978625 C167.073834,44.0305991 167.578279,43.6700477 168.169802,43.4158536 C168.760645,43.1598869 169.428362,43.0322581 170.173974,43.0322581 C171.554648,43.0322581 172.653677,43.4240077 173.471741,44.2064433 C174.289125,44.9892335 174.697987,46.0577704 174.697987,47.411345 C174.697987,48.3657251 174.497978,49.2226108 174.096939,49.9816479 C173.695901,50.7410394 173.122065,51.3327408 172.375093,51.753916 C171.628121,52.1765092 170.788967,52.3870968 169.858313,52.3870968 C169.19808,52.3870968 168.590229,52.2729399 168.036123,52.0435625 C167.481336,51.812767 167.008525,51.4699418 166.618032,51.0133142 C166.227198,50.5573957 165.943852,50.0309268 165.767653,49.4310713 C165.591115,48.8326339 165.503356,48.2856025 165.503356,47.7924589" id="Fill-16" fill="#4D4D4D"></path>
                                <path d="M176.377613,50.4945381 C176.531144,50.6856266 176.720126,50.849854 176.945956,50.9899402 C177.171786,51.1296865 177.420226,51.1987096 177.693232,51.1987096 C178.015926,51.1987096 178.300655,51.1001052 178.548817,50.9011963 C178.795583,50.7036474 178.988194,50.4129344 179.123859,50.0307573 C179.260083,49.6482402 179.327916,49.2245812 179.327916,48.7584204 C179.327916,48.3816835 179.26762,48.0324879 179.14647,47.7084534 C179.024762,47.3847589 178.837455,47.1297475 178.583431,46.9434191 C178.329128,46.7577708 178.058914,46.6639266 177.773068,46.6639266 C177.597205,46.6639266 177.424972,46.7023483 177.259996,46.7764717 C177.093904,46.851615 176.939256,46.9610999 176.7941,47.1069664 C176.65006,47.252833 176.546218,47.3925792 176.482572,47.5234851 C176.418368,47.6543909 176.386546,47.7642159 176.382358,47.8512598 C176.379567,47.9379636 176.377613,48.034868 176.377613,48.1392526 L176.377613,50.4945381 Z M176.337695,45.8387097 L176.432605,45.9111329 C176.398828,46.3721936 176.381521,46.7815719 176.377613,47.1382478 C176.829552,46.6363854 177.144429,46.3045305 177.322804,46.1420033 C177.499783,45.9811761 177.806566,45.8995724 178.241476,45.8995724 C178.514761,45.8995724 178.760968,45.9454745 178.984286,46.0359185 C179.207324,46.1270426 179.412776,46.2766493 179.602596,46.4854186 C179.791299,46.694188 179.941201,46.9549796 180.050068,47.2691537 C180.160611,47.5816277 180.214765,47.945444 180.214765,48.3575424 C180.214765,48.6496155 180.176801,48.9450887 180.100594,49.2443021 C180.024108,49.5441955 179.923894,49.8213079 179.799395,50.0759793 C179.674616,50.3299707 179.574961,50.4996383 179.500428,50.583282 C179.425617,50.6655657 179.271807,50.7903513 179.03872,50.9562787 C178.829639,51.1106456 178.621674,51.2762331 178.416501,51.453721 C178.273299,51.5791866 178.173364,51.6601102 178.116418,51.6961518 C178.060589,51.7332135 177.965679,51.7692551 177.832805,51.8049567 C177.699652,51.8430384 177.558683,51.8607192 177.40906,51.8607192 C177.064314,51.8607192 176.720126,51.7529344 176.377613,51.5387248 L176.377613,52.8314627 C176.377613,52.9212267 176.384033,53.2075195 176.397153,53.6913612 C176.411111,54.1745228 176.425347,54.4577555 176.440421,54.537319 C176.454937,54.6182426 176.476989,54.6780853 176.506858,54.7137869 C176.537006,54.7498285 176.573295,54.7732896 176.617121,54.78383 C176.660668,54.7936905 176.83988,54.8106913 177.155037,54.8351723 L177.1997,54.8841345 L177.1997,55.1384659 L177.160061,55.1935484 C176.74497,55.161927 176.346069,55.1445862 175.964476,55.1445862 C175.581486,55.1445862 175.183423,55.161927 174.767773,55.1935484 L174.723389,55.1384659 L174.723389,54.8841345 L174.767773,54.8351723 C175.086559,54.8106913 175.267446,54.7923304 175.310993,54.7804299 C175.35454,54.7681893 175.391666,54.7426882 175.424047,54.7052865 C175.455033,54.6658448 175.476527,54.603622 175.48853,54.5192982 C175.499696,54.4339544 175.513374,54.1636423 175.528169,53.7059818 C175.542685,53.2493414 175.550222,52.9045659 175.550222,52.6740356 L175.550222,48.0239875 C175.550222,47.8141981 175.542685,47.5693871 175.528169,47.2926148 C175.513374,47.0151623 175.500813,46.8553552 175.490484,46.8101332 C175.480435,46.7649111 175.456428,46.7295496 175.418465,46.7003082 C175.380221,46.672767 175.295082,46.6581464 175.161649,46.6581464 L174.743488,46.6516861 L174.697987,46.6034039 L174.697987,46.3419322 L174.738184,46.2939901 C175.372126,46.2011659 175.905576,46.0491791 176.337695,45.8387097 Z" id="Fill-18" fill="#4D4D4D"></path>
                                <path d="M181.269785,49.5998815 L181.486845,49.5998815 L181.533256,49.650022 C181.538916,49.9656867 181.556745,50.2359411 181.583347,50.4614159 C181.687774,50.6386423 181.868044,50.7814955 182.123875,50.8924985 C182.380838,51.0028708 182.632424,51.0580569 182.881746,51.0580569 C183.239173,51.0580569 183.524153,50.9514688 183.738383,50.737662 C183.95233,50.5232244 184.058738,50.2681068 184.058738,49.9710477 C184.058738,49.8108502 184.019967,49.6705197 183.942708,49.5528944 C183.86545,49.4340077 183.74942,49.3365648 183.59179,49.2596195 C183.435008,49.1823589 183.154557,49.0915383 182.750434,48.9862116 C182.403478,48.8957064 182.161231,48.8263295 182.023127,48.7758736 C181.885307,48.724787 181.751449,48.639958 181.624099,48.5182332 C181.496184,48.3987158 181.397983,48.2514476 181.330346,48.0770594 C181.263842,47.9023559 181.230165,47.7103081 181.230165,47.4993394 C181.230165,46.9966725 181.409303,46.5946021 181.768428,46.2924974 C182.126988,45.9903927 182.573277,45.8387097 183.10956,45.8387097 C183.33511,45.8387097 183.58047,45.8740288 183.847338,45.9430903 C184.113357,46.0127825 184.315701,46.0796366 184.453238,46.1430218 L184.498518,46.2215438 C184.471916,46.3719654 184.45437,46.7664675 184.447861,47.4037885 L184.402864,47.4548751 L184.20052,47.4548751 L184.15524,47.4037885 C184.141373,47.175791 184.123827,47.0152781 184.099207,46.9235115 C184.076284,46.8311141 184.01459,46.7317791 183.917521,46.6245603 C183.820736,46.5176568 183.681217,46.4271516 183.503494,46.3543059 C183.325488,46.2817755 183.135879,46.2445643 182.93778,46.2445643 C182.731756,46.2445643 182.558844,46.277676 182.419892,46.3461068 C182.28009,46.4132762 182.167457,46.5163954 182.081425,46.6529417 C181.995677,46.7901187 181.952095,46.9563078 181.952095,47.1502477 C181.952095,47.2943623 181.978131,47.4214481 182.030768,47.5337125 C182.083406,47.6462922 182.162646,47.7374282 182.270468,47.8071204 C182.378008,47.8761819 182.491773,47.9263224 182.608935,47.9559653 L183.160217,48.1136399 C183.63141,48.2404104 183.969027,48.3520441 184.173352,48.4460182 C184.376828,48.5396769 184.533893,48.6809534 184.644828,48.8707938 C184.75633,49.0606341 184.812081,49.2905238 184.812081,49.5610935 C184.812081,50.0785818 184.62049,50.5232244 184.235895,50.8947059 C183.851866,51.2665028 183.358316,51.4516129 182.755528,51.4516129 C182.542996,51.4516129 182.28009,51.426385 181.965113,51.3730909 C181.649852,51.3207429 181.381286,51.263034 181.158849,51.1987027 L181.134228,51.125857 L181.183753,50.7486992 C181.201299,50.632966 181.210921,50.5153407 181.214883,50.3974 C181.217713,50.2785133 181.220826,50.0303333 181.224788,49.650022 L181.269785,49.5998815 Z" id="Fill-20" fill="#4D4D4D"></path>
                                <path d="M109.730328,46.8733251 L109.730328,45.7879482 L111.416123,45.7879482 L111.416123,47.4542759 L110.446632,47.4542759 C110.051927,47.4542759 109.730328,47.1947292 109.730328,46.8733251 Z M110.446632,38.6096025 L111.416123,38.6096025 L111.416123,40.8275465 L109.730328,40.8275465 L109.730328,39.1915099 C109.730328,38.8704246 110.051927,38.6096025 110.446632,38.6096025 Z M119.216316,39.1915099 L119.216316,40.8275465 L117.530186,40.8275465 L117.530186,38.6096025 L118.500012,38.6096025 C118.895052,38.6096025 119.216316,38.8704246 119.216316,39.1915099 Z M116.010389,47.4542759 L117.495645,47.4542759 L117.495645,45.7879482 L116.010389,45.7879482 L116.010389,47.4542759 Z M114.491263,47.4542759 L115.975513,47.4542759 L115.975513,45.7879482 L114.491263,45.7879482 L114.491263,47.4542759 Z M112.970796,47.4542759 L114.456387,47.4542759 L114.456387,45.7879482 L112.970796,45.7879482 L112.970796,47.4542759 Z M111.450999,47.4542759 L112.936255,47.4542759 L112.936255,45.7879482 L111.450999,45.7879482 L111.450999,47.4542759 Z M111.450999,45.7592514 L112.936255,45.7592514 L112.936255,44.5546234 L111.450999,44.5546234 L111.450999,45.7592514 Z M109.730328,45.7592514 L111.416123,45.7592514 L111.416123,44.5546234 L109.730328,44.5546234 L109.730328,45.7592514 Z M109.730328,44.5265643 L111.416123,44.5265643 L111.416123,43.3219363 L109.730328,43.3219363 L109.730328,44.5265643 Z M109.730328,43.2935584 L111.416123,43.2935584 L111.416123,42.0892493 L109.730328,42.0892493 L109.730328,43.2935584 Z M109.730328,42.0605525 L111.416123,42.0605525 L111.416123,40.8556056 L109.730328,40.8556056 L109.730328,42.0605525 Z M111.450999,42.0605525 L112.936255,42.0605525 L112.936255,40.8556056 L111.450999,40.8556056 L111.450999,42.0605525 Z M111.450999,40.8275465 L112.936255,40.8275465 L112.936255,38.6096025 L111.450999,38.6096025 L111.450999,40.8275465 Z M112.97046,40.8275465 L114.456052,40.8275465 L114.456052,38.6096025 L112.97046,38.6096025 L112.97046,40.8275465 Z M114.491598,40.8275465 L115.975848,40.8275465 L115.975848,38.6096025 L114.491598,38.6096025 L114.491598,40.8275465 Z M116.010389,40.8275465 L117.495645,40.8275465 L117.495645,38.6096025 L116.010389,38.6096025 L116.010389,40.8275465 Z M116.010389,42.0605525 L117.495645,42.0605525 L117.495645,40.8556056 L116.010389,40.8556056 L116.010389,42.0605525 Z M117.530186,42.0605525 L119.21598,42.0605525 L119.21598,40.8556056 L117.530186,40.8556056 L117.530186,42.0605525 Z M117.530186,43.2938772 L119.21598,43.2938772 L119.21598,42.0895681 L117.530186,42.0895681 L117.530186,43.2938772 Z M117.530186,44.5265643 L119.21598,44.5265643 L119.21598,43.3219363 L117.530186,43.3219363 L117.530186,44.5265643 Z M117.530186,45.7592514 L119.21598,45.7592514 L119.21598,44.5546234 L117.530186,44.5546234 L117.530186,45.7592514 Z M116.010389,45.7592514 L117.495645,45.7592514 L117.495645,44.5546234 L116.010389,44.5546234 L116.010389,45.7592514 Z M114.491263,45.7592514 L115.975513,45.7592514 L115.975513,44.5546234 L114.491263,44.5546234 L114.491263,45.7592514 Z M112.97046,45.7592514 L114.456052,45.7592514 L114.456052,44.5546234 L112.97046,44.5546234 L112.97046,45.7592514 Z M112.970796,44.5265643 L114.456387,44.5265643 L114.456387,43.3219363 L112.970796,43.3219363 L112.970796,44.5265643 Z M111.450999,44.5265643 L112.936255,44.5265643 L112.936255,43.3219363 L111.450999,43.3219363 L111.450999,44.5265643 Z M111.450999,43.2935584 L112.936255,43.2935584 L112.936255,42.0892493 L111.450999,42.0892493 L111.450999,43.2935584 Z M112.97046,43.2935584 L114.456052,43.2935584 L114.456052,42.0892493 L112.97046,42.0892493 L112.97046,43.2935584 Z M112.97046,42.0605525 L114.456052,42.0605525 L114.456052,40.8556056 L112.97046,40.8556056 L112.97046,42.0605525 Z M114.491263,42.0605525 L115.975513,42.0605525 L115.975513,40.8556056 L114.491263,40.8556056 L114.491263,42.0605525 Z M114.491598,43.2935584 L115.975848,43.2935584 L115.975848,42.0892493 L114.491598,42.0892493 L114.491598,43.2935584 Z M116.010389,43.2938772 L117.495645,43.2938772 L117.495645,42.0895681 L116.010389,42.0895681 L116.010389,43.2938772 Z M114.491598,44.5265643 L115.975848,44.5265643 L115.975848,43.3219363 L114.491598,43.3219363 L114.491598,44.5265643 Z M116.010389,44.5265643 L117.495645,44.5265643 L117.495645,43.3219363 L116.010389,43.3219363 L116.010389,44.5265643 Z M118.500012,47.4542759 L117.530186,47.4542759 L117.530186,45.7879482 L119.216316,45.7879482 L119.216316,46.8733251 C119.216316,47.1947292 118.895052,47.4542759 118.500012,47.4542759 Z M119.530201,46.8733251 L119.530201,39.1915099 C119.530201,38.7298103 119.068763,38.3548387 118.500012,38.3548387 L110.446632,38.3548387 C109.878552,38.3548387 109.416107,38.7298103 109.416107,39.1915099 L109.416107,46.8733251 C109.416107,47.3353436 109.878552,47.7096774 110.446632,47.7096774 L118.500012,47.7096774 C119.068763,47.7096774 119.530201,47.3353436 119.530201,46.8733251 Z" id="Fill-22" fill="#666666"></path>
                                <polygon id="Fill-24" fill="#666666" points="110.33557 41.1612903 113.09396 41.1612903 113.09396 40.2258065 110.33557 40.2258065"></polygon>
                                <polygon id="Fill-26" fill="#666666" points="111.255034 43.0322581 115.852349 43.0322581 115.852349 42.0967742 111.255034 42.0967742"></polygon>
                                <polygon id="Fill-27" fill="#666666" points="112.174497 43.9677419 114.013423 43.9677419 114.013423 43.0322581 112.174497 43.0322581"></polygon>
                                <polygon id="Fill-28" fill="#666666" points="114.013423 44.9032258 117.691275 44.9032258 117.691275 43.9677419 114.013423 43.9677419"></polygon>
                                <path d="M111.481497,39.7312325 C111.501358,39.7355529 111.52508,39.7364624 111.558456,39.7364624 C111.680377,39.7364624 111.755405,39.6805244 111.755405,39.5852479 C111.755405,39.4999765 111.690859,39.449041 111.576386,39.449041 C111.530045,39.449041 111.498048,39.4531341 111.481497,39.4572271 L111.481497,39.7312325 Z M111.255034,39.3101055 C111.325372,39.298736 111.424674,39.2903226 111.564249,39.2903226 C111.70603,39.2903226 111.806436,39.3153355 111.874016,39.365134 C111.938838,39.411749 111.982697,39.4890617 111.982697,39.5797905 C111.982697,39.670974 111.949044,39.7476046 111.889463,39.8003591 C111.811125,39.8672119 111.695548,39.898137 111.560111,39.898137 C111.530045,39.898137 111.502737,39.8967726 111.481497,39.8933618 L111.481497,40.2258065 L111.255034,40.2258065 L111.255034,39.3101055 Z" id="Fill-29" fill="#666666"></path>
                                <polygon id="Fill-30" fill="#666666" points="113.09396 39.2903226 113.323734 39.2903226 113.323734 40.0479683 113.726734 40.0479683 113.726734 40.2258065 113.09396 40.2258065"></polygon>
                                <path d="M114.577115,39.8272747 L114.5143,39.628811 C114.496196,39.5735803 114.47864,39.5041409 114.463279,39.4484519 L114.459988,39.4484519 C114.44545,39.5041409 114.430363,39.5747262 114.414179,39.628811 L114.354107,39.8272747 L114.577115,39.8272747 Z M114.321465,39.9854041 L114.249598,40.2258065 L114.013423,40.2258065 L114.321465,39.2903226 L114.620181,39.2903226 L114.932886,40.2258065 L114.687933,40.2258065 L114.610031,39.9854041 L114.321465,39.9854041 Z" id="Fill-31" fill="#666666"></path>
                                <path d="M114.932886,40.2258065 L114.932886,39.2903226 L115.20045,39.2903226 L115.411191,39.6333944 C115.471323,39.7317096 115.530905,39.8479003 115.576418,39.9537782 L115.581107,39.9537782 C115.565936,39.8297956 115.560971,39.7039797 115.560971,39.5639551 L115.560971,39.2903226 L115.771988,39.2903226 L115.771988,40.2258065 L115.530905,40.2258065 L115.314371,39.8644008 C115.25479,39.7649397 115.188589,39.6441656 115.138938,39.5343917 L115.133972,39.535996 C115.140593,39.6595202 115.143627,39.7912946 115.143627,39.9436946 L115.143627,40.2258065 L114.932886,40.2258065 Z" id="Fill-32" fill="#666666"></path>
                                <path d="M75.2164151,42.6700474 C75.2758459,42.7306739 75.2758459,42.8277443 75.2164151,42.8880302 C75.1566448,42.9489973 75.0608764,42.9489973 75.0017852,42.8880302 L71.8505973,39.6830013 C71.7918458,39.6223748 71.7918458,39.5242826 71.8505973,39.4639967 C71.9100281,39.4037108 72.0057965,39.4037108 72.0659064,39.4639967 L75.2164151,42.6700474 Z M74.3351421,43.5665018 C74.3942332,43.6271283 74.3942332,43.7252205 74.3351421,43.7851658 C74.2757113,43.8457923 74.1789241,43.8457923 74.1201726,43.7851658 L70.9696639,40.5794557 C70.9098935,40.5191699 70.9098935,40.4214182 70.9696639,40.3611323 C71.028755,40.3008464 71.1252026,40.3008464 71.1842938,40.3611323 L74.3351421,43.5665018 Z M70.3244158,38.8080046 C69.7307876,39.4118852 69.7307876,40.3921267 70.3244158,40.9953261 L73.4317948,44.157099 C73.9269378,44.6608438 74.6788216,44.7442903 75.2588657,44.4077793 L76.9616414,46.1400617 L77.4781795,47.2432592 L79.4247911,48.6451613 L79.9932886,48.066485 L78.6151745,46.0859065 L77.5311577,45.5607042 L75.8280424,43.8280812 C76.1588169,43.2378245 76.0766327,42.4738628 75.5818293,41.9697775 L72.4737711,38.8080046 C71.8804825,38.2037834 70.9177044,38.2037834 70.3244158,38.8080046 Z" id="Fill-33" fill="#666666"></path>
                                <path d="M71.7414118,47.4240129 L72.0706306,47.0918606 L71.9511588,46.6316982 L71.5075021,46.509078 L71.1782833,46.8415673 L71.2977551,47.3010559 L71.7414118,47.4240129 Z M71.4212541,48.6451613 C71.0084721,48.6451613 70.6205242,48.4824538 70.3292277,48.1843252 C69.7291836,47.5739194 69.7291836,46.5815048 70.3292277,45.9714359 L75.0594406,41.1542161 C74.9758774,40.3962619 75.2352924,39.6335916 75.7665395,39.0925808 C76.2336878,38.6169224 76.8548744,38.3548387 77.5163323,38.3548387 C77.7911847,38.3548387 78.0623455,38.4006528 78.3217605,38.4912705 L78.6969559,38.6219754 L76.7716468,40.5818765 C76.7270126,40.6276906 76.7270126,40.7011279 76.7716468,40.7476158 L77.6428516,41.6342537 C77.6703704,41.6628875 77.7025876,41.66693 77.7190317,41.66693 C77.7358115,41.66693 77.767693,41.6628875 77.7952118,41.6345906 L79.7275684,39.6669416 L79.8577793,40.0543404 C80.1658556,40.969949 79.9400001,41.964048 79.2681387,42.6485648 C78.8006547,43.1238863 78.1791326,43.3856331 77.5170035,43.3856331 C77.425386,43.3856331 77.3330974,43.3805801 77.2418155,43.3701372 L72.512945,48.1843252 C72.2216484,48.4824538 71.8340361,48.6451613 71.4212541,48.6451613 Z" id="Fill-34" fill="#666666"></path>
                                <path d="M71.3931942,47.2044962 L71.762143,47.3073295 L72.036617,47.0294465 L71.9365069,46.6437383 L71.5678896,46.5419034 L71.2934156,46.8197863 L71.3931942,47.2044962 Z M71.7989384,47.4457718 L71.2910951,47.3059983 L71.1555155,46.7825134 L71.5310942,46.4027955 L72.0382745,46.5435673 L72.1741855,47.0663867 L71.7989384,47.4457718 Z M77.4846618,38.4789709 C76.8478687,38.4789709 76.24986,38.7315615 75.8006905,39.1898188 C75.2935102,39.7056495 75.0389256,40.4481128 75.1198092,41.1752677 L75.1231242,41.2052191 L75.1019088,41.2258524 L70.4295516,45.985139 C69.860714,46.563535 69.860714,47.5056747 70.4295516,48.0847362 C70.7056831,48.3662799 71.0729744,48.5203635 71.4641331,48.5203635 C71.8549603,48.5203635 72.2222517,48.3662799 72.4983832,48.0847362 L77.1906298,43.3064803 L77.2204639,43.3094754 C77.9517317,43.3916756 78.6597952,43.1354242 79.1712849,42.6146016 C79.8180227,41.9560023 80.0354804,40.9978885 79.739128,40.1159844 L79.6426643,39.8287832 L77.8042185,41.7007494 C77.7611248,41.7446782 77.7110697,41.7510013 77.684882,41.7510013 C77.6586942,41.7510013 77.6083077,41.7446782 77.5655454,41.7000838 L76.7049963,40.8245028 C76.6373723,40.7546161 76.6373723,40.6431301 76.7053278,40.5732434 L78.5378068,38.7072675 L78.2600178,38.6104245 C78.0104055,38.5232325 77.7495226,38.4789709 77.4846618,38.4789709 Z M71.4641331,48.6451613 C71.0394939,48.6451613 70.640711,48.4774331 70.3413751,48.1725938 C69.7251345,47.5446116 69.7251345,46.5245981 70.3413751,45.8972814 L74.9931799,41.1592936 C74.9189261,40.4048496 75.1864388,39.6377595 75.7121826,39.102294 C76.1855509,38.6204083 76.8147197,38.3548387 77.4846618,38.3548387 C77.7634452,38.3548387 78.0379192,38.4010971 78.3004596,38.493281 L78.7635517,38.6550189 L76.7938358,40.661101 C76.7729519,40.682067 76.7729519,40.716012 76.7935043,40.7366452 L77.6537219,41.6132245 C77.6759317,41.6355217 77.6941637,41.6355217 77.7163736,41.6132245 L79.6957027,39.5978242 L79.8561441,40.0760492 C80.1680766,41.0032132 79.9390167,42.0092494 79.2594614,42.7021264 C78.7274193,43.2429167 77.9954885,43.5128126 77.2370384,43.4366027 L72.5868911,48.1725938 C72.2872238,48.4774331 71.8884408,48.6451613 71.4641331,48.6451613 Z" id="Fill-35" fill="#666666"></path>
                                <path d="M92.7252694,65.8251796 L92.5090287,65.8188015 L92.5524438,65.7032876 C93.160812,64.0736915 94.0012842,61.5766783 94.0357936,61.3254533 C94.0357936,61.0519051 94.035237,58.5233558 94.035237,58.5233558 L94.234223,58.5233558 C94.234223,58.5233558 94.2353362,61.0873388 94.2353362,61.3300597 C94.2353362,61.5759696 93.2175856,64.5066914 92.7252694,65.8251796 M97.4458284,66.306015 L95.5361199,61.358761 L95.5361199,58.3426439 L96.0529267,58.3426439 C96.0671201,58.3426439 96.0785305,58.3309508 96.0785305,58.3178403 L96.0785305,58.0262209 C96.0785305,58.0116931 96.0671201,58 96.0529267,58 L93.3586848,58 C93.3447697,58 93.333081,58.0116931 93.333081,58.0262209 L93.333081,58.3178403 C93.333081,58.3309508 93.3447697,58.3426439 93.3586848,58.3426439 L93.8754916,58.3426439 L93.8754916,61.2992323 L91.9657831,66.306015 C91.9151321,66.4307416 91.9602171,66.4183398 92.1372172,66.4183398 L97.2181773,66.4183398 C97.4074227,66.4183398 97.5051067,66.4378284 97.4458284,66.306015" id="Fill-36" fill="#666666"></path>
                                <path d="M94.2452149,57.3062452 C94.1222057,57.3062452 94.0228043,57.4075269 94.0228043,57.532757 C94.0228043,57.6569892 94.1222057,57.758271 94.2452149,57.758271 C94.3677272,57.758271 94.4676256,57.6569892 94.4676256,57.532757 C94.4676256,57.4075269 94.3677272,57.3062452 94.2452149,57.3062452 M94.2452149,58 C93.9914928,58 93.7852349,57.7904516 93.7852349,57.532757 C93.7852349,57.2745634 93.9914928,57.0645161 94.2452149,57.0645161 C94.4986886,57.0645161 94.704698,57.2745634 94.704698,57.532757 C94.704698,57.7904516 94.4986886,58 94.2452149,58" id="Fill-37" fill="#666666"></path>
                                <path d="M94.7045005,55.5769402 C94.4058478,55.5769402 94.1621061,55.8239444 94.1621061,56.1292305 C94.1621061,56.4333272 94.4058478,56.6803314 94.7045005,56.6803314 C95.0031531,56.6803314 95.2468948,56.4333272 95.2468948,56.1292305 C95.2468948,55.8239444 95.0031531,55.5769402 94.7045005,55.5769402 M94.7045005,57.0645161 C94.197265,57.0645161 93.7852349,56.6446486 93.7852349,56.1292305 C93.7852349,55.6134159 94.197265,55.1935484 94.7045005,55.1935484 C95.211736,55.1935484 95.6241611,55.6134159 95.6241611,56.1292305 C95.6241611,56.6446486 95.211736,57.0645161 94.7045005,57.0645161" id="Fill-38" fill="#666666"></path>
                                <path d="M95.8873114,56.2309065 C95.7962846,56.2309065 95.7229114,56.3069613 95.7229114,56.4004161 C95.7229114,56.493871 95.7962846,56.5702065 95.8873114,56.5702065 C95.9780624,56.5702065 96.0519872,56.493871 96.0519872,56.4004161 C96.0519872,56.3069613 95.9780624,56.2309065 95.8873114,56.2309065 M95.8873114,56.6726419 C95.7422201,56.6726419 95.6241611,56.5505613 95.6241611,56.4004161 C95.6241611,56.2511129 95.7422201,56.1290323 95.8873114,56.1290323 C96.0326785,56.1290323 96.1507376,56.2511129 96.1507376,56.4004161 C96.1507376,56.5505613 96.0326785,56.6726419 95.8873114,56.6726419" id="Fill-39" fill="#666666"></path>
                                <path d="M88.6662979,26.3125456 L98.9290769,26.3125456 L98.9290769,20.1093483 L88.6662979,20.1093483 L88.6662979,26.3125456 Z M99.2611437,26.639313 C99.2611437,26.6082827 99.241986,26.5050597 99.241986,26.471813 L99.241986,19.8997359 C99.241986,19.7597832 99.1382151,19.6451613 99.0117743,19.6451613 L88.5590148,19.6451613 C88.4319354,19.6451613 88.3291224,19.7597832 88.3291224,19.8997359 L88.3291224,26.471813 C88.3291224,26.5050597 88.3096454,26.6082827 88.3096454,26.639313 L88.2684564,28.3272944 C88.2684564,28.3770061 88.3051753,28.4178521 88.3498766,28.4178521 L92.1999354,28.4178521 C92.3282919,28.6711601 92.2864643,29.0134426 92.1613007,29.2623177 C92.0153829,29.5517222 91.7241859,29.6828091 91.4064874,29.6828091 L90.6532705,29.6828091 C90.5635486,29.6828091 90.4904301,29.7284045 90.4904301,29.7838157 L90.4904301,29.8347939 C90.4904301,29.8902051 90.5635486,29.9354839 90.6532705,29.9354839 L96.9171993,29.9354839 C97.0072405,29.9354839 97.0797204,29.8902051 97.0797204,29.8347939 L97.0797204,29.7838157 C97.0797204,29.7284045 97.0072405,29.6828091 96.9171993,29.6828091 L96.1777121,29.6828091 C95.8648031,29.6828091 95.5831849,29.5485558 95.4452495,29.2623177 C95.3239174,29.0121761 95.2843248,28.6711601 95.4085305,28.4178521 L99.2205932,28.4178521 C99.2656138,28.4178521 99.3020134,28.3770061 99.3020134,28.3272944 L99.2611437,26.639313 Z" id="Fill-40" fill="#666666"></path>
                                <polygon id="Fill-41" fill="#666666" points="90.1073826 23.7793749 91.0268456 23.3870968 91.0268456 23.573747 90.3316537 23.8534991 90.3316537 23.8564016 91.0268456 24.1363769 91.0268456 24.3225806 90.1073826 23.9305258"></polygon>
                                <polygon id="Fill-42" fill="#666666" points="91.9463087 24.3225806 92.4113732 22.4516129 92.6306651 22.4516129 92.1658765 24.3225806"></polygon>
                                <path d="M93.7836382,24.2367439 C93.7261575,24.2794913 93.6111961,24.3225806 93.4638448,24.3225806 C93.1226102,24.3225806 92.8657718,24.0000943 92.8657718,23.4047087 C92.8657718,22.8363394 93.1226102,22.4516129 93.4980595,22.4516129 C93.6488323,22.4516129 93.7439492,22.499832 93.7852349,22.53232 L93.7475987,22.7234863 C93.6885213,22.680055 93.603897,22.6479089 93.5033058,22.6479089 C93.2195518,22.6479089 93.0311429,22.9197823 93.0311429,23.3965012 C93.0311429,23.8407321 93.2017602,24.1262846 93.4960066,24.1262846 C93.5913516,24.1262846 93.6885213,24.0965324 93.7514764,24.0510492 L93.7836382,24.2367439 Z" id="Fill-43" fill="#666666"></path>
                                <path d="M93.9582667,23.8567172 C93.9582667,24.0523141 94.0767479,24.2004793 94.2441025,24.2004793 C94.4070141,24.2004793 94.5296915,24.0546622 94.5296915,23.8529602 C94.5296915,23.7012728 94.4499635,23.5094329 94.2478051,23.5094329 C94.0456466,23.5094329 93.9582667,23.6867146 93.9582667,23.8567172 M94.704698,23.8477944 C94.704698,24.1784072 94.4635395,24.3225806 94.2359569,24.3225806 C93.9814693,24.3225806 93.7852349,24.1452989 93.7852349,23.8623526 C93.7852349,23.5627348 93.9910959,23.3870968 94.2517544,23.3870968 C94.5217927,23.3870968 94.704698,23.5737709 94.704698,23.8477944" id="Fill-44" fill="#666666"></path>
                                <path d="M96.3584569,23.5494099 C96.3584569,23.5207373 96.3564137,23.4818481 96.350284,23.4531755 C96.3242329,23.3081648 96.2279459,23.188531 96.0948809,23.188531 C95.9120122,23.188531 95.8032105,23.3961599 95.8032105,23.6739873 C95.8032105,23.9280856 95.9000083,24.1386807 96.0907944,24.1386807 C96.2095569,24.1386807 96.3183586,24.0368436 96.350284,23.8657969 C96.3564137,23.8348173 96.3584569,23.8035082 96.3584569,23.7675851 L96.3584569,23.5494099 Z M96.5354513,22.4516129 L96.5354513,23.9696114 C96.5354513,24.081006 96.5374945,24.2082199 96.5436242,24.2942376 L96.384508,24.2942376 L96.3763351,24.0760624 L96.3725041,24.0760624 C96.3183586,24.2164592 96.1995961,24.3225806 96.0407354,24.3225806 C95.8052537,24.3225806 95.6241729,24.0658458 95.6241729,23.6845335 C95.6223851,23.2663094 95.8236427,23.009245 96.0606568,23.009245 C96.2095569,23.009245 96.3099303,23.1002063 96.3543704,23.2017138 L96.3584569,23.2017138 L96.3584569,22.4516129 L96.5354513,22.4516129 Z" id="Fill-45" fill="#666666"></path>
                                <path d="M97.2801789,23.7687253 C97.2820927,23.6652009 97.2309659,23.5040323 97.0174361,23.5040323 C96.8255054,23.5040323 96.7415698,23.6560249 96.7268059,23.7687253 L97.2801789,23.7687253 Z M96.7246187,23.8856607 C96.7287198,24.1061206 96.8927631,24.1967044 97.0819598,24.1967044 C97.2172956,24.1967044 97.2995907,24.1764701 97.3706762,24.150589 L97.4026646,24.2670539 C97.3359536,24.2931703 97.2219435,24.3225806 97.0562597,24.3225806 C96.7352815,24.3225806 96.5436242,24.1411777 96.5436242,23.8708379 C96.5436242,23.6004982 96.7287198,23.3870968 97.0324734,23.3870968 C97.3723166,23.3870968 97.4630872,23.6447313 97.4630872,23.8098997 C97.4630872,23.8428393 97.4587128,23.8689557 97.4565255,23.8856607 L96.7246187,23.8856607 Z" id="Fill-46" fill="#666666"></path>
                                <polygon id="Fill-47" fill="#666666" points="98.3825503 23.9358842 97.4630872 24.3225806 97.4630872 24.1363769 98.1738468 23.8566248 98.1738468 23.8534991 97.4630872 23.573747 97.4630872 23.3870968 98.3825503 23.7742397"></polygon>
                                <path d="M177.446859,34.391025 C177.116288,34.391025 176.848826,33.683129 176.848826,32.8096035 C176.848826,31.936078 177.116288,31.228182 177.446859,31.228182 C177.776095,31.228182 178.043557,31.936078 178.043557,32.8096035 C178.043557,33.683129 177.776095,34.391025 177.446859,34.391025 M179.448316,33.8844126 C179.387545,30.4402263 178.611538,28.2254583 177.638524,28.0215816 L177.638524,27.2193643 C178.095647,27.1341186 178.001818,25.2580645 177.456543,25.2580645 C176.911935,25.2580645 176.817439,27.1341186 177.275897,27.2193643 L177.275897,28.0429741 C176.336942,28.3625645 175.595996,30.7695405 175.533555,33.8840885 C174.65437,34.2876281 173.778523,34.9553322 173.778523,35.7102268 C173.778523,36.0081006 174.169198,37.1597281 174.330811,37.4193548 C174.625653,36.9471 175.160911,36.1526618 175.836745,35.5676104 L175.836745,35.8382574 C175.836745,35.8881732 175.862122,35.9286892 175.89351,35.9286892 L179.086358,35.9286892 C179.118413,35.9286892 179.14379,35.8881732 179.14379,35.8382574 L179.14379,35.5676104 C179.819958,36.1526618 180.354214,36.9471 180.649057,37.4193548 C180.810669,37.1597281 181.134228,36.0139349 181.134228,35.7167094 C181.134228,34.9611665 180.326166,34.2876281 179.448316,33.8844126" id="Fill-48" fill="#4D4D4D"></path>
                                <polygon id="Fill-49" fill="#4D4D4D" points="175.763994 36.323529 178.253413 36.323529 178.375839 35.5483871 175.61745 35.5483871"></polygon>
                                <path d="M176.787371,39.3378896 C176.799922,39.1733871 176.809684,38.9981254 176.820003,38.8228638 C176.829207,38.6470359 176.855424,38.4714911 176.857656,38.3075549 C176.857656,38.1427693 176.840642,37.9893091 176.820561,37.8573674 C176.799364,37.7262751 176.77482,37.616418 176.75195,37.5399711 C176.730753,37.463241 176.712066,37.4193548 176.712066,37.4193548 L176.682223,37.4193548 C176.682223,37.4193548 176.663815,37.463241 176.642061,37.5399711 C176.618632,37.616418 176.595762,37.7262751 176.574286,37.8573674 C176.553089,37.9893091 176.536913,38.1427693 176.536913,38.3075549 C176.539423,38.4714911 176.565082,38.6470359 176.574844,38.8228638 C176.585164,38.9981254 176.594646,39.1733871 176.607197,39.3378896 C176.618075,39.502392 176.631462,39.6561353 176.642897,39.7875107 C176.663815,40.0508279 176.682223,40.2258065 176.682223,40.2258065 L176.712066,40.2258065 C176.712066,40.2258065 176.731311,40.0508279 176.751392,39.7875107 C176.763385,39.6561353 176.777052,39.502392 176.787371,39.3378896" id="Fill-50" fill="#4D4D4D"></path>
                                <path d="M177.600975,37.4193548 C177.600975,37.4193548 177.583947,37.4782084 177.561615,37.5801254 C177.550728,37.6315146 177.538725,37.6935261 177.52728,37.7647245 C177.515835,37.8359229 177.503273,37.9163082 177.493503,38.0041579 C177.472846,38.1795701 177.457492,38.3842655 177.456376,38.6036025 C177.457492,38.713271 177.464192,38.8263846 177.472846,38.9415078 C177.481499,39.056631 177.487082,39.1734768 177.493503,39.2908968 C177.50439,39.5243012 177.513881,39.7579927 177.526163,39.9776169 C177.537608,40.1963797 177.551287,40.4013622 177.561615,40.5767744 C177.583668,40.9273117 177.600975,41.1612903 177.600975,41.1612903 L177.631961,41.1612903 C177.631961,41.1612903 177.650664,40.9273117 177.671879,40.5767744 C177.682766,40.4013622 177.695886,40.1963797 177.707331,39.9776169 C177.719893,39.7579927 177.729663,39.5243012 177.739992,39.2908968 C177.747529,39.1734768 177.752554,39.056631 177.761207,38.9415078 C177.769582,38.8263846 177.775444,38.713271 177.777119,38.6036025 C177.777119,38.3842655 177.761207,38.1795701 177.739992,38.0041579 C177.73078,37.9163082 177.71766,37.8359229 177.707331,37.7647245 C177.694211,37.6935261 177.682766,37.6315146 177.671879,37.5801254 C177.650106,37.4782084 177.631961,37.4193548 177.631961,37.4193548 L177.600975,37.4193548 Z" id="Fill-51" fill="#4D4D4D"></path>
                                <path d="M179.50696,68.1857829 L179.416006,68.5681181 L179.203559,67.7956315 L179.111948,67.476476 L178.396131,65.0066032 L177.155273,67.6568966 L176.757634,68.5068924 L175.848744,67.4618209 C175.769938,67.4419551 175.691133,67.4191583 175.614297,67.3960358 L175.260001,69.285241 L174.498871,66.9381454 L173.723622,64.5483871 L173.282968,66.0008703 L172.85906,67.3904995 L172.85906,68.1678711 L173.501654,66.2236278 L173.733801,65.518229 L174.121262,66.7114798 L175.2403,70.1612903 L175.391015,70.1612903 L175.819848,67.86793 L176.832171,69.031545 L177.470824,67.666341 L178.332759,65.8266375 L178.82792,67.5386788 L178.924128,67.8728151 L179.437021,69.7356411 L179.732213,68.4906089 L182.053691,68.6671215 L182.053691,68.3694601 L179.50696,68.1857829 Z" id="Fill-52" fill="#4D4D4D"></path>
                                <path d="M175.648241,68.2903226 L175.61745,68.459036 C175.692824,68.4822056 175.769803,68.5047224 175.846781,68.524955 L175.648241,68.2903226 Z" id="Fill-53" fill="#4D4D4D"></path>
                                <path d="M181.945994,66.019775 L181.945994,68.7399771 L181.945994,69.0320214 L181.945994,70.4999198 L175.438934,70.4999198 L175.291739,70.4999198 L172.968682,70.4999198 L172.966116,70.4999198 L172.966116,68.5419756 L172.966116,67.7781183 L172.966116,65.8623973 L172.966116,63.7896187 L172.966116,63.7701064 C173.011975,63.7742647 173.057512,63.7765039 173.105295,63.7765039 L181.945994,63.7765039 L181.945994,66.019775 Z M182.775932,62.9496315 C182.628737,62.7829775 182.415159,62.6774194 182.176568,62.6774194 L172.735542,62.6774194 C172.498234,62.6774194 172.285939,62.7820179 172.140027,62.9464328 C172.015921,63.0865372 171.939597,63.2695047 171.939597,63.4719845 L171.939597,72.1728569 C171.939597,72.328955 171.985135,72.4735378 172.06242,72.5957293 C172.203843,72.8193207 172.452055,72.9677419 172.735542,72.9677419 L182.176568,72.9677419 C182.61623,72.9677419 182.973154,72.6114031 182.973154,72.1728569 L182.973154,72.1360715 L182.973154,63.4719845 C182.973154,63.2717439 182.897472,63.0894161 182.775932,62.9496315 Z" id="Fill-54" fill="#4D4D4D"></path>
                                <path d="M159.79919,53.5516899 C158.935504,54.2013947 157.709396,54.0210788 157.065227,53.1510228 C156.421372,52.2819124 156.600238,51.0449198 157.462673,50.3955301 C158.326046,49.7461405 159.553718,49.9270869 160.196635,50.795882 C160.840178,51.6668837 160.662876,52.901985 159.79919,53.5516899 Z M156.689984,50.706985 L155.98734,50.482851 L156.189972,50.4371415 C156.233125,50.4320977 156.264708,50.3999434 156.259392,50.3630606 L156.191535,49.7732509 C156.186532,49.7376291 156.148382,49.7120948 156.105542,49.7174538 L155.250925,49.733531 C155.21684,49.6329701 155.174938,49.5349312 155.124905,49.4381533 L155.655562,48.9498501 L155.636487,49.0110062 C155.619601,49.0504109 155.631797,49.0948594 155.665569,49.1087299 L156.206232,49.343582 C156.239066,49.3577676 156.279092,49.336962 156.297542,49.2975572 L156.711873,48.542563 C156.816003,48.5627382 156.920759,48.5756629 157.027703,48.5800763 L157.206882,49.4015857 C157.212823,49.444458 157.245344,49.4759818 157.280367,49.4715685 L157.864184,49.4031619 L157.871376,49.77199 C157.772562,49.8069814 157.67406,49.848908 157.578373,49.8984003 L157.015195,49.277382 C156.991117,49.2423907 156.946088,49.2319878 156.918257,49.2537392 L156.444512,49.6080664 C156.416369,49.6304482 156.414805,49.6761577 156.439509,49.7108339 L156.880733,50.4513272 C156.811,50.5323433 156.747208,50.6171422 156.689984,50.706985 Z M155.920109,51.9442929 L156.13306,51.4459021 C156.138063,51.4348688 156.13775,51.4228897 156.134936,51.4121717 L156.360082,51.537321 C156.339756,51.6422952 156.326936,51.7478998 156.320682,51.8550806 L155.920109,51.9442929 Z M155.376318,50.6184032 L155.777516,50.5291909 L155.56394,51.0282122 C155.560813,51.0392455 155.55925,51.0509093 155.562689,51.0625731 L155.337543,50.936478 C155.358182,50.8321343 155.37069,50.7262145 155.376318,50.6184032 Z M154.233702,52.0776384 C153.370641,52.7273433 152.144533,52.5473426 151.50099,51.6776018 C150.857134,50.8075458 151.035375,49.5711836 151.898123,48.9214787 C152.761496,48.272089 153.987292,48.452405 154.63146,49.3215153 C155.275003,50.1918866 155.096449,51.4282488 154.233702,52.0776384 Z M154.483864,48.0303017 L154.799694,48.4565031 C154.820333,48.4845592 154.865674,48.4870812 154.90101,48.4618621 L155.633986,48.0167465 C155.715601,48.0883055 155.800031,48.152614 155.889464,48.209672 L155.727484,48.7222485 L155.411967,48.2954166 C155.39039,48.2673605 155.345674,48.2645233 155.311902,48.2897424 L154.577988,48.7358037 C154.496998,48.6648752 154.412255,48.5989905 154.323135,48.542563 L154.483864,48.0303017 Z M155.977021,44.6736508 C156.841332,44.0242612 158.066503,44.2048924 158.710045,45.0749484 C159.355152,45.944374 159.176911,47.1816819 158.312912,47.8307563 C157.449227,48.478885 156.223744,48.29983 155.580201,47.4297739 C154.936345,46.5603484 155.114273,45.3227252 155.977021,44.6736508 Z M161.651017,52.8288498 L160.901781,52.4102142 C160.923045,52.3058705 160.93524,52.2005811 160.939618,52.0930851 L161.754835,51.9118234 C161.7983,51.9067796 161.828945,51.8733644 161.825193,51.838373 L161.756398,51.2482481 C161.751395,51.212311 161.713245,51.1874072 161.670405,51.1927662 L160.815162,51.2078976 C160.780765,51.1079673 160.739175,51.0096131 160.690081,50.9125199 L161.305793,50.3450921 C161.341128,50.3195578 161.351135,50.2751093 161.329558,50.2461075 L160.976829,49.7694681 C160.955253,49.7414119 160.911162,49.73889 160.875201,49.764109 L160.143476,50.2095399 C160.061235,50.1386114 159.975242,50.0739877 159.887998,50.0162992 L160.140036,49.2152802 C160.156609,49.1755603 160.143789,49.1317422 160.110017,49.1175565 L159.569353,48.8827045 C159.537145,48.8682035 159.496806,48.8896397 159.479295,48.9293596 L159.064338,49.6837234 C158.961146,49.663233 158.854514,49.6518844 158.74882,49.6458949 L158.569954,48.8243855 C158.564638,48.7818284 158.531492,48.7503046 158.495844,48.7544027 L157.912965,48.8234398 L157.905148,48.4546117 C158.005838,48.420566 158.102776,48.376748 158.197838,48.3288318 L158.761016,48.9489044 C158.78697,48.9838957 158.830436,48.9942986 158.859517,48.9731777 L159.332637,48.6169591 C159.361093,48.5958382 159.362657,48.5501287 159.336702,48.5151373 L158.895165,47.7762202 C158.965836,47.6936279 159.030253,47.6091442 159.087791,47.5199319 L159.882056,47.7727525 C159.921457,47.7910363 159.965235,47.7777964 159.979307,47.7443812 L160.211645,47.1983895 C160.22603,47.1656048 160.205078,47.1246239 160.165365,47.1079163 L159.416441,46.6886501 C159.436142,46.5849369 159.449901,46.4783866 159.453966,46.3718363 L160.26887,46.1905746 C160.312023,46.1855308 160.343293,46.1524308 160.339853,46.116809 L160.269495,45.5260535 C160.266368,45.4904317 160.228531,45.4655279 160.185065,45.4715174 L159.330135,45.4866488 C159.295738,45.3857728 159.25321,45.2874186 159.203491,45.1915864 L159.820141,44.6241585 C159.856102,44.5979938 159.864858,44.55323 159.844532,44.5248586 L159.49149,44.0485345 C159.470226,44.0198479 159.424884,44.017326 159.390174,44.042545 L158.657511,44.4879758 C158.575583,44.4167321 158.490215,44.3530541 158.402971,44.2950504 L158.653446,43.4937162 C158.671896,43.4543115 158.657824,43.4095477 158.625303,43.396623 L158.083388,43.1611404 C158.050555,43.1466395 158.010529,43.1680756 157.993643,43.2077956 L157.578999,43.9631051 C157.474243,43.9426146 157.369175,43.9296899 157.264107,43.9249613 L157.083052,43.1031367 C157.079924,43.0599491 157.04584,43.0290558 157.010504,43.0325234 L156.424812,43.1028214 C156.389789,43.10755 156.365085,43.1453785 156.370401,43.1885661 L156.384473,44.0501107 C156.285346,44.0851021 156.188095,44.1282896 156.092721,44.1768362 L155.530794,43.555818 C155.504839,43.5214571 155.461686,43.5110542 155.431667,43.5318599 L154.95886,43.8880785 C154.931029,43.9088842 154.929153,43.9545937 154.953544,43.9899003 L155.395081,44.7297631 C155.325973,44.8110945 155.261556,44.8965239 155.203394,44.9847904 L154.409128,44.7313393 C154.370666,44.7146317 154.325949,44.7266108 154.31219,44.7603412 L154.078914,45.3063329 C154.065155,45.3391176 154.086106,45.3797833 154.124881,45.398067 L154.874117,45.8160722 C154.854104,45.9207311 154.841909,46.0263358 154.835968,46.134147 L154.022627,46.3150935 C153.978536,46.319822 153.948516,46.352922 153.951644,46.3885439 L154.021064,46.978984 C154.025129,47.0142907 154.062966,47.0391944 154.106119,47.0341506 L154.961049,47.0180735 C154.996384,47.1189496 155.037036,47.2166733 155.087694,47.3137665 L154.555473,47.8030154 L154.574548,47.7418593 C154.592685,47.7008784 154.578613,47.6573756 154.546092,47.6438203 L154.004803,47.4089683 C153.971344,47.3938368 153.931943,47.415273 153.915683,47.4556234 L153.499475,48.2106177 C153.395345,48.1894968 153.290589,48.1768873 153.18427,48.171213 L153.005092,47.3509645 C153.000714,47.307777 152.966629,47.2762532 152.932544,47.2797208 L152.345288,47.3493883 C152.310265,47.3541169 152.285562,47.3919454 152.28994,47.435133 L152.3062,48.2973081 C152.206448,48.3326147 152.109197,48.3748565 152.01351,48.4240336 L151.452521,47.8030154 C151.425316,47.7686545 151.381225,47.7576211 151.352143,47.7790573 L150.8809,48.1343302 C150.85088,48.1557663 150.84963,48.2011606 150.874959,48.2370977 L151.315557,48.9756996 C151.245512,49.0579766 151.182033,49.1437213 151.124496,49.2319878 L150.331168,48.9791672 C150.291455,48.9615139 150.246426,48.9750691 150.232354,49.0072233 L150.000328,49.5541607 C149.985631,49.5872607 150.006895,49.6272959 150.04567,49.6449492 L150.794594,50.0635848 C150.774894,50.1688742 150.762698,50.2741636 150.756444,50.3810292 L149.942478,50.5619756 C149.899951,50.5663889 149.867742,50.6007499 149.873058,50.635426 L149.942478,51.2261814 C149.945605,51.2621185 149.98313,51.2863918 150.026595,51.2816633 L150.882463,51.2665319 C150.916861,51.366147 150.958763,51.4648164 151.007545,51.5615943 L150.392458,52.1283917 C150.357435,52.1536107 150.347116,52.1986897 150.368067,52.2280068 L150.720483,52.7037005 C150.74206,52.7323871 150.786776,52.734909 150.821799,52.7093748 L151.555088,52.2636287 C151.635452,52.3348724 151.721758,52.4001266 151.809941,52.4571846 L151.557902,53.2578883 C151.541016,53.2979235 151.553837,53.3417416 151.587609,53.3559272 L152.127334,53.5904641 C152.160793,53.6046498 152.200819,53.5835289 152.218018,53.5441241 L152.63235,52.7894451 C152.737105,52.8096203 152.843424,52.8225451 152.949118,52.8272736 L153.127358,53.6490983 C153.133925,53.6919706 153.165821,53.7234944 153.200844,53.7187658 L153.786536,53.650044 C153.82281,53.6456307 153.846888,53.6071717 153.841572,53.5639841 L153.825312,52.7014938 C153.926002,52.6665024 154.023565,52.6242606 154.11894,52.5750835 L154.682743,53.196417 C154.707447,53.2298322 154.751225,53.2411807 154.780619,53.2197446 L155.252488,52.8644717 C155.281882,52.8424051 155.28282,52.7970108 155.258429,52.7632804 L154.816893,52.0234175 C154.887251,51.941771 154.949792,51.8560263 155.009205,51.7668141 L155.710598,51.9903176 L155.508279,52.0363423 C155.464188,52.0410709 155.432918,52.0735403 155.437296,52.1101079 L155.50609,52.6996024 C155.509843,52.7358547 155.548618,52.7604433 155.590833,52.7563452 L156.446701,52.7405833 C156.480786,52.8408289 156.522688,52.9394983 156.571782,53.0347 L155.957321,53.6021279 C155.922298,53.6282926 155.911353,53.6727411 155.932617,53.701743 L156.285346,54.1771214 C156.30661,54.2061233 156.351014,54.2086452 156.386349,54.1831109 L157.11995,53.7383106 C157.201253,53.8095543 157.285683,53.8738628 157.37324,53.931236 L157.121827,54.7316245 C157.104628,54.7716597 157.117449,54.8164235 157.151533,54.8302939 L157.691884,55.0648308 C157.725656,55.0802774 157.765057,55.058526 157.782568,55.0188061 L158.197838,54.264127 C158.302593,54.2836718 158.406723,54.2962813 158.513355,54.3022708 L158.692534,55.1231497 C158.69785,55.1663373 158.730371,55.1975458 158.765394,55.1931325 L159.351086,55.123465 C159.387673,55.1199974 159.411438,55.0805926 159.40706,55.0389813 L159.391738,54.1761757 C159.49149,54.1405539 159.587803,54.0986272 159.684741,54.0497654 L160.246981,54.6698379 C160.271684,54.7045141 160.315775,54.7161779 160.344544,54.6944265 L160.817351,54.3391536 C160.84612,54.3174022 160.847996,54.2713775 160.822667,54.2367014 L160.380818,53.4971537 C160.452739,53.4151919 160.516218,53.3297625 160.573755,53.2411807 L161.367396,53.4952623 C161.407109,53.510709 161.4512,53.4990452 161.464333,53.4662604 L161.69761,52.9196383 C161.711682,52.887484 161.691356,52.8458727 161.651017,52.8288498 Z" id="Fill-55" fill="#4D4D4D"></path>
                                <path d="M198.025583,47.7859289 L196.068461,47.8199285 C196.043626,47.7948414 194.536291,46.8870854 192.851662,46.0087076 C193.428727,45.7710406 193.831603,45.2220957 193.831603,44.5833656 C193.831603,43.726774 193.105874,43.0322581 192.210786,43.0322581 C191.316043,43.0322581 190.588935,43.726774 190.588935,44.5833656 C190.588935,45.2983473 191.094944,45.900107 191.782731,46.0796776 C190.711384,46.399868 190.328859,47.438671 190.328859,48.6230451 L190.328859,50.8049605 C190.328859,51.9348692 190.982153,52.8561591 192.197679,52.9050129 C192.212511,52.9063332 192.227343,52.9079837 192.242865,52.9079837 L195.571765,52.9079837 L195.571765,55.3826917 C195.571765,55.794978 195.920487,56.1290323 196.351302,56.1290323 C196.782462,56.1290323 197.131529,55.794978 197.131529,55.3826917 L197.131529,51.9173743 C197.131529,51.5054181 196.782462,51.1713639 196.351302,51.1713639 L194.128241,51.1713639 C194.142383,51.0515401 194.150316,48.4702119 194.150316,48.4702119 C194.150316,48.4702119 195.625574,48.9118765 195.670759,48.913527 C195.704907,48.9188085 198.147687,48.8244018 198.147687,48.8244018 C198.431218,48.7771985 198.604027,48.5933367 198.604027,48.2840394 C198.604027,48.0044506 198.333258,47.7961618 198.025583,47.7859289" id="Fill-56" fill="#4D4D4D"></path>
                                <path d="M193.731335,51.9813612 L190.157562,51.9813612 L189.773565,46.9572395 C189.764691,46.846878 189.676877,46.7652774 189.576212,46.7749759 C189.475852,46.7843399 189.401501,46.8809897 189.410068,46.9903479 L189.791617,51.9957416 C189.685444,52.0318599 189.608339,52.1288442 189.608339,52.2428844 C189.608339,52.3880264 189.732258,52.504742 189.883409,52.504742 L191.04611,52.504742 C191.090782,52.8552232 191.3683,53.1418286 191.736386,53.2354686 L191.736386,54.5103106 L190.391326,54.5103106 L190.391326,54.8845363 L190.39255,54.8845363 C190.39255,54.8908905 190.391326,54.8979135 190.391326,54.9042676 C190.391326,55.0637901 190.511267,55.1935484 190.657829,55.1935484 L190.659359,55.1935484 C190.806226,55.1935484 190.925862,55.0637901 190.925862,54.9042676 C190.925862,54.8979135 190.924944,54.8908905 190.924638,54.8845363 L193.064312,54.8845363 C193.0637,54.8908905 193.063088,54.8979135 193.063088,54.9042676 C193.063088,55.0637901 193.181806,55.1935484 193.329897,55.1935484 L193.330509,55.1935484 C193.477683,55.1935484 193.596707,55.0637901 193.596707,54.9042676 C193.596707,54.8979135 193.596707,54.8908905 193.595789,54.8845363 L193.596707,54.8845363 L193.596707,54.5103106 L192.252258,54.5103106 L192.252258,53.2354686 C192.620344,53.1418286 192.897863,52.8552232 192.942229,52.504742 L193.731335,52.504742 C193.884016,52.504742 194.006711,52.3880264 194.006711,52.2428844 C194.006711,52.0977423 193.884016,51.9813612 193.731335,51.9813612" id="Fill-57" fill="#4D4D4D"></path>
                                <polygon id="Fill-58" fill="#4D4D4D" points="201.362416 44.9032258 201.172365 44.9032258 200.704198 47.3637229 197.684564 47.3637229 197.684564 47.6549708 197.757195 47.7096774 200.94963 47.7096774"></polygon>
                                <path d="M201.362416,48.1690986 L201.362416,47.7096774 L195.845638,47.7096774 L195.845638,48.1690986 L198.292653,48.1690986 L198.292653,53.2538788 C197.603948,53.3510581 197.086277,53.7631355 197.086277,54.2580645 L200.12092,54.2580645 C200.12092,53.7631355 199.60382,53.3510581 198.915686,53.2538788 L198.915686,48.1690986 L201.362416,48.1690986 Z" id="Fill-59" fill="#4D4D4D"></path>
                                <path d="M66.0051745,95.6381732 C66.1880192,95.6763141 66.4539243,95.685609 66.7368317,95.685609 C68.2829278,95.685609 69.1230095,94.6917003 69.1230095,92.951639 C69.1310926,91.431449 68.3827119,90.4657454 66.8530607,90.4657454 C66.4790097,90.4657454 66.1963809,90.5042069 66.0051745,90.5519633 L66.0051745,95.6381732 Z M65.2818792,89.9404258 C65.7222671,89.8635028 66.246273,89.8064516 66.8198922,89.8064516 C67.8592634,89.8064516 68.5990037,90.0833743 69.0892836,90.609335 C69.5884829,91.1352957 69.8791946,91.8808073 69.8791946,92.9227928 C69.8791946,93.9743938 69.5965659,94.8349693 69.0728388,95.4279171 C68.5491116,96.0301597 67.6845019,96.3548387 66.5955173,96.3548387 C66.0798733,96.3548387 65.6475684,96.3259926 65.2818792,96.2785568 L65.2818792,89.9404258 Z" id="Fill-60" fill="#000000"></path>
                                <path d="M73.7444627,93.5854612 C73.7531259,93.0669209 73.5463623,92.2608548 72.6936065,92.2608548 C71.9269059,92.2608548 71.5910593,93.020656 71.5307051,93.5854612 L73.7444627,93.5854612 Z M71.5220418,94.1688966 C71.5393684,95.2711827 72.1940238,95.7248278 72.9520611,95.7248278 C73.4946713,95.7248278 73.8218547,95.6229828 74.1062991,95.4931925 L74.235382,96.0766279 C73.9685529,96.2064182 73.5117091,96.3548387 72.8486792,96.3548387 C71.5653583,96.3548387 70.7986577,95.447238 70.7986577,94.0949968 C70.7986577,92.7424451 71.5393684,91.6774194 72.7539607,91.6774194 C74.1149624,91.6774194 74.4765101,92.9650759 74.4765101,93.7891512 C74.4765101,93.9558914 74.4594723,94.0856817 74.450809,94.1688966 L71.5220418,94.1688966 Z" id="Fill-61" fill="#000000"></path>
                                <path d="M75.2314107,91.6774194 L75.9943881,94.3061187 C76.1228073,94.7315448 76.2272658,95.1177656 76.3074942,95.5049585 L76.331455,95.5049585 C76.4200293,95.1177656 76.5322952,94.7315448 76.6607145,94.3061187 L77.4156151,91.6774194 L78.1543624,91.6774194 L76.6286769,96.3548387 L75.9542739,96.3548387 L74.4765101,91.6774194 L75.2314107,91.6774194 Z" id="Fill-62" fill="#000000"></path>
                                <path d="M82.9390935,93.5854612 C82.9477568,93.0669209 82.7409931,92.2608548 81.8882373,92.2608548 C81.1215368,92.2608548 80.7856902,93.020656 80.725336,93.5854612 L82.9390935,93.5854612 Z M80.7166727,94.1688966 C80.7339993,95.2711827 81.3886547,95.7248278 82.1466919,95.7248278 C82.6893022,95.7248278 83.0164855,95.6229828 83.30093,95.4931925 L83.4300129,96.0766279 C83.1631838,96.2064182 82.70634,96.3548387 82.0433101,96.3548387 C80.7599891,96.3548387 79.9932886,95.447238 79.9932886,94.0949968 C79.9932886,92.7424451 80.7339993,91.6774194 81.9485915,91.6774194 C83.3095933,91.6774194 83.6711409,92.9650759 83.6711409,93.7891512 C83.6711409,93.9558914 83.6541031,94.0856817 83.6454399,94.1688966 L80.7166727,94.1688966 Z" id="Fill-63" fill="#000000"></path>
                                <polygon id="Fill-64" fill="#000000" points="84.590604 96.3548387 85.3146812 96.3548387 85.3146812 89.8064516 84.590604 89.8064516"></polygon>
                                <path d="M87.2946427,94.0251157 C87.2946427,95.0049753 87.8873507,95.7443633 88.7234632,95.7443633 C89.5396993,95.7443633 90.1519578,95.013962 90.1519578,94.0062127 C90.1519578,93.2488513 89.7534521,92.287275 88.7426879,92.287275 C87.7319237,92.287275 87.2946427,93.1747885 87.2946427,94.0251157 M91.0268456,93.9792526 C91.0268456,95.6331142 89.8215533,96.3548387 88.6843621,96.3548387 C87.4112944,96.3548387 86.4295302,95.4673252 86.4295302,94.0530055 C86.4295302,92.5553264 87.459845,91.6774194 88.7619126,91.6774194 C90.1128567,91.6774194 91.0268456,92.6111059 91.0268456,93.9792526" id="Fill-65" fill="#000000"></path>
                                <path d="M93.5903469,94.4938277 C93.5903469,94.6167486 93.6060927,94.7298485 93.6221054,94.8337609 C93.7494065,95.4103485 94.1713413,95.80699 94.672806,95.80699 C95.4131269,95.80699 95.8430681,95.08879 95.8430681,94.0401611 C95.8430681,93.1233235 95.437146,92.338911 94.6968251,92.338911 C94.2191126,92.338911 93.7734255,92.7453735 93.6381181,93.3688484 C93.6140991,93.4727609 93.5903469,93.5956818 93.5903469,93.7090984 L93.5903469,94.4938277 Z M92.8977972,93.2744401 C92.8977972,92.6886652 92.8817845,92.2163069 92.8657718,91.7813318 L93.4948044,91.7813318 L93.5265629,92.5657443 L93.5423088,92.5657443 C93.8292031,92.0081652 94.2828965,91.6774194 94.9119291,91.6774194 C95.8430681,91.6774194 96.5436242,92.6129485 96.5436242,94.0021443 C96.5436242,95.646686 95.6997544,96.4592943 94.7923676,96.4592943 C94.2828965,96.4592943 93.8372095,96.1944442 93.6060927,95.7410943 L93.5903469,95.7410943 L93.5903469,98.2258065 L92.8977972,98.2258065 L92.8977972,93.2744401 Z" id="Fill-66" fill="#000000"></path>
                                <path d="M97.5056653,93.0192111 C97.5056653,92.5464948 97.4950207,92.1593238 97.4630872,91.7813409 L98.2781012,91.7813409 L98.3206792,92.5186134 L98.3522579,92.5186134 C98.6378853,92.0836005 99.1144041,91.6774194 99.9609967,91.6774194 C100.659631,91.6774194 101.188662,92.0554022 101.410778,92.5940199 L101.432067,92.5940199 C101.591025,92.3389686 101.792206,92.1406306 102.003322,91.9983721 C102.310593,91.7905291 102.649088,91.6774194 103.135896,91.6774194 C103.813241,91.6774194 104.818792,92.0747291 104.818792,93.6617503 L104.818792,96.3548387 L103.908687,96.3548387 L103.908687,93.7656718 C103.908687,92.8867745 103.548903,92.3576618 102.797401,92.3576618 C102.268015,92.3576618 101.855363,92.7074465 101.69676,93.1136276 C101.654182,93.227371 101.622603,93.3785007 101.622603,93.5296305 L101.622603,96.3548387 L100.712498,96.3548387 L100.712498,93.614542 C100.712498,92.8867745 100.352714,92.3576618 99.6434358,92.3576618 C99.0615364,92.3576618 98.6378853,92.7736648 98.4899267,93.1893509 C98.437059,93.3122824 98.41577,93.4535904 98.41577,93.595532 L98.41577,96.3548387 L97.5056653,96.3548387 L97.5056653,93.0192111 Z" id="Fill-67" fill="#000000"></path>
                                <path d="M108.68406,93.5854612 C108.692723,93.0669209 108.48596,92.2608548 107.633204,92.2608548 C106.866792,92.2608548 106.530657,93.020656 106.470302,93.5854612 L108.68406,93.5854612 Z M106.461639,94.1688966 C106.478966,95.2711827 107.133621,95.7248278 107.891658,95.7248278 C108.434269,95.7248278 108.761741,95.6229828 109.045896,95.4931925 L109.174979,96.0766279 C108.90815,96.2064182 108.451595,96.3548387 107.788277,96.3548387 C106.504956,96.3548387 105.738255,95.447238 105.738255,94.0949968 C105.738255,92.7424451 106.478966,91.6774194 107.693558,91.6774194 C109.05456,91.6774194 109.416107,92.9650759 109.416107,93.7891512 C109.416107,93.9558914 109.39907,94.0856817 109.390406,94.1688966 L106.461639,94.1688966 Z" id="Fill-68" fill="#000000"></path>
                                <path d="M110.370843,93.0192111 C110.370843,92.5464948 110.362247,92.1593238 110.33557,91.7813409 L111.025316,91.7813409 L111.069481,92.5373066 L111.087266,92.5373066 C111.299199,92.1022937 111.794499,91.6774194 112.501733,91.6774194 C113.09396,91.6774194 114.013423,92.0554022 114.013423,93.624047 L114.013423,96.3548387 L113.235644,96.3548387 L113.235644,93.7184636 C113.235644,92.9818247 112.978953,92.3671668 112.245339,92.3671668 C111.73255,92.3671668 111.334471,92.7546547 111.201976,93.2178659 C111.166703,93.3217875 111.148919,93.4630954 111.148919,93.605037 L111.148919,96.3548387 L110.370843,96.3548387 L110.370843,93.0192111 Z" id="Fill-69" fill="#000000"></path>
                                <path d="M116.480291,89.8064516 L116.480291,91.0389003 L117.691275,91.0389003 L117.691275,91.6331273 L116.480291,91.6331273 L116.480291,93.9473129 C116.480291,94.4791148 116.643667,94.7808358 117.114462,94.7808358 C117.335843,94.7808358 117.499219,94.7543795 117.604914,94.7276259 L117.643261,95.3126377 C117.479885,95.3747655 117.22048,95.4193548 116.893405,95.4193548 C116.499625,95.4193548 116.182217,95.3037199 115.980494,95.0911775 C115.740101,94.8607993 115.653741,94.4791148 115.653741,93.9740664 L115.653741,91.6331273 L114.932886,91.6331273 L114.932886,91.0389003 L115.653741,91.0389003 L115.653741,90.0106707 L116.480291,89.8064516 Z" id="Fill-70" fill="#000000"></path>
                                <path d="M154.383017,100.602209 C154.383017,101.956928 155.081473,103.17097 156.308725,103.17097 C157.544385,103.17097 158.243441,101.975537 158.243441,100.536286 C158.243441,99.2755617 157.616753,97.9586927 156.317133,97.9586927 C155.027422,97.9586927 154.383017,99.2099548 154.383017,100.602209 M159.067114,100.498752 C159.067114,102.681442 157.804429,103.83871 156.264283,103.83871 C154.669786,103.83871 153.550336,102.54045 153.550336,100.621134 C153.550336,98.6078224 154.740953,97.2903226 156.353467,97.2903226 C158.001414,97.2903226 159.067114,98.6169695 159.067114,100.498752" id="Fill-71" fill="#000000"></path>
                                <path d="M161.630882,101.041898 C161.630882,101.164819 161.646361,101.278236 161.662374,101.382148 C161.789942,101.958736 162.211343,102.355377 162.713074,102.355377 C163.453395,102.355377 163.88307,101.637494 163.88307,100.588231 C163.88307,99.6720274 163.477148,98.8872981 162.737094,98.8872981 C162.259114,98.8872981 161.813961,99.2937606 161.678653,99.9172355 C161.654634,100.021148 161.630882,100.144069 161.630882,100.257169 L161.630882,101.041898 Z M160.937532,99.8228272 C160.937532,99.2370523 160.92232,98.764694 160.90604,98.3297189 L161.535073,98.3297189 L161.566831,99.1141314 L161.582844,99.1141314 C161.869472,98.5565523 162.323165,98.2258065 162.952198,98.2258065 C163.88307,98.2258065 164.583893,99.1613356 164.583893,100.550531 C164.583893,102.194756 163.739756,103.007365 162.832636,103.007365 C162.323165,103.007365 161.877211,102.742831 161.646361,102.289481 L161.630882,102.289481 L161.630882,104.774194 L160.937532,104.774194 L160.937532,99.8228272 Z" id="Fill-72" fill="#000000"></path>
                                <path d="M168.449392,100.133848 C168.457767,99.615308 168.250987,98.8092419 167.398453,98.8092419 C166.631693,98.8092419 166.29582,99.5690431 166.235172,100.133848 L168.449392,100.133848 Z M166.226797,100.717284 C166.244125,101.819259 166.898543,102.273215 167.656639,102.273215 C168.199581,102.273215 168.526501,102.17137 168.811257,102.04158 L168.939772,102.625015 C168.673211,102.754805 168.216331,102.903226 167.552961,102.903226 C166.270116,102.903226 165.503356,101.995315 165.503356,100.643384 C165.503356,99.2911427 166.244125,98.2258065 167.458523,98.2258065 C168.819343,98.2258065 169.181208,99.513463 169.181208,100.337228 C169.181208,100.504279 169.164458,100.633758 169.155216,100.717284 L166.226797,100.717284 Z" id="Fill-73" fill="#000000"></path>
                                <path d="M170.130859,99.7565406 C170.130859,99.2179959 170.123502,98.7548474 170.100671,98.3297139 L170.683374,98.3297139 L170.706205,99.2271829 L170.736139,99.2271829 C170.902807,98.6135587 171.303368,98.2258065 171.750352,98.2258065 C171.825949,98.2258065 171.878714,98.2353102 171.939597,98.2543176 L171.939597,99.0383754 C171.871104,99.0193679 171.803117,99.010181 171.712046,99.010181 C171.243246,99.010181 170.910164,99.4540052 170.819093,100.077767 C170.804379,100.191178 170.789159,100.323597 170.789159,100.465202 L170.789159,102.903226 L170.130859,102.903226 L170.130859,99.7565406 Z" id="Fill-74" fill="#000000"></path>
                                <path d="M176.570381,100.518337 C175.655631,100.499741 174.616912,100.656564 174.616912,101.52591 C174.616912,102.052786 174.979233,102.302587 175.407693,102.302587 C176.008367,102.302587 176.38922,101.932534 176.523094,101.553803 C176.55153,101.470123 176.570381,101.377765 176.570381,101.294704 L176.570381,100.518337 Z M176.69435,102.80157 L176.627573,102.237812 L176.599137,102.237812 C176.341933,102.58927 175.845738,102.903226 175.18883,102.903226 C174.25459,102.903226 173.778523,102.265396 173.778523,101.618268 C173.778523,100.536933 174.768997,99.9449719 176.55153,99.9545797 L176.55153,99.8622214 C176.55153,99.4921685 176.446412,98.826755 175.502906,98.826755 C175.074127,98.826755 174.625858,98.9559946 174.302196,99.1593068 L174.112089,98.623133 C174.492943,98.3829395 175.045691,98.2258065 175.626875,98.2258065 C177.037182,98.2258065 177.380653,99.1593068 177.380653,100.056236 L177.380653,101.729222 C177.380653,102.117561 177.399503,102.496601 177.456376,102.80157 L176.69435,102.80157 Z" id="Fill-75" fill="#000000"></path>
                                <path d="M179.923527,97.2903226 L179.923527,98.5227713 L181.134228,98.5227713 L181.134228,99.1172955 L179.923527,99.1172955 L179.923527,101.431184 C179.923527,101.962986 180.086865,102.264707 180.55755,102.264707 C180.778234,102.264707 180.941895,102.23825 181.047243,102.211497 L181.085581,102.796509 C180.922565,102.858339 180.663543,102.903226 180.336222,102.903226 C179.942534,102.903226 179.625523,102.787591 179.423202,102.574751 C179.18351,102.344373 179.09717,101.962986 179.09717,101.457937 L179.09717,99.1172955 L178.375839,99.1172955 L178.375839,98.5227713 L179.09717,98.5227713 L179.09717,97.4945417 L179.923527,97.2903226 Z" id="Fill-76" fill="#000000"></path>
                                <path d="M181.225255,102.903226 L181.948781,102.903226 L181.948781,98.8785172 L181.225255,98.8785172 L181.225255,102.903226 Z M182.030981,97.7477962 C182.039807,97.9973019 181.858581,98.1969065 181.570605,98.1969065 C181.315454,98.1969065 181.134228,97.9973019 181.134228,97.7477962 C181.134228,97.4899272 181.323178,97.2903226 181.586604,97.2903226 C181.858581,97.2903226 182.030981,97.4899272 182.030981,97.7477962 Z" id="Fill-77" fill="#000000"></path>
                                <path d="M183.838267,100.573658 C183.838267,101.553583 184.430975,102.29302 185.267087,102.29302 C186.083323,102.29302 186.695256,101.56288 186.695256,100.554754 C186.695256,99.7970326 186.297076,98.8360124 185.285986,98.8360124 C184.275874,98.8360124 183.838267,99.7232748 183.838267,100.573658 M187.57047,100.527792 C187.57047,102.181763 186.365177,102.903226 185.22766,102.903226 C183.954267,102.903226 182.973154,102.015653 182.973154,100.60155 C182.973154,99.1037717 184.003469,98.2258065 185.305863,98.2258065 C186.656155,98.2258065 187.57047,99.1595548 187.57047,100.527792" id="Fill-78" fill="#000000"></path>
                                <path d="M189.444669,99.5675073 C189.444669,99.0948231 189.436073,98.7076782 189.409396,98.3297209 L190.098845,98.3297209 L190.14301,99.0856355 L190.160498,99.0856355 C190.373024,98.650652 190.867732,98.2258065 191.574966,98.2258065 C192.167489,98.2258065 193.087248,98.6037637 193.087248,100.172302 L193.087248,102.903226 L192.308876,102.903226 L192.308876,100.266712 C192.308876,99.5298066 192.052482,98.9155072 191.318571,98.9155072 C190.806079,98.9155072 190.408297,99.3029689 190.275505,99.7661487 C190.240233,99.8700632 190.222152,100.011678 190.222152,100.153294 L190.222152,102.903226 L189.444669,102.903226 L189.444669,99.5675073 Z" id="Fill-79" fill="#000000"></path>
                                <path d="M194.198092,101.976933 C194.424189,102.13468 194.824747,102.30112 195.207508,102.30112 C195.764145,102.30112 196.025835,102.004881 196.025835,101.634115 C196.025835,101.245339 195.808198,101.03201 195.242516,100.809675 C194.485746,100.522751 194.12895,100.078391 194.12895,99.5408746 C194.12895,98.8185963 194.676835,98.2258065 195.581809,98.2258065 C196.008039,98.2258065 196.382631,98.3556054 196.617481,98.5037252 L196.425809,99.0965151 C196.260393,98.985037 195.955818,98.8372277 195.564304,98.8372277 C195.112109,98.8372277 194.859755,99.114836 194.859755,99.448028 C194.859755,99.8187933 195.112109,99.9855446 195.660578,100.20819 C196.391383,100.50443 196.765101,100.893516 196.765101,101.560211 C196.765101,102.347388 196.191251,102.903226 195.190295,102.903226 C194.728765,102.903226 194.302534,102.782743 194.006711,102.59767 L194.198092,101.976933 Z" id="Fill-80" fill="#000000"></path>
                            </g>
                        </g>
                    </g>
                </g>
            </g>
        </g>
    </g>
</svg>