<svg xmlns="http://www.w3.org/2000/svg" width="200" height="100" viewBox="0 0 200 100">
    <g fill="none" fill-rule="evenodd" stroke="#FFF" stroke-width="2.4">
        <path d="M123.188 18.636L100.43 38.928 88.207 49.761l-21.55 19.322c-5.147 5.174-11.982 8.004-19.3 8.004-15.038 0-27.26-12.208-27.26-27.326 0-15.117 12.222-27.325 27.26-27.325 7.318 0 14.153 2.83 19.621 8.327l9.087 8.084 12.142-10.833-10.132-8.973A43.065 43.065 0 0 0 47.357 6.267c-23.964 0-43.424 19.565-43.424 43.494 0 23.93 19.46 43.495 43.424 43.495 11.58 0 22.516-4.528 30.316-12.37l22.757-20.21 12.223-10.915 21.552-19.321c5.146-5.174 11.981-8.004 19.299-8.004 15.038 0 27.26 12.208 27.26 27.325 0 15.118-12.222 27.326-27.26 27.326-7.237 0-14.153-2.83-19.621-8.327l-9.167-8.165-12.143 10.833 10.213 9.054a43.188 43.188 0 0 0 30.718 12.693c23.964 0 43.424-19.484 43.424-43.494 0-24.013-19.46-43.414-43.424-43.414-11.58 0-22.516 4.528-30.316 12.37z"/>
        <path d="M57.9 58.251a.744.744 0 0 0-.149-.43 41.495 41.495 0 0 1-1.91-2.483c.298-.589.526-1.135.68-1.64l3.286-.516c.128-.015.242-.09.34-.228a.713.713 0 0 0 .148-.42v-3.993a.659.659 0 0 0-.148-.42.607.607 0 0 0-.36-.226l-3.225-.498a14.694 14.694 0 0 0-.72-1.766c.212-.318.531-.75.955-1.297.425-.544.722-.935.891-1.162a.746.746 0 0 0 .149-.412c0-.388-1.02-1.538-3.054-3.451a.7.7 0 0 0-.445-.175.611.611 0 0 0-.424.154l-2.503 1.92a9.066 9.066 0 0 0-1.59-.67l-.486-3.3a.567.567 0 0 0-.214-.38.648.648 0 0 0-.423-.16h-3.943c-.326 0-.54.172-.637.516-.169.662-.332 1.77-.488 3.325-.607.2-1.152.43-1.63.69l-2.441-1.941a.751.751 0 0 0-.444-.154c-.269 0-.828.426-1.675 1.274-.849.848-1.429 1.49-1.74 1.92a.637.637 0 0 0-.147.432c0 .131.047.272.147.43a41.495 41.495 0 0 1 1.909 2.484 10.535 10.535 0 0 0-.678 1.639l-3.287.519c-.126.012-.24.088-.34.226a.713.713 0 0 0-.149.42v3.99c0 .159.051.298.149.42.1.125.22.193.36.207l3.224.517c.17.547.418 1.137.743 1.77-.228.317-.56.755-.997 1.317-.44.559-.729.94-.87 1.143a.72.72 0 0 0-.148.41c0 .39 1.018 1.537 3.053 3.453.14.114.29.17.446.17.183 0 .324-.05.423-.151l2.502-1.92c.58.304 1.11.525 1.59.67l.488 3.3c.014.146.086.27.212.378.128.11.268.162.425.162h3.943c.325 0 .537-.173.637-.517.169-.677.332-1.793.486-3.345a9.62 9.62 0 0 0 1.633-.667l2.438 1.939a.75.75 0 0 0 .446.152c.268 0 .822-.427 1.663-1.285.84-.855 1.424-1.5 1.75-1.93a.555.555 0 0 0 .149-.41zm-7.336-3.84c-1.06 1.079-2.34 1.617-3.839 1.617-1.498 0-2.776-.538-3.836-1.616-1.06-1.08-1.592-2.382-1.592-3.907 0-1.526.531-2.827 1.592-3.903 1.06-1.08 2.338-1.62 3.836-1.62 1.498 0 2.779.54 3.84 1.62 1.06 1.076 1.589 2.377 1.589 3.903 0 1.525-.53 2.827-1.59 3.907zM163.444 58.251a.762.762 0 0 0-.15-.432 42.334 42.334 0 0 1-1.909-2.483c.3-.588.524-1.134.68-1.638l3.288-.518c.125-.014.24-.089.34-.225a.738.738 0 0 0 .146-.42V48.54a.657.657 0 0 0-.147-.418.585.585 0 0 0-.36-.228l-3.225-.496c-.155-.49-.396-1.08-.722-1.77.214-.316.532-.749.955-1.295.425-.548.721-.933.89-1.163a.72.72 0 0 0 .15-.413c0-.386-1.019-1.538-3.054-3.453a.699.699 0 0 0-.446-.17.601.601 0 0 0-.423.15l-2.502 1.92a9.324 9.324 0 0 0-1.588-.67l-.49-3.3a.553.553 0 0 0-.21-.377.643.643 0 0 0-.426-.16h-3.943c-.327 0-.538.168-.637.515-.168.662-.331 1.77-.486 3.322a10.49 10.49 0 0 0-1.634.69l-2.438-1.94a.74.74 0 0 0-.444-.15c-.27 0-.829.425-1.676 1.273-.848.848-1.428 1.488-1.738 1.92a.638.638 0 0 0-.15.43c0 .13.05.274.15.432a41.004 41.004 0 0 1 1.906 2.483c-.297.59-.521 1.136-.676 1.64l-3.289.516c-.126.014-.24.089-.34.224a.74.74 0 0 0-.147.424v3.99c0 .159.051.3.148.42.098.124.219.193.363.207l3.222.515c.168.546.417 1.137.74 1.771-.224.316-.558.757-.994 1.316-.439.563-.73.943-.87 1.145a.733.733 0 0 0-.149.41c0 .388 1.019 1.54 3.053 3.453a.708.708 0 0 0 .447.172c.182 0 .323-.05.422-.153l2.503-1.917c.58.302 1.11.523 1.59.668l.487 3.3a.564.564 0 0 0 .212.377c.128.108.27.163.425.163h3.943c.326 0 .538-.171.637-.518.168-.676.331-1.793.489-3.345a9.79 9.79 0 0 0 1.63-.667l2.44 1.94a.743.743 0 0 0 .443.152c.27 0 .826-.43 1.666-1.283.84-.857 1.425-1.5 1.748-1.935.099-.1.15-.235.15-.407zm-7.337-3.84c-1.061 1.077-2.339 1.618-3.836 1.618-1.5 0-2.778-.54-3.84-1.619-1.058-1.078-1.588-2.38-1.588-3.907 0-1.524.53-2.824 1.588-3.905 1.062-1.078 2.34-1.618 3.84-1.618 1.497 0 2.775.54 3.836 1.618 1.06 1.081 1.591 2.38 1.591 3.905 0 1.527-.532 2.83-1.59 3.907z"/>
    </g>
</svg>