<svg xmlns="http://www.w3.org/2000/svg" xmlns:xlink="http://www.w3.org/1999/xlink" width="100" height="100" viewBox="0 0 100 100">
    <defs>
        <path id="a" d="M0 45.04h79.832V0H0z"/>
    </defs>
    <g fill="none" fill-rule="evenodd">
        <circle cx="50" cy="50" r="50" fill="#B97F4B"/>
        <g transform="translate(10 27)">
            <path stroke="#FFF" stroke-width=".8" d="M45.594 14.28h7.063v7.22h3.571c1.65 0 3.345-.294 4.907-.823.768-.26 1.629-.622 2.386-1.077-.997-1.302-1.506-2.946-1.656-4.566-.203-2.204.241-5.072 1.733-6.797l.742-.858.885.71c2.227 1.79 4.1 4.291 4.43 7.141 2.683-.788 5.831-.602 8.196.762l.97.56-.511.997c-2 3.902-6.18 5.11-10.265 4.897-6.115 15.23-19.429 22.44-35.57 22.44-8.34 0-15.991-3.117-20.348-10.516l-.072-.12-.634-1.292c-1.473-3.257-1.962-6.825-1.63-10.39l.1-1.068h6.039v-7.22h7.062V7.217H37.12V.155h8.475V14.28"/>
            <mask id="b" fill="#fff">
                <use xlink:href="#a"/>
            </mask>
            <path stroke="#FFF" stroke-width=".8" d="M17.107 21.579h6.121v-6.122h-6.121zM24.17 14.516h6.121V8.394h-6.122zM24.17 21.579h6.121v-6.122h-6.122zM31.233 21.579h6.121v-6.122h-6.121zM31.233 14.516h6.121V8.394h-6.121zM38.296 21.579h6.121v-6.122h-6.121zM38.296 14.516h6.121V8.394h-6.121zM38.296 7.453h6.121V1.332h-6.121zM45.358 21.579h6.122v-6.122h-6.122zM29.908 31.503a1.689 1.689 0 1 1-.001 3.378 1.689 1.689 0 0 1 0-3.378" mask="url(#b)"/>
            <path stroke="#FFF" stroke-width=".8" d="M29.908 31.982c.154 0 .302.03.438.082a.493.493 0 1 0 .679.664 1.21 1.21 0 1 1-1.117-.746M78.595 28.004c-1.71-.434-5.412-1.02-4.802-3.262-3.11 3.6-10.61 2.525-12.503.75-2.109 3.058-14.38 1.896-15.236-.486-2.643 3.101-10.832 3.101-13.475 0-.856 2.382-13.128 3.544-15.236.486-1.893 1.775-9.393 2.85-12.503-.75.61 2.242-3.091 2.828-4.802 3.262h78.557zM34.397 43.672c-4.182-1.984-6.478-4.682-7.755-7.627-1.553.444-3.42.727-5.59.849-.818.046-1.678.069-2.58.069-1.04 0-2.136-.03-3.287-.092 3.835 3.833 8.553 6.784 17.29 6.838.644 0 1.285-.012 1.922-.037" mask="url(#b)"/>
            <path stroke="#FFF" stroke-width=".8" d="M28.196 38.763a14.643 14.643 0 0 1-1.553-2.718c-1.554.443-3.422.727-5.592.849 1.49.809 3.623 1.558 7.145 1.869" mask="url(#b)"/>
        </g>
    </g>
</svg>
