<?xml version="1.0" encoding="UTF-8"?>
<svg width="100px" height="100px" viewBox="0 0 100 100" version="1.1" xmlns="http://www.w3.org/2000/svg" xmlns:xlink="http://www.w3.org/1999/xlink">
    <!-- Generator: Sketch 48.2 (47327) - http://www.bohemiancoding.com/sketch -->
    <title>facebook</title>
    <desc>Created with Sketch.</desc>
    <defs></defs>
    <g id="Page-1" stroke="none" stroke-width="1" fill="none" fill-rule="evenodd">
        <g id="facebook" fill="#3A559F" fill-rule="nonzero">
            <path d="M0,20 L0,79.9407895 C1.11632554e-14,90.9864845 8.954305,99.9407895 20,99.9407895 L53.2245614,99.9407895 L53.2245614,61.3357456 L40.2135965,61.3357456 L40.2135965,45.5760965 L53.2245614,45.5760965 L53.2245614,32.3407895 C53.2245614,22.7151316 61.0276316,14.9120614 70.6532895,14.9120614 L84.2552632,14.9120614 L84.2552632,29.0835526 L74.5223684,29.0835526 C71.4638158,29.0835526 68.9842105,31.5631579 68.9842105,34.6217105 L68.9842105,45.5763158 L84.0107456,45.5763158 L81.9339912,61.3359649 L68.9842105,61.3359649 L68.9842105,99.9407895 L79.9407895,99.9407895 C90.9864845,99.9407895 99.9407895,90.9864845 99.9407895,79.9407895 L99.9407895,20 C99.9407895,8.954305 90.9864845,4.22877299e-15 79.9407895,-3.55271368e-15 L20,-3.55271368e-15 C8.954305,-1.52365243e-15 -4.90542118e-15,8.954305 -3.55271368e-15,20 Z" id="Shape"></path>
        </g>
    </g>
</svg>