<svg xmlns="http://www.w3.org/2000/svg" width="100" height="100" viewBox="0 0 100 100">
    <g fill="none" fill-rule="evenodd">
        <circle cx="50" cy="50" r="50" fill="#00D600"/>
        <g stroke="#FFF">
            <path d="M62.247 31.602V15.409H18v69.182h63.658V15.4H67.737v16.2"/>
            <path d="M62.457 31.374h-.246c-2.442 1.08-4.094 3.708-4.094 6.55 0 .56.066 1.105.191 1.628l-17.793 18.84m27.017-13.955a6.962 6.962 0 0 0 4.503-6.513c0-2.92-1.749-5.517-4.298-6.55h-.205M62.457 59.21h-.246c-2.442 1.081-4.094 3.708-4.094 6.55a6.96 6.96 0 1 0 13.918 0c0-2.92-1.749-5.517-4.298-6.55h-.205V44.475"/>
            <path d="M40.57 58.611l-.189-.158c-2.565-.742-5.52.209-7.346 2.386a6.96 6.96 0 1 0 10.662 8.947c1.877-2.237 2.206-5.35.917-7.78-.057-.05-.11-.093-.156-.132l17.753-17.81M62.21 59.21V43.859"/>
        </g>
    </g>
</svg>
