<?xml version="1.0" encoding="UTF-8"?>
<svg width="100px" height="100px" viewBox="0 0 100 100" version="1.1" xmlns="http://www.w3.org/2000/svg" xmlns:xlink="http://www.w3.org/1999/xlink">
    <!-- Generator: Sketch 48.2 (47327) - http://www.bohemiancoding.com/sketch -->
    <title>google-plus (1)</title>
    <desc>Created with Sketch.</desc>
    <defs></defs>
    <g id="Page-1" stroke="none" stroke-width="1" fill="none" fill-rule="evenodd">
        <g id="google-plus-(1)" fill="#DD4B39" fill-rule="nonzero">
            <path d="M0,20 L-3.55271368e-15,79.9407895 C7.61054175e-15,90.9864845 8.954305,99.9407895 20,99.9407895 L79.9407895,99.9407895 C90.9864845,99.9407895 99.9407895,90.9864845 99.9407895,79.9407895 L99.9407895,20 C99.9407895,8.954305 90.9864845,4.22877299e-15 79.9407895,-3.55271368e-15 L20,-3.55271368e-15 C8.954305,-1.52365243e-15 -4.90542118e-15,8.954305 -3.55271368e-15,20 Z M58.2609649,54.1747807 C56.5519737,65.4015351 48.1817982,71.8377193 37.3451754,71.8377193 C25.1673246,71.8377193 15.2942982,61.964693 15.2942982,49.7868421 C15.2942982,37.6120614 25.1673246,27.7390351 37.3451754,27.7390351 C43.2359649,27.7390351 48.3975877,29.8412281 52.1546053,33.4903509 L45.8263158,39.8186404 C43.683114,37.6594298 40.7502193,36.5085526 37.3451754,36.5085526 C30.1767544,36.5085526 24.3651316,42.6212719 24.3651316,49.7866228 C24.3651316,56.9583333 30.1767544,62.8936404 37.3451754,62.8936404 C43.3532895,62.8936404 47.9030702,59.9894737 49.2155702,54.1747807 L37.3451754,54.1747807 L37.3451754,45.3195175 L58.2072368,45.3195175 C58.4576754,46.7462719 58.5844298,48.2394737 58.5844298,49.7866228 C58.5842105,51.3212719 58.4732456,52.7828947 58.2609649,54.1747807 Z M84.7410088,51.4291667 L77.0144737,51.4291667 L77.0144737,59.1524123 L71.5263158,59.1524123 L71.5263158,51.4291667 L63.7997807,51.4291667 L63.7997807,45.9377193 L71.5263158,45.9377193 L71.5263158,38.2111842 L77.0144737,38.2111842 L77.0144737,45.9377193 L84.7410088,45.9377193 L84.7410088,51.4291667 Z" id="Shape"></path>
        </g>
    </g>
</svg>