<svg xmlns="http://www.w3.org/2000/svg" xmlns:xlink="http://www.w3.org/1999/xlink" width="204" height="302" viewBox="0 0 204 302">
    <defs>
        <path id="a" d="M0 .309h203.538V212H0z"/>
        <linearGradient id="d" x1="50%" x2="50%" y1="100%" y2="4.062%">
            <stop offset="0%" stop-color="#BF9600"/>
            <stop offset="100%" stop-color="#F76B1C"/>
        </linearGradient>
        <path id="c" d="M0 302h204V0H0z"/>
    </defs>
    <g fill="none" fill-rule="evenodd">
        <g transform="translate(0 90)">
            <mask id="b" fill="#fff">
                <use xlink:href="#a"/>
            </mask>
            <path fill="#112798" d="M137.424 123.275c-9.82 10.848-15.76 23.94-12.002 42.666 7.637-.546 14.426-2.424 19.64-6.545-3.456-11.152-6.244-22.909-7.638-36.12m-72.377 7.574c-1.394 13.274-4.304 26.485-9.03 39.454 6-.485 10.606 1.758 14.123 6.122.605-9.213 2.302-17.94 5.879-25.635-3.091-9.395-6.668-16.304-10.972-19.94m17.64-56.665c.182 3.999.363 8 .546 11.999-2.061.606-3.698 1.637-4.79 3.152-8.061.97-16.063 1.94-24.065 2.97-6.303.666-10.668 4.18-11.88 12.545-1.758 16.909-3.577 33.877-5.395 50.847-14.003 4.605-21.58 4.423-21.762 19.514-17.76.303-19.094 23.212-9.153 29.817 2.91 2.849 6.365 4.97 10.063 6.97h164.21c9.517-4.727 19.398-13.393 22.308-20.726 5.273-20.666-17.76-29.939-32.915-18.303.06-2.667-.182-5.152-2.486-6.304-.424-21.15-4.485-42.422-12.668-63.876-7.578-13.273-28.43-18.06-42.675-15.817.303-1.697-.182-3.455-1.576-5.273.182-2.667.303-5.273.485-7.879.667-.303 1.394-.606 2.122-.91-1.333 4.182 2.909 15.819 7.577 6.85-3.455-.546-3.88-3.698-2.97-8 4.909-7.152 5.637-16.425 2.97-24.485 1.636-1.878 1.151-3.515-.364-4.97 1.212-1.636 1.212-3.332.243-5.09 1.454-2.97-.061-4.849-2.364-6.424-.121-2.424-1.516-3.212-3.274-3.576-1.272-2.97-3.394-4.364-6.304-4.425-1.03-3.211-2.243-6.18-5.516-7.15.485-1.152.302-2.06-.424-2.849.849-2.243 1.151-4.303-.546-5.939C98.75 5.581 96.932 3.218 95.841.31c-1.455 2.97-3.516 5.514-7.153 7.03-1.212 2.485-.91 4.606.848 6.424-2.06.606-3.273 1.636-2.97 3.576-1.636.181-2.606 1.273-3.212 3.03-1.334.606-2.182 1.697-2.182 3.393-1.637.122-2.668 1.03-3.152 2.667-2.728.606-3.94 2.788-4.183 5.758-1.758 1.697-2.122 3.818-1.818 6.18-1.698 1.88-1.031 3.698-.364 5.577-1.273 1.757-.97 3.394.242 4.909-1.091 1.03-1.03 2.242-.303 3.515-2 2.727-2.304 5.454-.121 8.06-.728 5.698 1.212 9.636 4.425 12.727 1.212 4.364.848 8-3.274 9.94 1.395 1.575 3.092 2.605 6.183 1.03 2.607-1.515 2.788-5.03 2.365-9.03.484-.303 1.03-.607 1.515-.91" mask="url(#b)"/>
        </g>
        <path fill="#FEFEFE" d="M165.19 262c-10.137 4.155-20.334 8.247-31.203 7.876 1.1 4.589-26.073 20.03-32.728 16.62 1.16 7.07-11.663 12.093-36.576 15.504 29.127-1.241 57.092-2.481 84.08-3.722-19.477-1.178-41.032-1.983-43.657-6.015 11.601-4.9 22.653-10.852 34.133-16.993 9.342-1.425 17.707-6.51 25.951-13.27M114.426 255.394c-6.552-.244-25.18-5.61-24.938 4.085 7.706 1.769 15.594 1.097 23.604-.365-13.167 6.28-24.272 4.695-36.468-2.928 4.005 1.158 8.01 2.135 11.833 1.83-3.399-11.464 26.697-3.11 25.969-2.622M16.831 269.578c.236 4.002-1.12 5.725 3.836 5.91.296-3.017.59-6.094.886-9.11.354 5.724-1.358 13.05 3.658 13.05.119-3.079.296-6.156.414-9.295.295 6.34.708 10.095.826 12.68.708 3.324 2.479 2.709 3.187-.123.649-2.892.59-8.125.649-14.342.472 3.754.944 7.571 1.416 11.388 3.837 1.97 4.19-3.202 3.837-8.557-.06-.923-.178-1.847-.296-2.831-.649-4.924-1.297-10.404 6.551-9.172-5.371.983-5.076 7.94-4.78 10.957.472 5.232.06 13.542-5.37 11.387-.295 1.97-.709 5.356-3.719 5.48-3.01.06-3.01-3.879-3.187-5.849-3.364.123-4.308-1.539-4.485-4.248-6.138-.123-4.19-3.262-3.423-7.325M77.62 138c.548-11.721 11.149-14.716 17.912-5.86-1.218.636-2.376 1.273-3.596 1.847-5.726-6.753-10.113-2.422-14.316 4.013M114.439 138c-.487-11.721-11.15-14.716-17.912-5.86 1.218.636 2.437 1.273 3.656 1.847 5.666-6.753 10.113-2.422 14.256 4.013M84.585 165c7.72 8.718 10.82 6.603 21.893 6.988-7.53 3.974-14.553 3.719-21.132.962a3919.6 3919.6 0 0 0-.76-7.95M59.707 191c5.616 3.588 10.155 7.662 12.546 12.466 9.975-2.554 17.92-1.58 25.269.426-32.857 1.52-18.46 2.737-15.593 41.108-3.046-20.735-11.947-37.824-22.222-54"/>
        <g>
            <mask id="e" fill="#fff">
                <use xlink:href="#c"/>
            </mask>
            <use fill="url(#d)" opacity=".6" xlink:href="#c"/>
        </g>
        <text fill="#FFF" font-family="Lato-Bold, Lato" font-size="16" font-weight="bold">
            <tspan x="68" y="36">GUNTUR</tspan>
        </text>
    </g>
</svg>
