<svg xmlns="http://www.w3.org/2000/svg" width="100" height="100" viewBox="0 0 100 100">
    <g fill="none" fill-rule="evenodd">
        <circle cx="50" cy="50" r="50" fill="#CECE04"/>
        <g stroke="#FFF" stroke-width=".8">
            <path d="M49.552 42.06c1.266 3.165 5.584 2.803 9.224 2.713-.159.406-.498.904-.95 1.062-1.176.475-4.386.837-6.014-.023-1.017-.542-1.695-1.786-2.26-2.509-.25-.34-1.605-1.22 0-1.243m.339-1.764c1.808.95 5.154 1.063 7.641.995.136.543.136 1.22.136 1.876-3.188.136-6.94-.655-7.777-2.87m13.655-1.2c-.972 1.855-2.351 3.89-5.2 3.957-.068-.587-.113-1.514 0-1.876 2.193-.226 3.55-1.334 5.2-2.08m-28.848-2.78c-.656-.385-.814-2.013-1.582-2.058-1.108-.068-.905 2.125-.905 3.414-.746-.679-.882-2.804-.339-3.889-.633-.317-.904.34-1.266.565.475-3.278 4.816-1.515 4.092 1.967m27.537 1.402c-2.08 1.334-4.41 2.803-7.845 2.464-.724-.633-1.018-2.057-.294-2.984.361.633.135 1.809 1.176 1.99 1.944.339 4.204-1.199 5.606-1.719.86-1.47-.068-1.99-.859-2.939-1.605-1.922-3.73-4.318-3.662-7.19.655-.474.7.724.79.928.837 1.944 2.94 4.453 4.455 6.127.384.406.994.813 1.062 1.085.204.768-.52 1.718-.43 2.238M50.05 26.099c.633 1.152.836 2.35 1.718 3.21.407.384 1.176.859.792 1.944-.09.249-.747.814-1.131.927-1.379.407-4.612.09-3.527-1.65 1.153.045 2.69.746 3.55-.091-.656-1.04-1.832-3.12-1.402-4.34m12.706-.046h.135c.656 1.357 1.221 2.804 2.058 4.024-.565 1.312-4.205 2.442-4.16.136.791-.34 2.148-.068 2.848-.52-.406-1.108-.972-2.057-.881-3.64m-14.176-3.3c-2.916-.679-4.363 1.22-5.245 3.187-.79-.18-.474-1.266-.27-1.809.519-1.424 2.622-3.346 4.34-3.074.723.09 1.718.768 1.175 1.695"/>
            <path d="M41.486 13.307c-1.681.477-3.501 1.32-4.994 2.312-1.731 1.151-2.965 2.447-3.57 3.75.45-.074.84-.215 1.22-.351.472-.17.918-.33 1.46-.367.154-.01.324.014.504.038.27.037.548.075.803.007.543-.142 1.056-1.007 1.508-1.77.26-.44.507-.857.743-1.118.313-.346.658-.598.991-.842.344-.25.668-.488.93-.807l.007-.006c.084-.039.178-.069.27-.097.286-.092.558-.178.578-.534-.156-.181-.304-.251-.45-.215zm-8.628 6.11l.014-.032c.603-1.32 1.847-2.633 3.599-3.797 1.496-.995 3.32-1.84 5.004-2.317.165-.041.326.035.495.232l.005.005v.008c-.019.39-.317.484-.606.576-.089.028-.18.057-.26.094-.266.321-.591.56-.935.81-.332.243-.675.494-.985.838-.234.258-.48.672-.74 1.111-.478.807-.972 1.641-1.53 1.788-.263.07-.545.03-.818-.006-.178-.025-.346-.047-.497-.039-.536.037-.98.197-1.45.365-.39.14-.793.286-1.262.359l-.034.005zm-.279 8.793c.677 0 1.355.17 1.969.513 1.143.638 1.822 1.74 1.82 2.95.252-.009.424-.081.526-.222.24-.332.038-.984-.158-1.614a9.32 9.32 0 0 1-.18-.628c-.34-1.473-.092-3.012.148-4.5.278-1.733.542-3.369-.052-4.889-2.13.179-3.942 1.044-5.24 2.502l-.032.036c-1.3 1.494-1.09 4.216-.934 6.208l.018.244c.647-.399 1.38-.6 2.115-.6zm3.75 3.501v-.02c.01-1.203-.662-2.3-1.8-2.935a3.993 3.993 0 0 0-4.071.103l-.027.017-.002-.031-.021-.276c-.157-2.015-.371-4.774.975-6.272l.033-.037c1.306-1.447 3.12-2.304 5.247-2.479l.014-.001.006.013c.603 1.533.339 3.179.058 4.921-.238 1.485-.485 3.02-.148 4.487.045.192.11.403.18.625.198.639.403 1.3.152 1.648-.112.154-.3.232-.576.237h-.02zm-.568 5.998h.011l.006.01c.368.737-.067 1.16-.487 1.57-.264.257-.514.5-.574.816-.043.215.107 1.035.225 1.461.5 2.02 1.563 4.5 2.53 5.895 1.276 1.826 3.742 2.132 6.597 2.32.228-.476.732-.762 1.496-.85.672-.077 1.361.019 1.803.108-1.298-.581-2.515-1.804-3.64-3.046-1.12-1.241-2.512-2.786-2.583-4.67l-.002-.062.036.05.274.379c2.257 3.124 4.207 5.822 8.33 7.211 1.486.495 3.185.474 5.05-.062 1.498-.431 3.095-1.21 4.497-2.196.791-.55 1.344-1.38 1.878-2.182.166-.25.337-.507.514-.753 1.348-1.945 2.365-4.296 3.02-6.988.628-2.572.887-5.381.752-8.125l-.039-.837c-.087-1.989-.17-3.867-.841-5.191-.503-1.007-1.726-1.897-2.907-2.116-.584-.108-1.426-.102-2.127.539l-.025.023-.007-.034c-.117-.62.062-1.181.503-1.578.608-.546 1.62-.7 2.653-.404a116.3 116.3 0 0 1-.448-.592c-1.22-1.616-2.48-3.287-4.168-4.24-1.778-1.004-4.018-1.777-6.146-2.12-1.752-.284-4.266-.408-6.293.605-1.787.894-3.327 1.833-4.575 2.79-1.68 1.29-2.83 2.612-3.416 3.93.792 1.871.406 3.606-.003 5.443-.213.959-.434 1.951-.474 2.968-.023.813.173 1.555.38 2.341.187.706.38 1.437.412 2.247v.006l-.003.005c-.425.693-1.646.781-2.594.733l-.015-.001-.003-.015c-.13-.655-.326-1.493-.707-2.159-.405-.707-.937-1.09-1.628-1.172a3.301 3.301 0 0 0-2.539.773 3.773 3.773 0 0 0-1.306 2.646c-.08 1.554.742 3.568 1.91 4.684.716.684 1.525 1.004 2.342.925.466-.042.774-.291 1.07-.532.336-.272.683-.553 1.26-.553zm8.331 12.112l-.013-.001c-2.87-.189-5.35-.494-6.638-2.337-.97-1.4-2.035-3.884-2.535-5.907-.107-.385-.274-1.239-.226-1.478.061-.327.328-.586.585-.837.408-.398.83-.809.484-1.514-.557.004-.896.279-1.224.545-.302.244-.614.497-1.091.54-.828.08-1.648-.243-2.372-.935-1.176-1.123-2.002-3.15-1.922-4.714a3.811 3.811 0 0 1 1.32-2.673 3.34 3.34 0 0 1 2.567-.782c.704.083 1.246.473 1.657 1.191.38.666.579 1.5.708 2.156.934.047 2.127-.04 2.542-.71-.032-.804-.224-1.53-.41-2.233-.208-.789-.404-1.533-.38-2.352.039-1.02.26-2.015.474-2.976.408-1.832.794-3.564.002-5.426l-.004-.008.004-.007c.587-1.327 1.742-2.657 3.43-3.953 1.251-.96 2.792-1.9 4.582-2.794 2.036-1.018 4.558-.893 6.316-.61 2.133.345 4.377 1.12 6.159 2.125 1.694.957 2.958 2.632 4.18 4.251.158.211.323.429.483.638l.035.046-.056-.016c-1.04-.314-2.064-.168-2.673.38-.423.38-.598.915-.496 1.509.56-.499 1.297-.68 2.134-.525 1.192.221 2.426 1.12 2.934 2.136.676 1.33.758 3.213.845 5.207l.039.837c.135 2.746-.125 5.56-.752 8.135-.658 2.696-1.676 5.052-3.027 7.001-.176.246-.348.503-.514.752-.536.805-1.09 1.637-1.887 2.192-1.406.988-3.007 1.77-4.508 2.201-1.873.539-3.58.56-5.072.062-4.136-1.393-6.089-4.095-8.35-7.225l-.236-.326c.098 1.841 1.467 3.359 2.57 4.581 1.176 1.299 2.452 2.575 3.813 3.115l-.011.036c-1.306-.301-2.996-.301-3.46.69l-.006.013zm-4.372.208c-.135.145-.17.304-.105.474.19.492 1.134.946 1.68 1.172.749.31 1.63.558 2.111.592.004-.28.08-.549.154-.81.077-.267.149-.52.12-.735-.432-.073-.914-.106-1.38-.137-.967-.067-1.966-.135-2.58-.556zm3.724 2.279l-.02-.001c-.885-.055-3.51-.922-3.845-1.79-.073-.19-.03-.367.125-.526l.01-.012.014.01c.604.423 1.606.491 2.574.558.472.032.96.065 1.397.14l.014.002.002.013c.036.226-.04.488-.118.766-.075.265-.153.538-.153.82v.02zm10.058 2.497c.695.216 1.254.065 1.537-.415.292-.495.205-1.229-.19-1.603-.225-.213-.734-.483-1.617.1-.044.527.025.818.121 1.22.046.193.099.412.149.698zm.584.135c-.187 0-.39-.034-.607-.102l-.01-.004-.003-.01c-.05-.291-.103-.513-.15-.708-.097-.408-.167-.702-.12-1.242v-.01l.008-.004c.39-.26 1.126-.617 1.671-.1.414.391.502 1.131.197 1.65-.206.348-.551.53-.986.53zm2.18.16c1.335.38 2.922.6 4.852.672.31-.422.468-1.233.42-2.172-.038-.854-.283-3.158-.963-3.557-.931-.543-2.355.43-3.499 1.213-.496.339-.925.633-1.238.75.033.087.07.171.107.253.09.2.183.406.203.683.564-.14 1.285-.057 1.844.21l.06.029-.066.007c-.113.013-.23.023-.342.033-.509.046-.99.089-1.316.322-.067.215-.053.47-.04.738.015.264.03.536-.023.82zm4.87.711h-.01c-1.945-.073-3.544-.295-4.888-.679l-.016-.005.003-.017c.055-.284.04-.56.026-.827-.015-.275-.028-.534.042-.758l.002-.006.005-.003c.336-.243.847-.288 1.34-.333l.274-.025c-.55-.245-1.24-.313-1.779-.174l-.022.006-.001-.023c-.016-.281-.11-.49-.201-.693a3.669 3.669 0 0 1-.115-.274l-.006-.018.018-.006c.309-.11.743-.407 1.247-.752 1.153-.788 2.587-1.769 3.539-1.214.695.408.944 2.728.981 3.588.05.954-.113 1.778-.433 2.205l-.006.008zM45.833 50.38a.954.954 0 0 0-.645.227c-.729.63-.653 2.405-.598 3.7l.007.173c.05.984.447 2.007.765 2.83.104.266.201.518.274.737.027.08.05.163.073.243.093.323.172.602.434.671.582.13 2.59-.631 3.196-.97.738-.396 1.377-.942 1.996-1.47.41-.35.797-.68 1.205-.966.011-.166.017-.34.022-.51.006-.168.011-.342.022-.508-.682-.339-1.394-.516-2.242-.557l-.07-.004.062-.032c.287-.149.648-.23.998-.307.391-.088.797-.178 1.094-.365 0-.124 0-.253.02-.38-.758-.086-1.171-.355-1.608-.64a7.619 7.619 0 0 0-.504-.31c-.944-.52-2.616-1.234-4.222-1.535a1.492 1.492 0 0 0-.279-.027zm.475 8.634a.815.815 0 0 1-.174-.016c-.283-.075-.37-.378-.461-.698a5.843 5.843 0 0 0-.073-.241c-.073-.218-.17-.47-.273-.736-.32-.825-.717-1.851-.768-2.841l-.007-.173c-.056-1.303-.132-3.089.611-3.73.246-.213.567-.283.956-.209 1.61.302 3.287 1.018 4.233 1.54.185.1.349.207.507.31.437.285.85.554 1.611.636l.02.003-.003.02c-.023.134-.023.27-.023.404v.01l-.008.006c-.305.194-.717.286-1.116.375-.321.071-.652.145-.924.272.826.048 1.526.228 2.196.563l.011.006v.012c-.012.17-.017.347-.023.52-.005.172-.011.35-.023.52v.01l-.008.004c-.41.285-.798.617-1.21.968-.62.53-1.26 1.077-2.002 1.475-.496.278-2.277.99-3.049.99zm6.366-2.272c1.196 1.457 2 3.318 2.778 5.117.448 1.036.91 2.106 1.442 3.085.594-1.977.68-4.042.771-6.227.027-.64.054-1.303.096-1.956-.61.018-1.08-.316-1.493-.611-.314-.225-.612-.437-.932-.473l-.021-.002c-.267-.028-.518.098-.785.23-.385.19-.783.388-1.288.18-.098.11-.193.222-.285.33-.09.107-.185.218-.283.327zm4.23 8.3l-.021-.04c-.542-.99-1.012-2.077-1.466-3.127-.779-1.803-1.585-3.667-2.783-5.121l-.01-.013.01-.012c.102-.113.2-.228.294-.34.095-.11.193-.225.295-.339l.009-.01.012.006c.495.208.889.013 1.27-.175.264-.132.515-.256.784-.235l.02.001c.339.03.646.25.972.482.434.309.882.629 1.49.603h.021l-.001.02c-.042.66-.07 1.33-.097 1.976-.092 2.204-.178 4.286-.786 6.28l-.013.044zm-9.207-3.268c1.937 1.093 4.884 2.587 7.97 3.528-.156-.368-.314-.744-.466-1.108-.978-2.336-1.99-4.753-3.483-6.658l-.364.24c-1.57 1.037-3.194 2.108-3.657 3.998zm8.037 3.588l-.039-.011c-3.11-.944-6.083-2.452-8.03-3.551l-.012-.007.004-.014c.462-1.913 2.096-2.991 3.676-4.034l.378-.25.015-.01.01.013c1.503 1.912 2.518 4.337 3.5 6.682.157.376.32.764.483 1.145l.015.037zm2.88-8.54c-.089 2.14-.351 6.038-1.12 8.411 1.5-1.944 2.786-4.173 4.03-6.33l.53-.918c-.347-.554-.84-.988-1.387-1.223-.656-.282-1.366-.261-2.054.06zm-1.226 8.61l.036-.106c.795-2.36 1.063-6.35 1.152-8.517v-.007l.01-.01c.702-.33 1.427-.353 2.096-.065.558.24 1.059.682 1.41 1.248l.007.01-.006.01c-.18.308-.358.617-.536.926-1.264 2.191-2.57 4.457-4.1 6.423l-.069.088zm4.593 9.671c.465.01.81-.124 1.143-.254.217-.085.442-.172.697-.218.029-1.434-.037-4.948-1.237-6.998-.363-.074-.75-.048-1.127-.022a8.028 8.028 0 0 1-.49.024c.111 1.053.28 2.132.46 3.275.217 1.381.44 2.81.554 4.193zm.048.039l-.066-.001h-.017l-.002-.018c-.112-1.388-.337-2.821-.555-4.207-.18-1.15-.35-2.237-.462-3.298l-.002-.021h.021c.16 0 .33-.012.509-.024.381-.026.775-.053 1.145.024l.008.002.005.007c1.213 2.065 1.275 5.612 1.246 7.041v.016l-.016.003c-.258.044-.485.133-.706.219-.324.126-.66.257-1.108.257zm5.335.317c.815.36 2.621.297 3.83.01l.012-.004c.808-.197 1.487-.774 1.912-1.626.428-.86.539-1.889.312-2.896l-.109-.486c-.324-1.464-.814-3.676-1.358-4.481a2.855 2.855 0 0 0-1.089-.932c-.381-.181-.948-.327-1.485.01-.675.431-1.581.734-2.457 1.028-1.139.381-2.317.776-2.958 1.449.495 1.669.695 3.863.889 5.986.026.29.052.577.08.863.697.04 1.462-.02 2.203-.079 1.322-.104 2.689-.211 3.733.238l.046.02-.048.016c-.454.145-.966.233-1.46.319-.727.125-1.477.255-2.053.565zm1.683.286c-.698 0-1.34-.081-1.734-.267l-.033-.016.032-.018c.586-.327 1.355-.46 2.098-.588.475-.082.967-.167 1.406-.302-1.03-.422-2.37-.317-3.667-.215-.748.058-1.52.12-2.225.078h-.017l-.001-.017a282.63 282.63 0 0 1-.081-.88c-.194-2.125-.394-4.323-.89-5.99l-.003-.01.007-.008c.646-.684 1.833-1.082 2.98-1.466.875-.293 1.778-.596 2.45-1.024.551-.346 1.132-.198 1.521-.012.52.248.912.65 1.104.945.548.811 1.04 3.027 1.364 4.494l.109.486c.229 1.015.117 2.053-.315 2.92-.428.858-1.11 1.44-1.923 1.643l-.015.004a9.76 9.76 0 0 1-2.167.243zm-39.055-.68c.772.362 1.537.77 2.277 1.165 2.378 1.27 4.837 2.584 8.172 2.76-.517-3.575-.969-6.811-1.262-10.186-.663-.28-1.487-.213-2.283-.149-.524.043-1.018.083-1.432.02l-.016-.003v-.016c0-.704.508-.801.956-.887.362-.07.704-.135.762-.495.037-.26-.115-.421-.275-.591-.223-.236-.475-.503-.29-1.085l.007-.019.018.007c.386.14.69.363.985.579.323.237.658.482 1.1.614.513-1.13.35-2.8.206-4.276-.072-.734-.14-1.426-.1-1.92.04-.473.148-1.078.439-1.27a.366.366 0 0 1 .331-.035c.367.122.257 1.419.139 2.792-.061.713-.119 1.387-.103 1.86.012.327.007.65.002.962-.013.87-.026 1.692.35 2.274 4.28-.592 8.561-.945 13.083-1.081-.223-.093-.452-.185-.694-.281-.826-.33-1.761-.704-2.754-1.269a13.499 13.499 0 0 0-.802-.39c-.936-.436-2.219-1.031-2.372-1.543-.207-.664.158-1.143.512-1.607.223-.291.452-.592.54-.939-.586.313-1.07.384-1.479.217-.774-.316-1.12-1.457-1.424-2.464a28.348 28.348 0 0 0-.16-.52c-.45-1.457-.723-2.572-.837-3.406-.401-.203-.815-.407-1.214-.603-1.468-.722-2.985-1.468-4.228-2.356-.109-.075-.442-.466-.827-.918-.608-.714-1.527-1.792-1.687-1.725-3.498 1.382-6.786 3.755-9.818 6.115 1.332 2.87 2.365 6.209 3.07 9.927.626 3.299.998 6.913 1.108 10.741zm10.493 3.965h-.023c-3.355-.173-5.824-1.491-8.21-2.766a49.266 49.266 0 0 0-2.287-1.17l-.01-.005v-.012c-.11-3.83-.482-7.447-1.108-10.747-.706-3.72-1.74-7.062-3.074-9.932l-.006-.014.012-.009c3.037-2.365 6.332-4.744 9.84-6.13.17-.07.854.71 1.729 1.736.384.45.715.84.82.912 1.24.886 2.756 1.631 4.222 2.352.403.199.82.403 1.224.608l.01.005v.01c.113.833.387 1.949.836 3.41.055.168.106.339.161.52.303.999.645 2.13 1.403 2.44.406.166.891.09 1.484-.235l.036-.02-.009.04c-.081.372-.323.689-.556.995-.364.477-.708.928-.507 1.573.149.495 1.423 1.087 2.352 1.519.331.154.617.286.805.392.99.564 1.925.937 2.749 1.266.271.109.527.21.776.316l.08.034-.087.002c-4.557.134-8.868.489-13.179 1.085l-.012.002-.006-.01c-.39-.592-.376-1.424-.363-2.305.005-.312.01-.634-.002-.96-.016-.476.042-1.151.103-1.866.106-1.237.226-2.639-.113-2.752a.33.33 0 0 0-.298.031c-.217.143-.367.584-.423 1.241-.038.49.03 1.181.1 1.913.146 1.487.31 3.172-.214 4.311l-.007.015-.016-.005c-.457-.132-.799-.383-1.129-.625-.287-.21-.584-.429-.956-.567-.167.548.063.792.286 1.029.168.177.326.344.286.623-.063.387-.418.455-.793.526-.451.087-.917.176-.925.833.406.06.892.02 1.407-.021.805-.065 1.638-.133 2.312.156l.01.004.001.012c.293 3.384.747 6.63 1.266 10.218l.003.022zm16.952-.746c-.048 1.261.063 3.056.161 4.64.033.536.065 1.042.088 1.493.915-.002 1.395-.168 2-.378.129-.044.261-.09.405-.137.054-1.3-.22-2.545-.484-3.75-.16-.73-.312-1.42-.397-2.122-.25-.08-.618.016-.974.11-.277.074-.563.148-.799.144zm.23 6.171h-.017l-.001-.018c-.023-.455-.055-.968-.089-1.51-.098-1.594-.21-3.4-.16-4.663v-.02l.02.001c.234.01.525-.067.806-.141.368-.097.748-.198 1.008-.106l.011.003.002.012c.084.705.236 1.398.397 2.132.266 1.21.542 2.462.485 3.772l-.001.013-.013.004c-.148.048-.284.096-.416.141-.613.212-1.098.38-2.031.38zm-13.91 2.747c2.143.654 4.532 1.024 6.908 1.07 2.386.046 4.643-.237 6.529-.82-.409-1.987-.479-4.27-.546-6.477-.048-1.56-.097-3.173-.265-4.676-.142-1.225-.19-2.472-.235-3.679-.057-1.489-.115-3.028-.35-4.559-1.794-.37-6.898-1.042-15.811.633.804 7.33 1.932 12.866 3.77 18.508zm7.409 1.113c-.167 0-.334-.002-.501-.005-2.384-.046-4.78-.418-6.93-1.075l-.009-.003-.003-.01c-1.841-5.651-2.97-11.196-3.776-18.541l-.002-.018.017-.003c2.983-.561 10.498-1.746 15.856-.633l.013.002.002.013c.237 1.538.296 3.083.353 4.577.046 1.205.093 2.452.235 3.676.168 1.504.217 3.118.265 4.679.067 2.212.137 4.499.548 6.488l.004.017-.017.005c-1.76.545-3.845.83-6.055.83zm-8.247.628c1.094.395 5.235 1.593 13.096.652 1.023-.12 2.318-.632 2.606-1.678-.09-.6-.18-1.22-.136-1.945l.001-.014.015-.003.253-.048c1.128-.21 2.532-.471 2.761-1.678.17-.853-.075-1.877-.336-2.96-.286-1.19-.582-2.421-.32-3.484l.003-.01.01-.003.125-.04c.657-.208 1.278-.405 1.174-1.41l-.002-.013.011-.006c1.249-.674 2.776-.718 3.967-.68h.01l.006.01c.22.39.465.709.692.895 2.177.435 4.09.397 5.683-.113.848-.27 1.601-1.26 2.068-2.72.41-1.282.533-2.717.316-3.656-.274-1.242-.965-3.418-1.604-4.766-.378-.816-.967-1.369-1.75-1.644-2.04-.717-4.955.507-7.268 1.653l-.043.021.017-.045c1.132-3.025 2.185-6.246 3.414-10.444.065-.211.14-.44.22-.68.331-.992.743-2.227.615-3.155-.1-.81-1.076-1.644-1.937-2.38-.283-.242-.551-.47-.77-.684a16.332 16.332 0 0 0-.649-.556c-.873-.727-2.192-1.826-2.295-2.325-.08-.449.407-1.265.836-1.986.18-.302.351-.588.454-.806.454-.95.78-2.083 1.018-2.91l.066-.23c.923-3.255 1.406-7.02 1.358-10.6-.051-3.916-.724-7.281-1.945-9.734-1.021-2.09-3.838-4.82-5.42-6.007-1.89-1.425-4.688-2.353-7.88-2.613-2.987-.243-6.083.125-8.493 1.01l-.37.136c-1.237.451-2.405.878-3.493 1.514-.514.302-1.039.592-1.546.871-2.663 1.468-5.179 2.854-5.973 6.012l-.003.01-.008.003c-1.089.487-1.884 1.436-2.364 2.824-.42 1.216-.602 2.778-.541 4.642.009.274.08.582.147.88.101.439.205.893.124 1.272-.043.2-.223.438-.381.647-.094.124-.175.231-.208.306-1.102 2.577-.276 6.061 1.06 8.03a5.66 5.66 0 0 0 3.763 2.411l.015.002.001.016c.066.987.302 1.864.79 2.932.079.176.22.394.368.625.414.64.928 1.439.626 2.059-.16.34-1.27.95-2.079 1.395-.223.123-.416.229-.55.309-.574.344-1.1.649-1.609.944-1.3.754-2.424 1.405-3.77 2.378-.328.241-.71.426-1.08.605-.992.48-1.928.934-1.716 2.384.141.945.553 2.041.951 3.102.173.46.335.893.472 1.303.196.607.435 1.201.666 1.775.329.818.669 1.664.895 2.567.868 3.43 1.07 6.733 1.266 9.929.029.412.035.833.04 1.24.012.851.023 1.656.252 2.144.26.536 1.02.817 1.755 1.09.275.102.56.208.813.325.463.218.92.449 1.405.694 2.34 1.181 4.758 2.403 7.674 2.085l.015-.001.005.015c.172.582.346 1.183.514 1.764.65 2.249 1.321 4.574 2.127 6.546zm7.396 1.033c-2.494 0-5.274-.224-7.417-1l-.007-.003-.004-.008c-.808-1.975-1.48-4.304-2.132-6.557-.166-.576-.338-1.172-.51-1.75-2.919.314-5.338-.908-7.678-2.09a56.168 56.168 0 0 0-1.404-.693 11.414 11.414 0 0 0-.81-.324c-.742-.276-1.51-.56-1.776-1.11-.233-.496-.244-1.304-.256-2.16a22.13 22.13 0 0 0-.04-1.238c-.195-3.194-.398-6.496-1.265-9.922-.226-.9-.565-1.745-.893-2.561-.232-.575-.47-1.17-.667-1.778a37.88 37.88 0 0 0-.472-1.302c-.398-1.062-.81-2.16-.953-3.11-.216-1.478.733-1.937 1.738-2.423.367-.178.748-.363 1.073-.602 1.348-.974 2.472-1.626 3.774-2.38.509-.295 1.034-.6 1.608-.944.136-.08.329-.186.552-.31.76-.417 1.907-1.048 2.063-1.378.293-.6-.215-1.389-.624-2.022a5.405 5.405 0 0 1-.37-.63c-.488-1.066-.725-1.944-.792-2.93a5.698 5.698 0 0 1-3.774-2.424c-1.342-1.978-2.171-5.477-1.064-8.067.035-.08.117-.188.212-.314.149-.196.333-.44.375-.632.079-.371-.024-.821-.124-1.256-.068-.3-.139-.609-.148-.887-.061-1.869.122-3.435.543-4.656.482-1.394 1.281-2.35 2.376-2.842.8-3.168 3.321-4.557 5.99-6.027.507-.28 1.031-.569 1.545-.87 1.09-.639 2.26-1.066 3.5-1.518l.37-.135c2.414-.887 5.515-1.256 8.508-1.013 3.199.261 6.005 1.192 7.9 2.621 1.585 1.189 4.407 3.924 5.431 6.02 1.224 2.458 1.898 5.83 1.95 9.75.047 3.585-.436 7.353-1.36 10.611l-.067.23c-.238.828-.564 1.964-1.02 2.916-.103.22-.274.506-.455.81-.426.715-.91 1.525-.832 1.959.1.485 1.413 1.579 2.282 2.303.294.245.527.439.652.558.218.212.485.44.768.683.866.74 1.847 1.58 1.95 2.403.129.937-.284 2.176-.616 3.172-.08.24-.156.468-.22.68-1.224 4.177-2.272 7.387-3.398 10.4 2.312-1.143 5.213-2.35 7.254-1.633.792.279 1.389.839 1.771 1.664.64 1.35 1.333 3.53 1.607 4.774.219.945.094 2.387-.317 3.675-.276.865-.916 2.371-2.092 2.745-1.602.512-3.522.55-5.707.114l-.005-.001-.003-.003c-.23-.188-.478-.507-.7-.9-1.75-.054-2.961.153-3.925.67.101 1.025-.532 1.225-1.202 1.437l-.114.037c-.256 1.051.038 2.273.322 3.455.262 1.088.509 2.115.336 2.976-.233 1.232-1.652 1.496-2.791 1.709l-.239.044c-.043.716.049 1.33.137 1.926v.008c-.291 1.067-1.604 1.587-2.64 1.71a50.05 50.05 0 0 1-5.704.343z"/>
            <path d="M56.944 62.18a.598.598 0 0 1-.587.589.599.599 0 0 1-.588-.588c0-.317.271-.588.588-.588a.57.57 0 0 1 .587.588m-.587-2.736a.598.598 0 0 1-.588.588.599.599 0 0 1-.588-.588c0-.317.271-.588.588-.588.339 0 .588.271.588.588"/>
        </g>
    </g>
</svg>
