<svg xmlns="http://www.w3.org/2000/svg" xmlns:xlink="http://www.w3.org/1999/xlink" width="204" height="303" viewBox="0 0 204 303">
    <defs>
        <linearGradient id="b" x1="50%" x2="50%" y1="0%" y2="97.919%">
            <stop offset="0%" stop-color="#05165E"/>
            <stop offset="24.649%" stop-color="#1D7ABC"/>
            <stop offset="49.292%" stop-color="#52C9F4"/>
            <stop offset="75.813%" stop-color="#A0F1BE"/>
            <stop offset="100%" stop-color="#105F96"/>
        </linearGradient>
        <path id="a" d="M0 302h204V0H0z"/>
        <path id="c" d="M0 0h203v143H0z"/>
    </defs>
    <g fill="none" fill-rule="evenodd">
        <use fill="url(#b)" xlink:href="#a"/>
        <path fill="#112798" d="M52.75 173.707l-1.48.256v-3.054l1.48-.314v3.112zm-.028 4.224l-1.482.257v-3.14l1.482-.228v3.111zm-3.846-.942l-1.937.228v-2.112l1.937-.285v2.169zm-.352 1.21l-.008-.609s.118-.345.27-.041l.008.599-.27.05zm-.476.046l-.009-.634s.127-.36.29-.042l.01.623-.29.053zm-.575.128l-.01-.642s.15-.364.341-.043l.011.632-.342.053zm-.482.075l-.01-.642s.136-.364.312-.043l.01.632-.312.053zm-2.901-3.4l-2.05.343v-3.026l2.05-.314v2.997zm-.085 4.224l-2.051.285v-3.053l2.05-.257v3.025zm-8.941-.2l-.013-2.553h.101s-.328-1.554 1.325-2.83c0 0 1.009-.544 1.06-.595 0 0 .504.19.643.202.139.013 1.778.127 1.539 2.377l.201.277.038 2.415-4.894.708zm4.374.44l-.009-.61s.118-.344.27-.04l.008.598-.27.051zm-.534.075l-.01-.635s.127-.359.291-.042l.009.623-.29.054zm-.576.128l-.01-.643s.15-.363.342-.042l.01.631-.342.054zm-.481.074l-.01-.642s.136-.364.31-.042l.01.63-.31.054zm-.576.065l-.01-.643s.15-.363.34-.042l.012.631-.342.054zm-.514.103l-.01-.6s.132-.34.3-.04l.01.59-.3.05zm-.523.079l-.01-.618s.13-.349.3-.04l.01.607-.3.05zm-.565.118l-.01-.643s.148-.364.34-.043l.011.632-.341.054zm-.503.02l-.01-.6s.15-.34.341-.04l.012.59-.343.05zm-6.523-.153l-.013-2.521h.101s-.328-1.535 1.324-2.795c0 0 1.01-.537 1.06-.587 0 0 .505.187.644.2.138.013 1.778.124 1.539 2.346l.202.274.037 2.384-4.894.699zm4.374.496l-.009-.608s.122-.345.28-.04l.009.598-.28.05zm-.523.075l-.009-.633s.127-.36.29-.043l.01.623-.291.053zm-.554.075l-.01-.643s.149-.363.341-.042l.01.632-.34.053zm-.535.107l-.01-.642s.136-.364.311-.043l.01.632-.31.053zm-.576.075l-.01-.642s.15-.364.341-.043l.01.631-.341.054zm-.492.086l-.01-.6s.131-.34.3-.04l.01.59-.3.05zm-.514.107l-.009-.617s.132-.35.3-.041l.01.607-.3.051zm-.564.117l-.01-.642s.149-.363.34-.043l.011.632-.341.053zm-.502.022l-.011-.6s.15-.34.342-.04l.01.59-.341.05zm-6.422-.061l-.012-2.52h.1s-.323-1.535 1.3-2.795c0 0 .99-.538 1.04-.587 0 0 .496.187.632.2.136.012 1.747.125 1.511 2.345l.198.275.038 2.383-4.807.699zm4.296.425l-.011-.642s.15-.364.342-.043l.01.631-.341.054zm-.513.043l-.01-.642s.149-.364.341-.043l.01.63-.341.055zm-.502.064l-.01-.643s.149-.364.341-.042l.01.631-.341.054zm-.566.107l-.01-.643s.149-.363.34-.042l.012.632-.342.053zm-.545.075l-.011-.643s.15-.363.342-.042l.01.631-.341.054zm-.534.086l-.01-.601s.148-.34.341-.04l.01.59-.341.05zm-.513.107l-.01-.601s.149-.34.34-.04l.012.59-.342.05zm-.524.064l-.01-.6s.15-.34.342-.04l.01.59-.342.05zm-.501.075l-.011-.6s.15-.34.342-.04l.01.59-.341.05zm-1.987-2.637l-2.08.314v-3.625l2.08-.314v3.625zm-.143 3.397l-2.051.342v-2.997l2.051-.285v2.94zm-4.302-.714l-1.965.285v-2.111l1.965-.372v2.198zm-.454 1.05l-.007-.491s.095-.277.217-.032l.007.481-.217.042zm-.464.085l-.007-.51s.102-.289.234-.034l.007.502-.234.042zm-.484.071l-.008-.516s.12-.294.274-.035l.009.508-.275.043zm-.404.045l-.008-.505s.112-.285.255-.034l.008.496-.255.043zm.44-5.247l.996-.114v1.455l-.997.172v-1.513zm.455-6.222l.683-.109v1.263l-.683.102v-1.256zm9.6-1.529l.684-.13v1.392l-.057.01-.627.093v-1.365zm6.21-1.183l.741-.114v1.497l-.74.125v-1.508zm6.41-.994l.028-.005.741-.122v1.412l-.769.13v-1.415zm10.057 4.705l1.224-.2v1.627l-1.224.228v-1.655zm.313-6.419l.712-.117-.029 1.313-.683.12v-1.316zm-35.98 14.24l-1.453.256.114-3.539 1.453-.257-.114 3.54zm-.114 3.567l-1.424.143.085-2.997 1.396-.171-.057 3.025zm164.216 61.572l-3.646-3.092s-3.646-1.124-4.769-1.405c-1.122-.282-1.402-6.183-1.402-7.026s-1.403-.843-1.403-.843l-2.524-1.124s-.842-4.216-1.683-4.216c-.842 0-1.964-1.405-1.964-1.405l-1.402-3.935-1.963-.561-1.122-1.124h-1.964l-2.524-.563h-3.647l-1.144-3.407s-.31-.226-.428-.31c-.118-.087-.299-.429-.299-.429s-.02-.663-.032-.696c-.01-.032-.17-1.627-.17-1.66 0-.03-.236-1.85-.236-1.85l-.043-.61-.341-2.29-.171-.065s-.332.096-.363.096c-.032 0-.802.61-.802.61v.642h-.106v-.203l-.022-.396-.139-.086-.064-.3s-.16-.042-.192-.053a9.862 9.862 0 0 1-.428-.279l-.373.247-.524.139.022.45-.246.181v-.267l-.502-.31-.353-.15-.491.438v.696l-.107.01v-.738l-.62-.096-.342.257.012 1.091h-.076l-.064-.792-.694-.203-.534.428-.054.868h-.128l.043-.835s-.246-.054-.352-.075c-.107-.022-.353-.086-.407-.075-.053.01-.405.053-.405.053l-.236-.118a3.616 3.616 0 0 1-.181-.096s-.096-.15-.171-.182c-.075-.032-.502.011-.556.011-.053 0-.043.106-.064.171-.021.064-.096.075-.096.075s-.064.15-.107.182c-.042.032-.032.096-.053.128-.022.032.01.268.01.268l-.139-.01s-.01-.15-.02-.215c-.011-.064-.054-.47-.075-.503-.022-.032-.043-.45-.043-.45s-.17-.128-.235-.16c-.064-.032-.32-.086-.32-.086s-.14.086-.182.097c-.043.01-.428.246-.428.214l-.01-.343s-.086-.192-.257-.32c-.17-.13-.406-.3-.438-.3-.031 0-.374.17-.48.246-.107.074-.214.438-.246.364-.032-.075-.01-.257-.032-.364a.306.306 0 0 0-.15-.204c-.064-.042-.15-.128-.203-.16a5.1 5.1 0 0 0-.299-.14s-.032-.352-.021-.385c.01-.032-.032-.396-.032-.396l-.097-.738h-.576l-.01.514-.054-.075s-.3-.043-.31-.086c-.01-.043-.054-.096-.054-.096h-.758l-.053.074s-.331-.01-.396-.01c-.064 0-.053-.075-.053-.075l-.171-.032-.15.085-.203-.01-.107-.44-.127-.042-.567.257.075.182-.096.075h-.428l-.021-.279-.267-.042v-.225l-.14-.097v-.17l-.384-.322-.31.065-.16-.108-.213.033-.096-.279-.417-.16-.524.021s-.053.214-.138.247c-.085.032-.257.128-.32.16l-.214.107-.214-.096s-.288.096-.32.128c-.033.032.085.374.085.374l-.182.108-.042.214s-.097.053-.171.064c-.075.01-.15-.032-.214-.054-.064-.02-.256 0-.342 0-.086 0-.374.589-.374.589s-.245-.043-.245-.096c0-.053.01-.246.01-.246s-.043-.16-.064-.193c-.021-.032-.106-.096-.139-.129a2.22 2.22 0 0 0-.33-.181c-.097-.043-.31 0-.364 0-.054 0-.363.107-.363.107s-.182.235-.225.225a8.545 8.545 0 0 1-.535-.183c-.127-.054-.511-.085-.533-.117-.021-.032-.032-.108-.064-.15-.032-.043-.16-.171-.267-.204-.107-.032-.203.203-.278.172a.651.651 0 0 1-.288-.225c-.118-.15-.342-.32-.407-.407-.063-.086-.352-.289-.416-.342a1.113 1.113 0 0 0-.246-.118l-.021-.118s.075-.032.15-.075c.074-.042.096-.14.096-.246 0-.107-.054-.107-.128-.15-.075-.043-.129-.043-.225-.085-.096-.043 0 0-.053-.108-.054-.107-.257-.128-.257-.128s-.15-.14-.235-.267c-.085-.129-.117-.247-.192-.332-.075-.085-.33-.204-.513-.353-.182-.15-.278-.054-.31-.065-.032-.01-.17.043-.192.075-.02.032-.096.279-.139.31-.042.033-.16.429-.16.429s-.107-.022-.139-.096c-.032-.076-.17.021-.203.01-.032-.01-.085-.075-.107-.117-.021-.043-.032-.354-.021-.493.01-.139-.096-.139-.128-.15a2.54 2.54 0 0 1-.235-.193l-.267-.267s-.15.032-.203.032c-.054 0-.118.171-.118.171l-.117-.064s-.15-.01-.193.043c-.043.054-.15.857-.15.857l-.106.021-.021-.14.021-.224-.075-.375-.16-2.001-.17.107s-.172.042-.204.042-.203.279-.203.279l-.182-.022-.138-.181-.225.032s-.01.92-.042.92c-.033 0-.065-.011-.065-.011l-.02-.096-.15-.022-.043.097-.139-.01-.032-.248-.171-.02-.021-.246-.129-.022-.02-.182-.342.032-.065.172-.342.107-.214.46.033.171-.01.545h-.183s0-.566-.01-.663c-.011-.096-.011-.364-.011-.364l-.427-.128-.31.01-.043.054-.406-.064-.117.17-.032.172-.129.14-.02.567.245.267s-.043.14-.129.15c-.085.01-.726.086-1.709.792-.983.706-.716 1.36-.79 1.541-.075.182-.225 1.595-.225 1.595l-.064-.021s-.074.01-.107 0c-.032-.01-.277 0-.277 0l-.396-.01s-.203.117-.234.107c-.032-.011-.15-.108-.15-.108l-.139.171-.395-.085.02-.257c.012-.064-.105-.343-.138-.62-.032-.28-.31-.868-.694-1.478-.385-.61-1.047-.739-1.154-.781-.107-.043-.609-.236-.62-.278-.01-.043-.266-.31-.33-.429a3.513 3.513 0 0 0-.332-.45c-.053-.053-.299-.106-.384-.192-.086-.086-.182-.3-.363-.856-.182-.556-.823-.546-.855-.556-.032-.011-.086-.065-.128-.108-.043-.043-.353-.171-.385-.182a5.117 5.117 0 0 0-.417-.043c-.042 0-.427.119-.459.119-.032 0-.47.299-.566.363-.096.064-.171.535-.214.589a1.166 1.166 0 0 0-.075.107s-.107.289-.15.31c-.042.021-.224.343-.245.386-.021.042-.214.642-.214.642s-.106.481-.117.514l-.043.15c-.427.406-.247.692-.247.692l-.362.06-.015.196-.007.264-.249-.052s-.007-.287-.014-.347a4.157 4.157 0 0 1-.024-.25c-.007-.113-.007-.143-.067-.173a1.389 1.389 0 0 1-.249-.181c-.052-.053-.052-.098-.113-.129-.06-.03-.21-.09-.24-.112a1.163 1.163 0 0 0-.287-.114c-.045 0-.474.672-.474.672s-.143-.008-.181-.03a1.373 1.373 0 0 0-.279-.053c-.022 0-.24.083-.294.105-.052.023-.248.265-.27.235-.023-.03-.174.49-.174.49s-.323.052-.421.052c-.099 0-.181.152-.234.144-.053-.007-.038-.015-.173-.15-.136-.137-1.01-.914-1.01-.914s-.03-.837-.075-1.057a66.982 66.982 0 0 1-.249-1.561c-.037-.25-.195-.499-.331-1.2-.135-.702-.76-.876-.934-.928-.173-.054-1.167.12-1.619.316-.452.196-.482.974-.52 1.094-.037.122-.225.733-.256.74-.03.008-.03.165-.03.165s-.226.017-.264 0c-.037-.014-.233-.074-.233-.074l-.407-.15c-.06-.416-.21-.884-.21-.884l-.038-.453-.068-.076-.114-.346-.15-.061-.46-.589-.33-.007s-.152-.25-.272-.287c-.12-.037-.655.317-.655.317s-.189-.204-.189-.226c0-.023-.044-.446-.052-.499-.008-.053-.03-.331-.045-.392a3.923 3.923 0 0 1-.053-.393c0-.044-.143-.64-.143-.723 0-.083-.023-.287-.03-.363-.007-.075-.015-.249-.015-.249s-.068-.935-.068-.98c0-.046-.143-.053-.143-.053l-.12.007-.121.015-.068-.052c-.038-.031-.219-.008-.219-.008s-.173-.023-.21-.038c-.039-.015-.046-.068-.076-.158s0-.09 0-.144c0-.053 0-.076-.03-.112-.03-.039-.136-.016-.136-.016s-.052-.06-.067-.127a1.043 1.043 0 0 0-.053-.167c-.015-.038-.045-.015-.12-.046-.076-.03-.234-.075-.294-.12-.06-.046-.166-.039-.241-.069-.075-.03-.414.069-.414.069l.022-.688-.12-.037-.015-.067-.114-.009-.12.038s-.21-.015-.248-.022c-.038-.007-.28-.06-.28-.06H77.9v.196l-.129.045-.022.77s-.068 0-.106-.008c-.037-.007-.15.053-.15.053l-.045.083s-.12-.038-.166-.06a.5.5 0 0 0-.158-.038c-.022 0-.03-.038-.06-.076-.03-.037-.106-.083-.128-.098-.023-.014-.166-.045-.204-.068-.037-.023-.316-.023-.316-.023l-.21-.158-.197.09s-.15 0-.203-.015c-.053-.015-.053-.075-.076-.098-.023-.022-.113-.014-.15-.007-.038.007-.114.068-.114.068s-.142-.083-.173-.099c-.03-.014-.075-.075-.173-.135-.098-.06-.249.045-.278.03-.03-.015-.084-.06-.151-.068-.068-.008-.218.038-.286-.022-.068-.061-.188-.129-.256-.129-.069 0-.098.045-.129.045-.03 0-.12-.06-.187-.06-.068 0-.565.15-.565.15v-.776l-.143-.128.067-.348-.067-2.286-.618-.468-.513.136-.007.188c-.03-.045-.233.076-.233.076l.007.875-.18-.015-.016-1.789c-.022-.052-.43-.52-.43-.52l-.443.045-.098.158.045.891-.43-.294.015-.875-.067-.053v-.747l-.218-.303-.633.137.007 1.124-.46-.362-.053-1.947-.413-.325-.565.106-.038-.566-.406-.287-.557.06-.06-.61-.453-.227c-.233-.136-.557.053-.557.053l-.023 1.66-.075-.008-.015.196-.09-.008-.046-.112-.023-.083.031-.053.007-.204-.083-.053v-.513l.053-.166-.015-1.592s-.045-.03-.045-.053-.023-.31-.023-.31l-.143-.128-.173-.03-.03.045-.105-.12.045-.09-.791-.786-.347-.03.023.166-.475.022-.038.46-.18-.014.015-.106c.241-.007.165-.34.015-.385-.151-.045-.211.28-.211.28-.075 0-.173.06-.173.06l-.158-.098.075-.083-.053-.083-.196-.03.008-.22c.234-.022.158-.384.158-.384l-.196-.03v-.16c-.203-.18-.293.024-.293.024s0 .128-.023.12c-.023-.007-.136-.007-.136-.007l-.226.15-1.596-1.275-.03-2.052 1.062-.211.022-.06-.045-.06-1.047.15.007-3.789.965-.241.045-.06h-.06l-.95.135-.015-1.48.648-.112s.166.038.31.03c.142-.008.134-.143.134-.143l.814-.09.038-.129-2.177-1.857v-1.946l.09-.023v-.06l-.075-.046v-.075l.075-.008.015-.136.03-.06h.136l-.008-.158-.248-.212-.015-1.056.022-.068.054-.023.052-.075.226-.038.022-.06-.33-.295-.008-.165-.325-.25c.385-.656-.067-1.003-.195-1.034-.128-.03-.354-.279-.354-.279l-.053-.898-.052.913c-.023.114-.227.19-.227.19-.82.407-.376 1.063-.376 1.063l-.347.038-.007.271-.286.099.369.354.03 1.042-3.736-3.057.007-.52.061.007.022-.136-.083-.03.009-.068.06-.037.03-.114.166-.045.03-.136-.264-.219v-1.125l.052-.014.008-.09.301-.121-.324-.317-.015-.144-.33-.272c.233-.875-.122-1.026-.242-1.071-.12-.045-.331-.347-.331-.347l-.06-.951-.038.966c.007.076-.196.227-.196.227-.753.316-.392 1.154-.392 1.154l-.346.045.007.265-.339.09.34.317v1.17l-.264.06-.015.128.18.189v.083l.098.15-.06.046.008.083.067.023-.037.377-40.378 6.634v-.167l-.135-.136v-1.139l.309-.166-.332-.25.03-.24-.293-.211.045-.43c.023-.28-.083-.567-.271-.665-.188-.098-.272-.279-.272-.279l-.09-.868-.068.883c-.014.06-.286.227-.286.227-.459.248-.384.52-.384.52l-.022.506-.226.075.007.272-.331.068-.053.09.271.196-.015.114.053.038-.046 1.018-.248.083.007.174.264.317-.098 2.928-2.214.393-.037.165 1.83 1.215v.626l-.076-.015h-.12v.09l.15.137-.03.83-1.296.204-.316.158h.31l1.294-.196-.225 6.158-.129.045-.037.581h-.513l-.074.204h-.151l-.076-.167h-.459l-.331.205-.106-.083-.625-.03-.301.06s-.158-.098-.211-.098c-.052 0-.58.196-.58.196l.15.234-.233.022-.309-.15-.896.022s-.188-.075-.249-.09c-.06-.016-.58-.068-.624-.083-.046-.015-.37.098-.49.143-.12.045-.324.09-.565.211-.241.121-1.077.68-1.092.717-.01.023-.153.21-.316.392v115.722L204 303v-55.791c-.754-.336-27.836-.749-28.198-1.256z" opacity=".7"/>
        <text fill="#FFF" font-family="Lato-Bold, Lato" font-size="16" font-weight="bold">
            <tspan x="55" y="36">KUKATPALLI</tspan>
        </text>
    </g>
</svg>
