<svg xmlns="http://www.w3.org/2000/svg" width="100" height="100" viewBox="0 0 100 100">
    <g fill="none" fill-rule="evenodd">
        <circle cx="50" cy="50" r="50" fill="#3C3CB2"/>
        <g stroke="#FFF" stroke-width=".7">
            <path d="M21.05 72.061c.221-1.468.167-1.564-.862-1.567-2.3-.005-4.6 0-6.899-.002-1.374-.001-1.396-.03-1.396-1.783-.001-3.781-.017-7.563.012-11.344.006-.86-.16-1.26-.903-1.178-.644.073-1.3.06-1.946 0-.714-.065-.984.213-.975 1.182.042 4.02.015 8.04.02 12.06.001 1.658.793 2.631 2.13 2.636.81.002 1.621-.003 2.432-.003h8.386zm44.41.012c0-2.133.03-4.135-.012-6.135-.02-.897.149-1.253.938-1.228 2.217.072 4.436.039 6.654.02 1.637-.013 2.377-.962 2.38-2.99.001-.68.003-1.362 0-2.043-.012-2.36-.928-3.67-2.802-3.706-3.515-.068-7.032-.017-10.55-.025-.42-.001-.647.155-.646.756.011 4.871-.002 9.742.03 14.613.002.248.342.692.538.705 1.103.068 2.21.033 3.47.033zm-41.176-8.1c0 2.35.032 4.702-.016 7.05-.019.881.22 1.125.875 1.062a12.724 12.724 0 0 1 2.026-.01c.51.033.66-.234.651-.835-.019-1.43.007-2.862-.006-4.292-.006-.671.174-.97.757-.957 1.757.04 3.515.04 5.272 0 .612-.014.802.27.784 1.013-.034 1.396.007 2.793-.016 4.19-.01.645.14.927.696.883a12.53 12.53 0 0 1 2.187.01c.654.063.83-.237.824-1.036-.029-3.815-.011-7.63-.014-11.445-.001-2.331-.948-3.601-2.832-3.625-3.489-.044-6.978-.002-10.468-.025-.577-.004-.738.272-.73.966.027 2.35.01 4.7.01 7.051zm52.134-35.848l-.226.259c.108.462.184.943.332 1.385.861 2.585 1.6 5.2 1.53 8.067-.068 2.696-.983 3.985-3.078 4.562-.854.235-1.693.687-2.47 1.205-1.973 1.318-2.86 3.773-3.829 6.113-.21.507-.037.908.425 1.097.785.32 1.175.088 1.552-1.026.965-2.845 2.557-4.7 5.024-5.348 2.216-.582 3.726-2.231 3.99-5.16.138-1.521-.064-3.091-.101-4.64-.009-.341.031-.685.05-1.028.316.117.69.137.94.367a32.765 32.765 0 0 1 2.205 2.242c3.802 4.25 6.56 9.286 7.216 15.794.375 3.723.035 7.339-1.541 10.638-1.68 3.516-4.154 5.725-7.24 6.895-.798.303-1.618.519-2.428.775-.696.221-.879.847-.766 1.643.133.943.642.57 1.073.437.078-.025.16-.034.24-.047 3.588-.606 6.646-2.541 9.067-5.93 3.388-4.744 4.067-10.402 3.117-16.422-.78-4.935-2.708-9.207-5.427-12.888-2.161-2.926-4.676-5.31-7.38-7.381-.742-.569-1.516-1.074-2.275-1.609zM48.613 56.071c-2.165 0-4.33-.002-6.496 0-1.095.002-1.1.006-1.1 1.351-.003 3.852-.002 7.704 0 11.556 0 2.962 0 2.962 2.35 2.929 1.069-.015 1.087-.034 1.088-1.381.002-4.023.013-8.045-.01-12.067-.004-.8.225-1.123.848-1.088.513.03 1.03.045 1.542-.005.754-.075 1.05.252 1.037 1.267-.043 3.544-.034 7.09-.011 10.635.019 3-.39 2.611 2.112 2.639 1.347.015 1.347.002 1.347-1.745 0-3.818-.013-7.636.02-11.453.004-.428.192-1.118.433-1.235 1.592-.773 3.054.561 3.057 2.71.006 2.898.002 5.796.002 8.693 0 3.109 0 3.082 2.506 3.044.705-.01.941-.307.933-1.196-.03-3.51-.011-7.022-.012-10.533-.001-2.906-.939-4.108-3.23-4.119-2.139-.01-4.277-.002-6.416-.002zm29.278 10.787c1.238-.482 2.647-.924 3.991-1.575 2.99-1.448 5.24-5.716 5.313-9.737.071-3.879-.643-7.48-2.269-10.77-.634-1.283-1.342-2.516-2.447-3.445-.158.364-.276.62-.383.882-1.223 3.007-3.065 5.09-5.734 5.761-1.408.355-2.308 1.303-2.929 2.875-.485 1.229-.483 1.28.564 1.754.777.353 1.604.676 2.262 1.27 1.263 1.14 1.61 2.91 1.626 4.774.023 2.677.006 5.356.006 8.211z"/>
            <path d="M77.89 66.858c0-2.855.018-5.534-.005-8.212-.016-1.864-.363-3.633-1.627-4.773-.657-.594-1.484-.917-2.26-1.27-1.048-.474-1.05-.525-.565-1.754.621-1.572 1.52-2.52 2.93-2.875 2.668-.672 4.51-2.754 5.734-5.761.106-.263.224-.518.382-.882 1.105.93 1.813 2.162 2.447 3.445 1.626 3.29 2.34 6.891 2.27 10.77-.074 4.021-2.323 8.289-5.314 9.737-1.344.651-2.753 1.093-3.991 1.575zM48.613 56.071c2.139 0 4.277-.008 6.416.002 2.291.011 3.228 1.213 3.23 4.12 0 3.51-.018 7.022.012 10.532.008.89-.228 1.185-.933 1.196-2.506.038-2.506.065-2.506-3.044 0-2.897.004-5.795-.002-8.692-.004-2.15-1.465-3.484-3.057-2.71-.24.116-.429.806-.433 1.234-.033 3.817-.02 7.635-.02 11.453 0 1.747 0 1.76-1.347 1.745-2.502-.028-2.093.36-2.112-2.64-.023-3.544-.032-7.09.011-10.634.012-1.015-.283-1.342-1.037-1.267-.511.05-1.03.034-1.542.005-.623-.035-.853.288-.848 1.088.023 4.022.012 8.044.01 12.066-.001 1.348-.02 1.367-1.087 1.382-2.35.033-2.351.033-2.352-2.93 0-3.85-.002-7.703 0-11.555.001-1.345.006-1.349 1.1-1.35 2.166-.003 4.332-.001 6.497-.001z"/>
            <path d="M76.418 28.125c.76.535 1.533 1.04 2.275 1.61 2.704 2.07 5.219 4.454 7.38 7.38 2.72 3.681 4.648 7.953 5.427 12.888.95 6.02.271 11.678-3.117 16.422-2.42 3.389-5.48 5.324-9.067 5.93-.08.013-.162.022-.24.047-.431.132-.94.506-1.073-.437-.113-.796.07-1.422.766-1.643.81-.256 1.63-.472 2.428-.775 3.086-1.17 5.56-3.38 7.24-6.895 1.576-3.3 1.916-6.915 1.541-10.638-.655-6.508-3.414-11.544-7.216-15.794a32.718 32.718 0 0 0-2.205-2.242c-.25-.23-.624-.25-.94-.367-.019.343-.059.687-.05 1.028.037 1.549.24 3.119.102 4.64-.265 2.93-1.775 4.579-3.99 5.16-2.468.648-4.06 2.503-5.025 5.348-.377 1.114-.767 1.346-1.552 1.025-.462-.188-.635-.589-.425-1.096.969-2.34 1.856-4.795 3.83-6.113.776-.518 1.615-.97 2.47-1.205 2.094-.577 3.01-1.866 3.076-4.562.071-2.867-.668-5.482-1.53-8.067-.147-.442-.223-.923-.332-1.385l.227-.259zM27.832 57.554c0 2.207-.017 4.312.025 6.416.005.216.359.598.556.603 1.866.047 3.734.05 5.6-.002.205-.005.57-.426.577-.669.05-1.565.05-3.135.006-4.7-.029-1.043-.507-1.619-1.356-1.637-1.753-.037-3.508-.011-5.408-.011zm-3.548 6.419c0-2.35.017-4.7-.01-7.05-.008-.695.154-.97.73-.967 3.49.023 6.98-.019 10.468.025 1.884.024 2.83 1.294 2.832 3.625.003 3.815-.015 7.63.014 11.445.006.799-.17 1.099-.824 1.035a12.55 12.55 0 0 0-2.187-.009c-.556.044-.707-.238-.696-.884.023-1.396-.018-2.793.016-4.189.018-.743-.172-1.027-.784-1.013-1.757.04-3.515.04-5.272 0-.582-.013-.763.286-.757.957.013 1.43-.013 2.861.006 4.292.008.601-.141.868-.651.836a12.722 12.722 0 0 0-2.025.009c-.656.063-.895-.18-.876-1.062.048-2.348.016-4.7.016-7.05z"/>
            <path d="M68.076 63.215v-.017c.73 0 1.46.004 2.19-.002.66-.005 1.155-.457 1.23-1.216.103-1.061.085-2.161-.012-3.225-.073-.795-.579-1.185-1.227-1.193-1.432-.016-2.864-.054-4.294-.014-.171.005-.472.429-.48.67a61.804 61.804 0 0 0 .008 4.29c.01.246.347.647.559.674.669.088 1.35.033 2.026.033zm-2.615 8.858c-1.261 0-2.368.035-3.47-.033-.197-.013-.538-.457-.54-.705-.031-4.87-.018-9.742-.029-14.613 0-.602.225-.757.647-.756 3.517.008 7.034-.043 10.55.025 1.873.037 2.789 1.346 2.8 3.706.004.681.002 1.363.001 2.044-.003 2.027-.743 2.976-2.38 2.99-2.218.018-4.438.051-6.654-.02-.79-.026-.957.33-.939 1.227.043 2 .014 4.002.014 6.135zM21.05 72.061h-8.387c-.811 0-1.622.006-2.432.004-1.337-.005-2.129-.978-2.13-2.636-.005-4.02.022-8.04-.02-12.06-.01-.969.261-1.247.975-1.181.646.059 1.302.072 1.946 0 .742-.084.91.316.903 1.177-.03 3.78-.013 7.563-.012 11.344 0 1.754.022 1.782 1.396 1.783 2.3.002 4.6-.003 6.899.002 1.03.003 1.083.1.861 1.567zM27.832 57.554c1.9 0 3.655-.026 5.408.011.849.018 1.327.594 1.356 1.637a79.11 79.11 0 0 1-.006 4.7c-.007.243-.372.664-.577.67-1.866.051-3.734.048-5.6 0-.197-.004-.551-.386-.556-.602-.042-2.104-.025-4.209-.025-6.416z"/>
            <path d="M68.076 63.215c-.676 0-1.357.055-2.026-.033-.212-.027-.55-.428-.56-.674a61.804 61.804 0 0 1-.007-4.29c.008-.241.309-.665.48-.67 1.43-.04 2.862-.002 4.294.014.648.008 1.154.398 1.227 1.193.097 1.064.115 2.164.011 3.225-.074.76-.57 1.211-1.228 1.216-.73.006-1.46.002-2.191.002v.017z"/>
        </g>
    </g>
</svg>
