<?xml version="1.0" encoding="UTF-8"?>
<svg width="100px" height="100px" viewBox="0 0 100 100" version="1.1" xmlns="http://www.w3.org/2000/svg" xmlns:xlink="http://www.w3.org/1999/xlink">
    <!-- Generator: Sketch 48.2 (47327) - http://www.bohemiancoding.com/sketch -->
    <title>linkedin</title>
    <desc>Created with Sketch.</desc>
    <defs></defs>
    <g id="Page-1" stroke="none" stroke-width="1" fill="none" fill-rule="evenodd">
        <g id="linkedin" fill-rule="nonzero">
            <rect id="Rectangle-path" fill="#0084B1" x="0" y="0" width="99.9410088" height="99.9410088" rx="20"></rect>
            <g id="Group" transform="translate(14.912281, 15.131579)" fill="#FFFFFF">
                <path d="M8.60855263,0.0471491228 C13.1859649,0.050877193 16.9611842,3.83157895 16.9513158,8.43179825 C16.9403509,13.2486842 12.9429825,16.8791667 8.55219298,16.7745614 C4.09868421,16.864693 0.184868421,13.1449561 0.185745614,8.4 C0.185745614,3.79802632 3.97565789,0.0436403509 8.60855263,0.0471491228 Z" id="Shape"></path>
                <path d="M13.4717105,69.6208333 L3.66447368,69.6208333 C2.39166667,69.6208333 1.35986842,68.5890351 1.35986842,67.3162281 L1.35986842,25.4780702 C1.35986842,24.2052632 2.39166667,23.1734649 3.66447368,23.1734649 L13.4717105,23.1734649 C14.7445175,23.1734649 15.7763158,24.2052632 15.7763158,25.4780702 L15.7763158,67.3164474 C15.7760965,68.5890351 14.7445175,69.6208333 13.4717105,69.6208333 Z" id="Shape"></path>
                <path d="M69.9307018,37.8688596 C69.9307018,29.097807 62.8203947,21.9872807 54.0491228,21.9872807 L51.5337719,21.9872807 C46.7350877,21.9872807 42.495614,24.3815789 39.945614,28.0412281 C39.6675439,28.4401316 39.4100877,28.854386 39.1736842,29.2820175 C39.091886,29.2697368 39.0434211,29.2633772 39.0423246,29.2655702 L39.0423246,24.1300439 C39.0423246,23.6017544 38.6140351,23.1732456 38.0855263,23.1732456 L25.8497807,23.1732456 C25.3214912,23.1732456 24.8929825,23.6015351 24.8929825,24.1300439 L24.8929825,68.6644737 C24.8929825,69.1927632 25.3210526,69.6210526 25.8493421,69.6212719 L38.3517544,69.6243421 C38.8802632,69.6245614 39.3087719,69.1960526 39.3087719,68.6675439 L39.3087719,42.9388158 C39.3087719,38.4914474 42.8559211,34.7986842 47.3030702,34.7484649 C49.5732456,34.722807 51.6313596,35.6324561 53.114693,37.1166667 C54.5785088,38.5796053 55.4835526,40.6024123 55.4835526,42.8357456 L55.4835526,68.6708333 C55.4835526,69.1991228 55.9118421,69.6274123 56.4399123,69.6276316 L68.9732456,69.6307018 C69.5017544,69.6309211 69.9302632,69.2024123 69.9302632,68.6739035 L69.9302632,37.8688596 L69.9307018,37.8688596 Z" id="Shape"></path>
            </g>
        </g>
    </g>
</svg>