<svg xmlns="http://www.w3.org/2000/svg" width="100" height="100" viewBox="0 0 100 100">
    <g fill="none" fill-rule="evenodd">
        <circle cx="50" cy="50" r="50" fill="#F00"/>
        <path stroke="#FFF" stroke-width=".7" d="M32.325 50.447c-.61-.074.177-.532.51-1.108.367-.634.296-1.426.682-1.309.385.117.17.56-.093 1.287-.225.619-.875 1.157-1.1 1.13zm15.567-21.97c1.289-.597 1.74.329 1.295.478-.454.152-.458-.695-1.295-.477zm5.289-3.218c.36.107.706.73.781 1.402.008.063.47-.096.473-.243.03-1.083-.895-1.592-1.136-1.57-.557.05-.399.327-.118.41zm-10.318.468c.168-.037.406.25.332.65-.103.555-.058.904.327.905.063 0 .132-.012.156-.156.184-1.107-.39-1.92-.626-1.98-.541-.139-.476.642-.189.581zm2.432 2.619c-1.418-.106-1.515.919-1.046.902.48-.017.185-.811 1.046-.902zm14.213 5.502c.32-.336.485.58 1.345 1.123.683.43 1.346.111 1.518.983.123.626-.267 1.304-.791 1.216-.911-.154-3.017-2.328-2.072-3.322zm-5.266-17.829c-.163.488-.835.895-.409 1.238.427.342.672-.478 1.53-.786.223-.08 1.256.033 1.446-.458.082-.214-.533-.458-.9-.809-.366-.35-.726-.661-1.07-.64-.89.058-.453 1.022-.597 1.455zm-15.73 61.975c1.099 1.73 4.97 9.012-1.815 9.958-2.27.316-5.923-1.32-9.463-2.187-3.18-.778-6.41-1.239-8.219-1.748-1.088-.305-1.543-.696-1.637-1.153-.251-1.208 1.321-2.903 1.4-4.334.08-1.431-.521-2.176-1.014-3.343-.494-1.171-.621-2.048-.227-2.55.307-.39.931-.553 1.947-.454 1.287.128 2.842-.136 3.677-.646 1.406-.86 2.068-2.618 1.435-4.737 0 2.074-.68 2.86-2.384 3.808-1.606.894-4.085.17-5.224 1.16-1.371 1.19.49 4.263.337 6.517-.117 1.734-1.925 3.686-1.119 5.424.812 1.749 4.594 1.94 8.538 2.764 5.605 1.174 8.873 3.216 11.463 3.312 3.778.14 4.357-3.74 10.29-3.792 1.73-.09 3.422-.145 5.113-.166 1.915-.024 3.829-.009 5.793.04 3.948.095 2.59 2.155 5.152 3.472 2.162 1.11 6.047.672 6.976-.215 1.259-1.2 4.636-4.088 7.223-5.392 3.225-1.626 10.8-4.425 5.301-7.838-1.281-.796-4.312-1.637-4.566-7.455-1.147 1.02-1.015 6.44 2.187 7.517 3.575 1.201 5.81 3.213-.838 5.488-4.402 1.505-5.15 1.97-8.634 4.87-3.526 2.937-8.758 1.772-7.845-4.41.477-3.221.75-5.882-.05-8.682-.392-1.366-.587-3.122-.319-4.352.52-2.392 1.814-3.111 3.083-.815.796 1.442 1.076 3.126 3.927 3.264 4.479.214 5.366-4.33 6.797-4.537.955-.138 1.91-2.842 1.182-7.215-.779-4.68-3.532-12.074-7.064-15.823-2.935-3.116-4.784-5.848-5.949-9.747-.977-3.276-1.522-6.464-1.321-9.512.26-3.95-1.929-9.447-5.415-12.032-2.182-1.619-5.603-2.486-8.7-2.452-1.737.019-3.372.272-4.628.955-5.17 2.807-5.892 6.818-5.814 11.395.073 4.3.219 9.206.707 13.873-.578 2.143-3.588 6.206-5.515 8.679-2.591 2.56-3.9 7.51-5.576 11.833-.895 2.305-2.401 3.346-2.528 6.31-.035.83-.007 2.973.785 2.36 3.03-2.345 6.823 3.567 12.552 12.588zm1.096.119a2.754 2.754 0 0 0 1.89-4.647c-1.11-1.089-7.235-5.638-8.833-7.426-.741-.83-1.747-1.237-2.173-2.17-.98-2.146-1.666-5.21-.424-7.408.226-.398.37-.22.198.609-.976 4.692 2.079 8.526 2.75 6.56.465-1.359.035-3.788.283-5.717.44-3.415 3.546-9.971 4.91-10.346-2.103-3.9 2.469-6.953 2.413-10.375-.037-2.226 1.954 2.736 3.955 3.789 2.235 1.174 4.69-2.215 8.177-3.935.986-.487 2.252-1.045 2.167-1.46-.41-2.002-4.58 2.469-8.304 2.62-1.7.067-2.33-.335-2.987-.969-1.985-1.92.202-.318 3.153-.851 1.312-.238 1.753-.457 3.144-1.02 1.392-.562 2.983-1.395 4.558-1.823 1.096-.298 1.005-1.122.578-1.37-.246-.142-.61-.128-.898.37-.676 1.169-3.854 1.845-4.844 2.148-1.274.39-2.683.753-4.554.677-2.842-.115-2.18-1.418-4.213-2.585-.597-.342-.435-1.24.356-2.033.415-.415 1.553-.65 2.117-1.595.08-.133.806-.893 1.376-1.287.197-.137.214-3.609-1.567-3.68-1.513-.062-1.943 1.112-1.88 2.281.064 1.169.683 2.133 1.095 2.129.795-.01.051.869-.384 1.01-.66.215-1.566-2.602-1.462-3.955.109-1.409.842-3.903 2.625-3.855 1.605.043 2.768 2.056 2.71 5.53-.011.588 2.602-.281 3.475.64.623.66-2.137-6.152 4.01-6.621 1.618.31 3.173.849 3.82 4.573-.24.387.402 2.985-.597 3.293-1.22.377-1.973-.054-1.268-1.216.483-1.167.011-4.136-2.457-3.958-2.469.178-2.141 4.56-1.465 4.647.677.087 2.382 1.297 3.572 1.529 3.904.76 1.036 3 1.542 5.71.573 3.062 2.588 2.253 4.4 10.361.379.494 1.878.961 3.341 7.19 1.316 5.603-.547 9.678 2.616 9.344.712-.075 1.753-.275 2.206-1.862 1.184-4.15-.593-9.096-2.387-12.433-1.044-1.946-2.028-3.27-2.547-3.726 2.055 1.216 4.683 5.098 5.29 7.98.796 3.787 1.363 5.389.16 9.392.695.348 2.425 1.084 2.425 1.91-1.802-1.483-7.32-1.746-7.462 1.798-.942.02-1.653.096-2.259.816-2.219 2.634-.159 7.923-.383 10.759-.199 2.496-.89 4.97-1.281 7.476-1.32-.05-1.192-1.017-.768-2.374.374-1.196.977-2.697 1.016-4.135.036-1.302-.107-2.115-.434-2.317-.328-.202-.842.207-1.552 1.351-1.516 2.441-4.798 3.515-7.864 3.9-3.065.384-5.914.079-7.423-1.612-.516-.578-1.371.158-1.473.311-.136.206.5.605.979 1.485.7 1.284 1.365 3.232-.293 4.122.022-4.521-1.409-4.786-2.871-7.55z"/>
    </g>
</svg>
