<?xml version="1.0" encoding="UTF-8"?>
<svg width="228px" height="228px" viewBox="0 0 228 228" version="1.1" xmlns="http://www.w3.org/2000/svg" xmlns:xlink="http://www.w3.org/1999/xlink">
    <!-- Generator: Sketch 48.2 (47327) - http://www.bohemiancoding.com/sketch -->
    <title>Group 4</title>
    <desc>Created with Sketch.</desc>
    <defs>
        <circle id="path-1" cx="75" cy="75" r="75"></circle>
        <filter x="-43.3%" y="-36.7%" width="186.7%" height="186.7%" filterUnits="objectBoundingBox" id="filter-2">
            <feOffset dx="0" dy="10" in="SourceAlpha" result="shadowOffsetOuter1"></feOffset>
            <feGaussianBlur stdDeviation="20" in="shadowOffsetOuter1" result="shadowBlurOuter1"></feGaussianBlur>
            <feComposite in="shadowBlurOuter1" in2="SourceAlpha" operator="out" result="shadowBlurOuter1"></feComposite>
            <feColorMatrix values="0 0 0 0 0.827756415   0 0 0 0 0.892283622   0 0 0 0 0.902210884  0 0 0 0.9 0" type="matrix" in="shadowBlurOuter1"></feColorMatrix>
        </filter>
    </defs>
    <g id="Digitallync-Home-PAGE-NEW-Copy-4" stroke="none" stroke-width="1" fill="none" fill-rule="evenodd" transform="translate(-606.000000, -1088.000000)">
        <g id="Group-7" transform="translate(232.000000, 1037.000000)">
            <g id="Group-61" transform="translate(413.000000, 0.000000)">
                <g id="Group-4" transform="translate(0.000000, 80.000000)">
                    <g id="step-1">
                        <g id="Oval-4">
                            <use fill="black" fill-opacity="1" filter="url(#filter-2)" xlink:href="#path-1"></use>
                            <use fill="#00D7FF" fill-rule="evenodd" xlink:href="#path-1"></use>
                            <circle stroke="#FFFFFF" stroke-width="4" cx="75" cy="75" r="73"></circle>
                        </g>
                    </g>
                    <g id="Group" transform="translate(25.000000, 37.000000)" fill="#FFFFFF">
                        <path d="M75.8220982,20.3201107 L50.0991071,12.2961425 L24.1792411,20.231778 L50.0758929,25.9152637 L51.9738839,25.51676 L65.2017857,22.7408753 L69.4011161,21.7846453 L69.3966518,24.3310885 C68.7924107,24.4900874 68.2848214,25.0547461 68.2837054,25.7280877 C68.2830357,26.16103 68.4756696,26.5496941 68.7839286,26.8144687 L68.1816964,28.5715078 C68.1816964,28.5715078 67.3939732,31.1749758 67.9433036,31.776533 C68.2517857,32.114881 69.7970982,31.780782 69.7970982,31.780782 C69.7970982,31.780782 71.3513393,32.1316531 71.6511161,31.7857018 C72.0765625,31.2939455 71.3375,28.9950577 71.3375,28.9950577 L70.5868304,26.9256114 C70.9770089,26.6657566 71.2301339,26.2290127 71.2308036,25.7332311 C71.2319196,25.0724127 70.7553571,24.5144628 70.1517857,24.3420462 L70.1564732,21.6088744 L75.8220982,20.3201107" id="Fill-27"></path>
                        <path d="M59.5625,35.3574757 C61.1522321,35.3724587 62.7466518,35.6269465 63.8046875,35.8380506 C64.3026786,35.9371174 64.7107143,36.0319353 64.9917411,36.1014834 L65.0118304,24.2156968 L49.4131696,27.6875094 L49.0116071,27.6005184 L33.0421875,24.1566592 L33.0220982,36.0135979 C33.4064732,35.8961936 34.0169643,35.7289205 34.7886161,35.5846809 C36.1368304,35.3322058 38.1959821,35.1168528 40.3504464,35.5236307 C40.4959821,35.5511368 40.6488839,35.5864699 40.8046875,35.6253811 C43.7100446,36.3555239 48.1705357,38.9914179 49.1508929,39.5838064 C49.4832589,39.3543649 50.2430804,38.8400223 51.2051339,38.2554608 C52.8895089,37.2330371 55.2964286,35.9342103 57.1966518,35.5531495 C57.8850446,35.4151715 58.6810268,35.3492015 59.5625,35.3574757" id="Fill-28"></path>
                        <path d="M90.1705357,47.1403937 C90.1705357,48.1464926 89.4727679,49.0548663 88.0834821,49.0548663 L11.5705357,49.0548663 C11.0359375,49.0548663 10.2517857,48.1464926 10.2517857,47.1403937 L10.2517857,4.96810225 C10.2517857,3.96334517 11.0359375,3.29827782 11.9986607,3.29827782 L88.5102679,3.29827782 C89.4727679,3.29827782 90.1705357,3.96334517 90.1705357,4.96810225 L90.1705357,47.1403937 Z M93.5,1.6564068 C93.5,0.86141204 92.8537946,0.217142028 92.0571429,0.217142028 L8.60379464,0.217142028 C7.80625,0.217142028 7.159375,0.86141204 7.159375,1.6564068 L7.159375,50.2233185 C7.159375,51.0183133 7.80625,51.6625833 8.60379464,51.6625833 L92.0571429,51.6625833 C92.8537946,51.6625833 93.5,51.0183133 93.5,50.2233185 L93.5,1.6564068 Z" id="Fill-29"></path>
                        <path d="M62.2140625,69.6791101 L37.2866071,69.6791101 C35.4620536,69.6791101 36.5383929,67.5457064 36.5383929,67.5457064 L63.0685268,67.5457064 C63.0685268,67.5457064 64.2691964,69.6791101 62.2140625,69.6791101 Z M9.64151786,53.5591657 L89.9243304,53.5591657 L94.5607143,65.0041831 L5.61763393,65.0352673 L9.64151786,53.5591657 Z M92.7078125,52.4349917 L7.08973214,52.4586962 L0.318080357,71.5960426 L99.6366071,71.5732326 L92.7078125,52.4349917 Z" id="Fill-30"></path>
                        <path d="M0.0238839286,72.0506767 C0.0238839286,73.709767 1.28861607,75.3688573 2.85,75.3688573 L97.1515625,75.3688573 C98.7118304,75.3688573 99.9772321,73.709767 99.9772321,72.0506767 L0.0238839286,72.0506767" id="Fill-31"></path>
                    </g>
                </g>
            </g>
        </g>
    </g>
</svg>