<?xml version="1.0" encoding="UTF-8"?>
<svg width="228px" height="228px" viewBox="0 0 228 228" version="1.1" xmlns="http://www.w3.org/2000/svg" xmlns:xlink="http://www.w3.org/1999/xlink">
    <!-- Generator: Sketch 48.2 (47327) - http://www.bohemiancoding.com/sketch -->
    <title>step 3</title>
    <desc>Created with Sketch.</desc>
    <defs>
        <circle id="path-1" cx="75" cy="75" r="75"></circle>
        <filter x="-43.3%" y="-36.7%" width="186.7%" height="186.7%" filterUnits="objectBoundingBox" id="filter-2">
            <feOffset dx="0" dy="10" in="SourceAlpha" result="shadowOffsetOuter1"></feOffset>
            <feGaussianBlur stdDeviation="20" in="shadowOffsetOuter1" result="shadowBlurOuter1"></feGaussianBlur>
            <feComposite in="shadowBlurOuter1" in2="SourceAlpha" operator="out" result="shadowBlurOuter1"></feComposite>
            <feColorMatrix values="0 0 0 0 1   0 0 0 0 1   0 0 0 0 1  0 0 0 0.7 0" type="matrix" in="shadowBlurOuter1"></feColorMatrix>
        </filter>
    </defs>
    <g id="Digitallync-Home-PAGE-NEW-Copy-4" stroke="none" stroke-width="1" fill="none" fill-rule="evenodd" transform="translate(-606.000000, -1524.000000)">
        <g id="Group-7" transform="translate(232.000000, 1037.000000)">
            <g id="Group-61" transform="translate(413.000000, 0.000000)">
                <g id="step-3" transform="translate(0.000000, 516.000000)">
                    <g id="Group-5">
                        <g id="Oval-4">
                            <use fill="black" fill-opacity="1" filter="url(#filter-2)" xlink:href="#path-1"></use>
                            <use fill="#5F6E85" fill-rule="evenodd" xlink:href="#path-1"></use>
                            <circle stroke="#FFFFFF" stroke-width="3" cx="75" cy="75" r="73.5"></circle>
                        </g>
                        <g id="shutterstock_763754089" transform="translate(19.000000, 20.000000)">
                            <path d="M86.7899887,49.0418167 C86.7899887,65.6287747 73.466547,79.0751772 57.0312686,79.0751772 C40.5959903,79.0751772 27.2725485,65.6287747 27.2725485,49.0418167 C27.2725485,32.4548586 40.5959903,19.0084561 57.0312686,19.0084561 C73.466547,19.0084561 86.7899887,32.4548586 86.7899887,49.0418167" id="Fill-3" fill="#FFFFFE"></path>
                            <polygon id="Fill-4" fill="#FFFFFE" points="45.9565044 99.4522421 68.1060328 99.4522421 68.1060328 74.5131478 45.9565044 74.5131478"></polygon>
                            <polygon id="Fill-5" fill="#FFFFFE" points="42.641609 81.5082596 71.4209282 81.5082596 71.4209282 75.273486 42.641609 75.273486"></polygon>
                            <path d="M70.7738619,84.8607488 C70.5036577,86.3645521 69.0776624,87.3623398 67.5888174,87.089966 L45.4961589,83.04509 C44.006819,82.7724664 43.0187921,81.3323836 43.2887489,79.8285803 C43.5587057,78.324777 44.984701,77.3267394 46.4737934,77.5993631 L68.5662044,81.6442391 C70.0555443,81.9168628 71.0435712,83.3569456 70.7738619,84.8607488" id="Fill-10" fill="#FFFFFE"></path>
                            <path d="M70.7738619,90.4872518 C70.5036577,91.9910551 69.0776624,92.9888428 67.5888174,92.716469 L45.4961589,88.671593 C44.006819,88.3989694 43.0187921,86.9588866 43.2887489,85.4550833 C43.5587057,83.95128 44.984701,82.9532424 46.4737934,83.2258661 L68.5662044,87.2707421 C70.0555443,87.5431159 71.0435712,88.9834486 70.7738619,90.4872518" id="Fill-11" fill="#FFFFFE"></path>
                            <path d="M70.7738619,95.9616872 C70.5036577,97.4654905 69.0776624,98.4632782 67.5888174,98.1909044 L45.4961589,94.1460284 C44.006819,93.8734047 43.0187921,92.4333219 43.2887489,90.9295186 C43.5587057,89.4257153 44.984701,88.4276777 46.4737934,88.7003014 L68.5662044,92.7451774 C70.0555443,93.0178011 71.0435712,94.4578839 70.7738619,95.9616872" id="Fill-12" fill="#FFFFFE"></path>
                            <path d="M70.1710307,101.287775 C69.9007244,102.788831 68.4726349,103.78546 66.981862,103.513289 L45.4990747,99.6113426 C44.0078064,99.3391718 43.0185001,97.9014813 43.2888064,96.4001762 C43.5591127,94.8988711 44.9869545,93.9024915 46.4779751,94.1746623 L67.9607624,98.0766087 C69.451783,98.3487795 70.441337,99.78647 70.1710307,101.287775" id="Fill-13" fill="#FFFFFE"></path>
                            <path d="M68.558064,96.1826629 C68.558064,102.607481 63.3974582,107.815963 57.0313922,107.815963 C50.665079,107.815963 45.5044732,102.607481 45.5044732,96.1826629 C45.5044732,89.7580947 50.665079,84.5496126 57.0313922,84.5496126 C63.3974582,84.5496126 68.558064,89.7580947 68.558064,96.1826629" id="Fill-14" fill="#FFFFFE"></path>
                            <path d="M60.8735337,106.067185 C60.8735337,108.20876 59.1533148,109.94491 57.0313916,109.94491 C54.9094684,109.94491 53.1890035,108.20876 53.1890035,106.067185 C53.1890035,103.92561 54.9094684,102.18946 57.0313916,102.18946 C59.1533148,102.18946 60.8735337,103.92561 60.8735337,106.067185" id="Fill-15" fill="#FFFFFE"></path>
                            <path d="M47.8595522,44.6904013 C48.0468389,45.249071 47.746981,45.8541509 47.1893548,46.0422871 C46.5191573,46.2681004 45.8292848,46.3806328 45.1421519,46.3806328 C44.1678627,46.3806328 43.1997997,46.155069 42.3019693,45.7084327 C40.7703029,44.9469053 39.6266586,43.6334452 39.081236,42.0098348 C38.8937003,41.4511651 39.1935582,40.8460852 39.7511844,40.657949 C40.3088106,40.4703118 40.9125113,40.7704814 41.100296,41.3289015 C41.4641602,42.412057 42.2272538,43.288612 43.2493609,43.7966296 C44.271219,44.3046472 45.4290592,44.3842433 46.5099424,44.0194487 C47.0680667,43.8318116 47.6715184,44.1319811 47.8595522,44.6904013" id="Fill-16" fill="#30424A"></path>
                            <path d="M54.545016,31.0072055 C54.5321528,29.860783 54.0789732,28.7879518 53.2685931,27.9864573 C52.458213,27.185213 51.3955168,26.7511745 50.2551467,26.7641906 C49.1221977,26.7772068 48.0619752,27.2360261 47.2701477,28.0560436 C46.5839468,28.7669257 46.1713357,29.6750525 46.0817882,30.6507633 C47.0826422,31.1774168 47.9293855,31.9676473 48.5398917,32.9626319 C48.8478658,33.4650053 48.6952392,34.1250743 48.1987701,34.4369613 C47.7020536,34.748598 47.0502369,34.5941564 46.7420154,34.091783 C46.1443725,33.1175742 45.2078343,32.43723 44.1048169,32.176156 C43.0010575,31.9143311 41.8639032,32.1033156 40.901144,32.7085667 C39.9863743,33.2827792 39.3360418,34.1726334 39.0530519,35.1954025 C39.3879892,35.1568546 39.7283686,35.1433378 40.0714691,35.1591074 C41.7676768,35.2362031 43.3330264,35.9771224 44.4785912,37.2456966 C44.872897,37.6822382 44.842718,38.3595787 44.4115542,38.7583235 C43.9803905,39.1570683 43.3110106,39.1267807 42.9167047,38.690239 C42.1520879,37.8439389 41.1081916,37.3493251 39.9762322,37.2977612 C38.8430358,37.2456966 37.7603027,37.6439407 36.9244436,38.4171501 C36.0875951,39.1908602 35.5990417,40.2474212 35.5480838,41.3928425 C35.4971258,42.5382638 35.8899474,43.6348745 36.6545643,44.4809244 C37.0486227,44.917466 37.0184437,45.5948065 36.58728,45.9935513 C36.3841902,46.1812842 36.1286583,46.2738992 35.8738684,46.2738992 C35.5866733,46.2738992 35.3012097,46.1567538 35.0926779,45.9257171 C34.8984934,45.7107003 34.7216247,45.4844195 34.5600929,45.2491276 C34.1338765,45.9287208 33.9023393,46.7159477 33.9023393,47.5404708 C33.9023393,48.6868933 34.3436452,49.7649811 35.1443779,50.5752365 C36.1585899,51.6015099 37.6037183,52.0380516 39.0097624,51.7429354 C39.5824211,51.6230366 40.1417219,51.9949982 40.2604589,52.5739666 C40.3789485,53.152935 40.0113585,53.7196382 39.4391945,53.8397873 C39.0060518,53.9303997 38.5704354,53.974955 38.1385295,53.974955 C36.8160961,53.974955 35.5290364,53.556686 34.4507559,52.7759672 C34.3728347,53.4067499 34.4312138,54.0518003 34.6375193,54.67207 C34.9986777,55.758418 35.756863,56.6375088 36.7715697,57.1473915 C37.7862764,57.6570239 38.9367886,57.7363723 40.010369,57.3709188 C41.0844442,57.0052151 41.9532034,56.2382634 42.4570936,55.211239 C42.5100305,55.1036055 42.5812727,55.0124924 42.6614202,54.9318924 C43.4354371,53.5842201 44.6500177,52.5772206 46.1235935,52.0755982 C47.7329747,51.527418 49.4571351,51.6465658 50.978453,52.4102634 C51.5018853,52.6733399 51.7158593,53.3158872 51.4556274,53.8452941 C51.1956428,54.3752016 50.5606471,54.5909694 50.0377096,54.3283935 C49.0227555,53.8182605 47.8724907,53.7391624 46.7984155,54.1048662 C45.7245877,54.47057 44.8558285,55.2372713 44.3524331,56.2642957 C44.2982593,56.3746827 44.2260276,56.4698007 44.1436538,56.551402 C43.3688949,57.8953195 42.1562931,58.8993154 40.6854384,59.4001869 C40.666391,59.4066949 40.6468489,59.4109502 40.6275541,59.417208 C39.8278109,60.2277137 39.3872471,61.3045499 39.3872471,62.4502215 C39.3872471,63.596644 39.828553,64.6747318 40.6295331,65.4849872 C41.5141238,66.3803482 42.7267255,66.826652 43.9559009,66.7300321 C44.0261537,65.1831126 44.6433388,63.6574695 45.8079509,62.4787569 C46.2213042,62.0604879 46.8909314,62.0604879 47.3040373,62.4785066 C47.7171431,62.8965253 47.7171431,63.5743664 47.3042846,63.9923851 C45.650377,65.666212 45.6501297,68.3890907 47.3040373,70.062417 C48.1050174,70.8731731 49.1704347,71.3197272 50.303631,71.3197272 C51.4363326,71.3197272 52.5017499,70.8731731 53.30273,70.062417 C54.1039574,69.2519113 54.545016,68.1738236 54.545016,67.0274011 C54.545016,65.8809785 54.1039574,64.8031411 53.30273,63.9923851 C52.8896241,63.5746167 52.8896241,62.8965253 53.30273,62.4785066 C53.6396462,62.1375835 54.145268,62.0795115 54.545016,62.2945283 L54.545016,59.0129564 C54.5403159,59.0172116 54.5358633,59.0217172 54.5309159,59.0259725 C53.3578932,60.0782783 51.8754122,60.646233 50.3209468,60.646233 C50.1915729,60.646233 50.0617043,60.642228 49.9315884,60.6342181 C49.3485402,60.598674 48.9040185,60.091795 48.9388975,59.5015626 C48.9742712,58.9113303 49.4781614,58.4615221 50.0584885,58.4968159 C51.1894586,58.5649004 52.2793654,58.1844283 53.1268508,57.4237344 C53.9706257,56.6672958 54.4725369,55.6255031 54.545016,54.488342 L54.545016,43.5745497 C54.5593633,41.207863 52.6684764,39.270459 50.3298521,39.255941 C49.7453197,39.2524366 49.2745769,38.7703384 49.2782874,38.1788545 C49.281998,37.5878711 49.752246,37.1095276 50.3427153,37.1150344 C51.9572912,37.1250468 53.4286407,37.7475693 54.545016,38.7615775 L54.545016,31.0072055" id="Fill-17" fill="#30424A"></path>
                            <path d="M75.1318794,42.0098348 C74.5864492,43.6334452 73.4425401,44.9469053 71.9113508,45.7084327 C71.0130098,46.155069 70.0449335,46.3806328 69.071129,46.3806328 C68.3834885,46.3806328 67.6941046,46.2683499 67.0233998,46.0422871 C66.466015,45.8541509 66.166402,45.249071 66.3536912,44.6904013 C66.5414786,44.1319811 67.1449386,43.8313125 67.7033196,44.0194487 C68.7839687,44.3839938 69.9420739,44.3048967 70.963946,43.7966296 C71.9858182,43.288612 72.7489223,42.412057 73.1127915,41.3289015 C73.3005789,40.7704814 73.905035,40.4703118 74.4621708,40.657949 C75.0195556,40.8460852 75.3196667,41.4511651 75.1318794,42.0098348" id="Fill-18" fill="#30424A"></path>
                            <path d="M80.1601979,47.5404942 C80.1601979,46.7159719 79.9284189,45.9289961 79.5022126,45.2491532 C79.3404373,45.4841946 79.1638202,45.7107255 78.9696404,45.9257421 C78.7611135,46.1567785 78.4754093,46.2739238 78.1884684,46.2739238 C77.9336846,46.2739238 77.6784062,46.181309 77.4750739,45.9935762 C77.043673,45.5948318 77.0134947,44.917492 77.4080385,44.4809508 C78.1721425,43.6349018 78.5652021,42.5382921 78.5144927,41.392872 C78.4632886,40.2474518 77.9744995,39.1908918 77.1381656,38.4174328 C76.3015844,37.6437235 75.2166508,37.246481 74.0862025,37.2977946 C72.9542699,37.3493586 71.9099039,37.8439718 71.1458,38.6902711 C70.7515035,39.1268124 70.0823869,39.1570999 69.6507387,38.7583555 C69.2198326,38.3596111 69.189407,37.6822713 69.5837034,37.2457301 C70.7297356,35.9771572 72.2945531,35.2362386 73.9914625,35.159143 C74.3343074,35.1436237 74.6744314,35.1568902 75.0091134,35.1956883 C74.7263776,34.1729202 74.0760606,33.2828166 73.1613127,32.7086047 C72.1988237,32.1036045 71.0612018,31.9148705 69.9577161,32.1761945 C68.8549724,32.4372682 67.9182091,33.1176118 67.3208278,34.0918196 C67.0126137,34.5941925 66.3603177,34.748634 65.8638605,34.4369976 C65.3674032,34.1251109 65.2150276,33.4650425 65.5229944,32.96292 C66.1329913,31.967686 66.9799618,31.1774562 67.9807919,30.6508033 C67.8912466,29.6748432 67.4788927,28.7667173 66.7924607,28.0560862 C66.0004048,27.2360695 64.9404548,26.7772506 63.8075329,26.7642344 C62.6716425,26.7502171 61.6045191,27.1855068 60.7944057,27.9864999 C59.9840449,28.7879936 59.5308761,29.8608238 59.5180132,31.0069949 C59.5180132,31.0082464 59.5175185,31.009498 59.5175185,31.0104992 L59.5175185,38.7618599 C60.6341145,37.7476023 62.1054289,37.1250805 63.7202138,37.1150681 C63.72244,37.1150681 63.7246663,37.1150681 63.7266452,37.1150681 C64.3077006,37.1150681 64.7811531,37.5899068 64.7846162,38.1788871 C64.7880793,38.7703704 64.3173477,39.2524681 63.7330766,39.2559725 C61.394508,39.2704905 59.5034188,41.2078926 59.5175185,43.574577 L59.5175185,54.4846039 C59.5892537,55.6232657 60.0918951,56.6665592 60.9356499,57.4237481 C61.7836098,58.1844412 62.873738,58.5654136 64.0041863,58.4968285 C64.5844997,58.4615348 65.0886252,58.9113425 65.1237507,59.5015743 C65.1586289,60.0918061 64.7143652,60.5986845 64.1310835,60.6342286 C64.0009706,60.6422385 63.8706104,60.6462435 63.741487,60.6462435 C62.1868113,60.6462435 60.7051077,60.0785396 59.5318655,59.0259846 C59.5269183,59.0217293 59.5224658,59.0169734 59.5175185,59.0124678 L59.5175185,62.2945372 C59.9175043,62.0795206 60.4233614,62.1378429 60.7600222,62.4785153 C61.1731182,62.8965336 61.1731182,63.5746243 60.7597749,63.9923923 C59.9588139,64.8031475 59.5175185,65.8809839 59.5175185,67.0274053 C59.5175185,68.1738267 59.9588139,69.2519134 60.7600222,70.0624183 C61.5609832,70.8731735 62.6263751,71.3197272 63.7590497,71.3197272 C64.8919717,71.3197272 65.9573636,70.8731735 66.758572,70.0624183 C68.4121928,68.3890936 68.4121928,65.6662176 66.758572,63.9923923 C66.3452286,63.574374 66.3452286,62.8965336 66.758572,62.4785153 C67.1714206,62.0602467 67.841774,62.060497 68.2546227,62.4787656 C69.4192071,63.657477 70.0363775,65.1831186 70.1066285,66.7300366 C71.3352799,66.8261558 72.5483475,66.380353 73.4331645,65.4849929 C74.2341255,64.6747383 74.6754208,63.5966516 74.6754208,62.4502302 C74.6754208,61.30481 74.2348676,60.2277246 73.434896,59.4172197 C73.4156017,59.4109619 73.39606,59.4067066 73.3770131,59.4001986 C71.9061934,58.8993276 70.693868,57.8955831 69.9196222,56.5519171 C69.8367556,56.4700656 69.764773,56.3749477 69.7103532,56.2643105 C69.2067224,55.2372871 68.3377366,54.4705865 67.2639343,54.1048831 C66.1901321,53.7389294 65.0396473,53.8182778 64.0249648,54.3284103 C63.5025344,54.5909858 62.8670592,54.3752183 62.6073282,53.8453113 C62.3471024,53.3159049 62.560824,52.6733582 63.0842438,52.410282 C64.6052781,51.6465852 66.3293974,51.5274374 67.939235,52.0756171 C69.4125283,52.577239 70.6268326,53.5842376 71.4013258,54.9319085 C71.481224,55.0125084 71.5529592,55.1036214 71.6058949,55.2112549 C72.1092784,56.2382782 72.9780168,57.0052291 74.0520664,57.3709326 C75.1253739,57.7363857 76.2758586,57.6570373 77.2910359,57.1474054 C78.3057184,56.6375232 79.0633909,55.7584333 79.4247881,54.6720864 C79.6310887,54.051567 79.689219,53.4067675 79.611547,52.7757352 C78.5332923,53.5564531 77.2457685,53.974972 75.9238613,53.974972 C75.4917183,53.974972 75.0563597,53.9304168 74.6232273,53.8398045 C74.0513243,53.7196555 73.6832483,53.1529528 73.8019825,52.573985 C73.9207167,51.9950172 74.4797568,51.6233063 75.0526492,51.7429546 C76.4576704,52.0380705 77.9037537,51.6015293 78.9174468,50.5752569 C79.7189025,49.7650023 80.1601979,48.6869156 80.1601979,47.5404942" id="Fill-19" fill="#30424A"></path>
                            <polyline id="Fill-20" fill="#FFFFFE" points="45.2091541 83.0289361 62.9830126 86.2223567 43.6963485 83.6303288 45.2091541 83.0289361"></polyline>
                            <polyline id="Fill-21" fill="#FFFFFE" points="45.2091541 88.5033715 62.9830126 91.6967921 43.6963485 89.1049684 45.2091541 88.5033715"></polyline>
                            <polyline id="Fill-22" fill="#FFFFFE" points="45.2091541 94.1298744 62.9830126 97.3232951 43.6963485 94.7314714 45.2091541 94.1298744"></polyline>
                            <polyline id="Fill-23" fill="#FFFFFE" points="17.4785394 19.0084561 28.477965 29.5011238 28.477965 27.1366001 17.4785394 19.0084561"></polyline>
                            <polyline id="Fill-24" fill="#FFFFFE" points="21.892389 43.6434151 0 39.8417239 22.9029137 41.1422306 21.892389 43.6434151"></polyline>
                            <polyline id="Fill-25" fill="#FFFFFE" points="23.8069761 56.5691653 3.16421834 66.1494271 23.1301766 60.6059632 23.8069761 56.5691653"></polyline>
                            <polyline id="Fill-26" fill="#FFFFFE" points="29.5466845 70.7114566 16.8758311 83.4851391 31.3408293 73.4662414 29.5466845 70.7114566"></polyline>
                            <polyline id="Fill-27" fill="#FFFFFE" points="38.3177999 20.2249973 34.6557247 5.626503 40.5321301 19.0058548 38.3177999 20.2249973"></polyline>
                            <polyline id="Fill-28" fill="#FFFFFE" points="53.7727855 16.1191707 52.4356182 0 55.2984824 16.1191707 53.7727855 16.1191707"></polyline>
                            <path d="M69.0100567,19.1605237 C68.9862671,18.7931603 80.0095208,2.73721767 80.0095208,2.73721767 L71.8049397,19.1605237 L69.0100567,19.1605237" id="Fill-29" fill="#FFFFFE"></path>
                            <polyline id="Fill-30" fill="#FFFFFE" points="82.1189997 26.0865425 97.6387373 17.6398472 82.906427 28.4366503 82.1189997 26.0865425"></polyline>
                            <polyline id="Fill-31" fill="#FFFFFE" points="89.80353 39.1783053 107.131392 36.8003709 89.80353 41.0582651 89.80353 39.1783053"></polyline>
                            <polyline id="Fill-32" fill="#FFFFFE" points="90.5915147 53.223677 108.035455 57.9377741 89.80353 55.0249625 90.5915147 53.223677"></polyline>
                            <polyline id="Fill-33" fill="#FFFFFE" points="84.1135904 69.0387124 97.6387373 83.0289361 83.3244162 72.668743 84.1135904 69.0387124"></polyline>
                        </g>
                    </g>
                </g>
            </g>
        </g>
    </g>
</svg>