<?xml version="1.0" encoding="UTF-8"?>
<svg width="228px" height="228px" viewBox="0 0 228 228" version="1.1" xmlns="http://www.w3.org/2000/svg" xmlns:xlink="http://www.w3.org/1999/xlink">
    <!-- Generator: Sketch 48.2 (47327) - http://www.bohemiancoding.com/sketch -->
    <title>Group 6</title>
    <desc>Created with Sketch.</desc>
    <defs>
        <circle id="path-1" cx="75" cy="75" r="75"></circle>
        <filter x="-43.3%" y="-36.7%" width="186.7%" height="186.7%" filterUnits="objectBoundingBox" id="filter-2">
            <feOffset dx="0" dy="10" in="SourceAlpha" result="shadowOffsetOuter1"></feOffset>
            <feGaussianBlur stdDeviation="20" in="shadowOffsetOuter1" result="shadowBlurOuter1"></feGaussianBlur>
            <feComposite in="shadowBlurOuter1" in2="SourceAlpha" operator="out" result="shadowBlurOuter1"></feComposite>
            <feColorMatrix values="0 0 0 0 0.82745098   0 0 0 0 0.894117647   0 0 0 0 0.901960784  0 0 0 0.7 0" type="matrix" in="shadowBlurOuter1"></feColorMatrix>
        </filter>
    </defs>
    <g id="Digitallync-Home-PAGE-NEW-Copy-4" stroke="none" stroke-width="1" fill="none" fill-rule="evenodd" transform="translate(-606.000000, -1306.000000)">
        <g id="Group-7" transform="translate(232.000000, 1037.000000)">
            <g id="Group-61" transform="translate(413.000000, 0.000000)">
                <g id="Group-6" transform="translate(0.000000, 298.000000)">
                    <g id="step-2">
                        <g id="Oval-4">
                            <use fill="black" fill-opacity="1" filter="url(#filter-2)" xlink:href="#path-1"></use>
                            <use fill="#FFFFFF" fill-rule="evenodd" xlink:href="#path-1"></use>
                            <circle stroke="#8DEBFD" stroke-width="3" cx="75" cy="75" r="73.5"></circle>
                        </g>
                    </g>
                    <g id="Group" transform="translate(23.000000, 15.000000)">
                        <path d="M61.0289249,8.73529125 C60.949112,8.73529125 60.868052,8.72718165 60.786992,8.70997947 C60.1607099,8.57899718 59.760897,7.97249756 59.8938354,7.35567664 L61.0441392,2.02472194 C61.1773271,1.40790101 61.7936325,1.01372541 62.4186675,1.14519919 C63.0449495,1.27618149 63.4447624,1.8826811 63.311824,2.49950203 L62.1615202,7.83045673 C62.045542,8.3674104 61.5646692,8.73529125 61.0289249,8.73529125" id="Fill-4" fill="#FFFFFF"></path>
                        <path d="M70.067656,11.647055 C69.9134479,11.647055 69.7567959,11.6150389 69.606498,11.5478051 C69.0336552,11.2906912 68.7758271,10.6141664 69.0309669,10.0366452 L71.235092,5.04705939 C71.4897431,4.46978451 72.160585,4.20971527 72.7344054,4.46682917 C73.3074925,4.72394307 73.5653207,5.40046787 73.3101808,5.97798903 L71.1058113,10.9675749 C70.9178778,11.3938815 70.5024202,11.647055 70.067656,11.647055" id="Fill-5" fill="#FFFFFF"></path>
                        <path d="M21.8423156,94.1843582 C21.6097837,94.1843582 21.3750419,94.1133074 21.1727121,93.9652849 C20.6627135,93.5932552 20.5497624,92.8760863 20.9200455,92.3639286 L24.1209807,87.9378105 C24.4915093,87.425406 25.205311,87.3116755 25.7148186,87.6839519 C26.2248172,88.0562284 26.3377683,88.7733972 25.9674852,89.2855549 L22.76655,93.7116731 C22.5431033,94.0205466 22.1951649,94.1843582 21.8423156,94.1843582" id="Fill-6" fill="#FFFFFF"></path>
                        <path d="M78.2417619,16.4626643 C78.0092292,16.4626643 77.7747322,16.3913677 77.5719107,16.2435938 C77.062156,15.8713221 76.948959,15.1544092 77.3194888,14.642258 L80.5201887,10.2159497 C80.890473,9.7035518 81.6037858,9.59006937 82.1140317,9.9623411 C82.624032,10.3346128 82.7372289,11.0515258 82.3666991,11.5636769 L79.1659992,15.9899853 C78.9425518,16.2986081 78.5946123,16.4626643 78.2417619,16.4626643" id="Fill-7" fill="#FFFFFF"></path>
                        <path d="M13.9074673,87.0169397 C13.5926988,87.0169397 13.2794152,86.8895441 13.0524948,86.6386879 C12.6273594,86.1696851 12.6654682,85.4468749 13.1376209,85.0248462 L17.2160005,81.3751342 C17.6876583,80.9526136 18.4151891,80.990488 18.840077,81.4594907 C19.2649649,81.9287394 19.2271036,82.6513037 18.754951,83.0735783 L14.6765714,86.7232904 C14.4568273,86.9200403 14.1816524,87.0169397 13.9074673,87.0169397" id="Fill-8" fill="#FFFFFF"></path>
                        <path d="M85.3018613,22.7341554 C84.9873361,22.7341554 84.6738007,22.6067622 84.4468773,22.3559107 C84.0217362,21.8869167 84.0598455,21.1643659 84.5320045,20.7418532 L88.6104391,17.0922093 C89.0821032,16.6696966 89.8096439,16.7078162 90.2345376,17.1770561 C90.6594312,17.6460501 90.6213219,18.3686009 90.1494104,18.7911136 L86.0707283,22.4405116 C85.8512288,22.6372579 85.5758026,22.7341554 85.3018613,22.7341554" id="Fill-9" fill="#FFFFFF"></path>
                        <path d="M7.75313876,78.5056303 C7.35565808,78.5056303 6.96955519,78.2996976 6.7565926,77.9310954 C6.43900381,77.3815296 6.6274794,76.6789357 7.17707621,76.3617549 L11.927799,73.6203533 C12.4778905,73.302678 13.1805928,73.4913054 13.4979343,74.0408713 C13.8155231,74.5901899 13.6270475,75.293031 13.0772033,75.6102118 L8.32672788,78.3516134 C8.14567258,78.4561867 7.94804528,78.5056303 7.75313876,78.5056303" id="Fill-10" fill="#FFFFFF"></path>
                        <path d="M90.8969703,30.4615284 C90.4999793,30.4615284 90.1133768,30.2555868 89.9006589,29.8869685 C89.5833134,29.3373787 89.7717914,28.6347542 90.3213952,28.3175595 L95.0721781,25.5760384 C95.6212871,25.2588438 96.3249877,25.4469849 96.6423332,25.9965748 C96.9596787,26.5461646 96.7712007,27.2487891 96.2215969,27.5659837 L91.470814,30.3075048 C91.2897564,30.4120827 91.0921266,30.4615284 90.8969703,30.4615284" id="Fill-11" fill="#FFFFFF"></path>
                        <path d="M3.38471537,68.8744117 C2.90139805,68.8744117 2.45212758,68.5628742 2.29447584,68.0726021 C2.09882977,67.4632567 2.42844281,66.8087284 3.03067741,66.6107723 L8.2344186,64.8998124 C8.83615977,64.7018563 9.48329674,65.0353612 9.67918952,65.6447066 C9.87483559,66.2540519 9.54522255,66.9085802 8.94298794,67.1065363 L3.73924676,68.8174962 C3.62156306,68.8559392 3.50215235,68.8744117 3.38471537,68.8744117" id="Fill-12" fill="#FFFFFF"></path>
                        <path d="M94.6979017,39.0848288 C94.2145843,39.0848288 93.7650671,38.7732775 93.6076621,38.2829838 C93.4120161,37.6736115 93.7416291,37.019304 94.3438637,36.8210895 L99.5478516,35.1103037 C100.149593,34.9120892 100.796483,35.2461081 100.992376,35.8552307 C101.188022,36.464603 100.858409,37.1189105 100.256174,37.317125 L95.0521863,39.0279108 C94.9347493,39.066605 94.8150919,39.0848288 94.6979017,39.0848288" id="Fill-13" fill="#FFFFFF"></path>
                        <path d="M1.14318843,58.4592568 C0.564917491,58.4592568 0.0681660059,58.01441 0.00634913784,57.4158477 C-0.05965453,56.7756595 0.396460369,56.2021732 1.02497291,56.1349697 L6.45697626,55.5539606 C7.08450367,55.4867571 7.64873652,55.9509124 7.71498647,56.5908499 C7.78099013,57.2310382 7.32487524,57.8045245 6.6963627,57.871728 L1.26435934,58.4529878 C1.22372276,58.4572507 1.18333245,58.4592568 1.14318843,58.4592568" id="Fill-14" fill="#FFFFFF"></path>
                        <path d="M96.7087106,48.3800746 C96.1304365,48.3800746 95.6336823,47.9352791 95.5718651,47.3365352 C95.5058611,46.6966715 95.9619785,46.1232514 96.5907407,46.0560557 L102.022527,45.4748629 C102.647595,45.4071658 103.214294,45.871769 103.280544,46.5116326 C103.346302,47.151747 102.890431,47.7251671 102.261669,47.7923628 L96.8296359,48.3735556 C96.7892454,48.3780687 96.7486086,48.3800746 96.7087106,48.3800746" id="Fill-15" fill="#FFFFFF"></path>
                        <path d="M6.57814717,48.3800746 C6.53800315,48.3800746 6.49761285,48.3780687 6.45697626,48.3735555 L1.02497291,47.7923542 C0.396460369,47.7251575 -0.05965453,47.151729 0.00634913784,46.5116052 C0.0723528057,45.8717322 0.636831935,45.4073729 1.26435934,45.4748203 L6.6963627,46.0560216 C7.32487524,46.1232183 7.78099013,46.6966469 7.71498647,47.3365199 C7.6531696,47.9352726 7.15641811,48.3800746 6.57814717,48.3800746" id="Fill-16" fill="#FFFFFF"></path>
                        <path d="M102.143699,58.4592568 C102.103308,58.4592568 102.063164,58.4572509 102.022527,58.4529883 L96.5907407,57.8717711 C95.9619785,57.8045726 95.5058611,57.2311285 95.5718651,56.5909873 C95.6378692,55.9510968 96.2040753,55.4857219 96.8296359,55.5541741 L102.261669,56.1351405 C102.890431,56.202339 103.346302,56.7757832 103.280544,57.4159244 C103.218727,58.0144427 102.721727,58.4592568 102.143699,58.4592568" id="Fill-17" fill="#FFFFFF"></path>
                        <path d="M8.58894999,39.0848288 C8.47151301,39.0848288 8.35210229,39.0666043 8.2344186,39.0279084 L3.03067741,37.317052 C2.42844281,37.1188293 2.09882977,36.4644948 2.29447584,35.8550974 C2.49036862,35.2456999 3.13725888,34.9124162 3.73924676,35.1101396 L8.94298794,36.820996 C9.54522255,37.0192187 9.87483559,37.6735532 9.67918952,38.2829507 C9.52178449,38.7732647 9.07226731,39.0848288 8.58894999,39.0848288" id="Fill-18" fill="#FFFFFF"></path>
                        <path d="M99.902135,68.8744117 C99.7849448,68.8744117 99.6652874,68.8559387 99.5476038,68.8174949 L94.3436184,67.1064948 C93.7416308,66.908534 93.412018,66.2539904 93.6076639,65.6446307 C93.8033099,65.035271 94.4489663,64.7020079 95.0524341,64.899719 L100.256419,66.6107191 C100.858407,66.8086799 101.18802,67.4632236 100.992374,68.0725833 C100.834969,68.5628669 100.385452,68.8744117 99.902135,68.8744117" id="Fill-19" fill="#FFFFFF"></path>
                        <path d="M12.5013881,30.4615284 C12.3064816,30.4615284 12.1088543,30.4120837 11.927799,30.3075082 L7.17707621,27.5660469 C6.6274794,27.2488591 6.43900381,26.5460027 6.7565926,25.9966721 C7.07393406,25.4470943 7.77688372,25.25871 8.32672788,25.5761449 L13.0772033,28.3176063 C13.6270475,28.634794 13.8155231,29.3374032 13.4979343,29.886981 C13.285219,30.2555913 12.8986214,30.4615284 12.5013881,30.4615284" id="Fill-20" fill="#FFFFFF"></path>
                        <path d="M95.6460218,78.5056303 C95.4506181,78.5056303 95.2532356,78.456185 95.0721781,78.3516083 L90.3213952,75.6101166 C89.7717914,75.2929253 89.5833134,74.5903083 89.9006589,74.0407244 C90.2180043,73.4908932 90.9214576,73.3030013 91.470814,73.6201926 L96.2215969,76.3616843 C96.7712007,76.6788756 96.9596787,77.3814926 96.6423332,77.9310765 C96.4296153,78.2996908 96.0430128,78.5056303 95.6460218,78.5056303" id="Fill-21" fill="#FFFFFF"></path>
                        <path d="M17.9851045,22.7341554 C17.7109194,22.7341554 17.4357445,22.6372563 17.2160005,22.4405067 L13.1376209,18.7910484 C12.6654682,18.3685287 12.6273594,17.645966 13.0524948,17.1769642 C13.4773827,16.7077166 14.2046661,16.6698423 14.6765714,17.092116 L18.754951,20.7418202 C19.2271036,21.1643399 19.2649649,21.8869027 18.840077,22.3559044 C18.6131567,22.6067601 18.2996255,22.7341554 17.9851045,22.7341554" id="Fill-22" fill="#FFFFFF"></path>
                        <path d="M89.3795535,87.0169397 C89.1053647,87.0169397 88.8301861,86.9200417 88.6104391,86.7232946 L84.5320045,83.0736352 C84.0598455,82.6513666 84.0217362,81.9288127 84.4468773,81.4595708 C84.8715235,80.9903289 85.5988167,80.952701 86.0707283,81.3752155 L90.1494104,85.0248749 C90.6213219,85.4468975 90.6594312,86.1696973 90.2345376,86.6386933 C90.0076142,86.8895459 89.6940788,87.0169397 89.3795535,87.0169397" id="Fill-23" fill="#FFFFFF"></path>
                        <path d="M25.0452151,16.4626643 C24.6923658,16.4626643 24.3444274,16.2988522 24.1209807,15.9899777 L20.9200455,11.563599 C20.5497624,11.0514397 20.6627135,10.3345154 21.1727121,9.96223777 C21.6824652,9.59020683 22.3960214,9.70344436 22.76655,10.2158504 L25.9674852,14.6422291 C26.3377683,15.1543884 26.2248172,15.8713127 25.7148186,16.2435903 C25.5124888,16.3913666 25.2775015,16.4626643 25.0452151,16.4626643" id="Fill-24" fill="#FFFFFF"></path>
                        <path d="M81.4444261,94.1843582 C81.0913301,94.1843582 80.7433906,94.0205466 80.5201887,93.7116731 L77.3194888,89.2855549 C76.948959,88.7733972 77.062156,88.0562284 77.5719107,87.6839519 C78.0814199,87.3116755 78.7954694,87.425406 79.1659992,87.9378105 L82.3666991,92.3639286 C82.7372289,92.8760863 82.624032,93.5932552 82.1140317,93.9652849 C81.9117013,94.1133074 81.6769587,94.1843582 81.4444261,94.1843582" id="Fill-25" fill="#FFFFFF"></path>
                        <path d="M33.2189961,11.647055 C32.7842632,11.647055 32.3693243,11.3938779 32.1809156,10.967565 L29.9767053,5.97790694 C29.7215838,5.40037741 29.979149,4.72384283 30.5521948,4.4667252 C31.1252406,4.20985386 31.7965229,4.46968058 32.0516443,5.04696382 L34.2558547,10.0366219 C34.5109762,10.6141514 34.253411,11.290686 33.6803652,11.5478037 C33.5303225,11.6150384 33.3734374,11.647055 33.2189961,11.647055" id="Fill-26" fill="#FFFFFF"></path>
                        <path d="M42.2579012,8.73529125 C41.7220695,8.73529125 41.2411181,8.36740288 41.125121,7.83043823 L39.9751283,2.49937453 C39.8419188,1.88254099 40.2415475,1.27602898 40.8679317,1.14504401 C41.4953139,1.01405904 42.1097243,1.40799695 42.2426844,2.02458473 L43.3929265,7.35564843 C43.5261361,7.97248196 43.1262579,8.57899398 42.5001231,8.70997895 C42.4188004,8.72718148 42.3377271,8.73529125 42.2579012,8.73529125" id="Fill-27" fill="#FFFFFF"></path>
                        <path d="M51.5875945,7.72737302 C50.9695072,7.72737302 50.46844,7.2164216 50.46844,6.58638731 L50.46844,1.14098572 C50.46844,0.510951426 50.9695072,0 51.5875945,0 C52.205441,0 52.7065083,0.510951426 52.7065083,1.14098572 L52.7065083,6.58638731 C52.7065083,7.2164216 52.205441,7.72737302 51.5875945,7.72737302" id="Fill-28" fill="#FFFFFF"></path>
                        <path d="M54.8083071,17.6945643 C54.7789636,17.6945643 54.7501132,17.6955514 54.7207697,17.6957982 L54.7207697,94.2963491 L68.8909781,94.2963491 L68.8909781,80.6704284 C80.0923125,75.3794795 87.8441804,63.9748196 87.8441804,50.7565783 C87.8441804,32.4968821 73.0535662,17.6945643 54.8083071,17.6945643" id="Fill-29" fill="#FFFFFF"></path>
                        <path d="M52.2029429,119.046341 C55.4476367,119.046341 58.0778722,116.388979 58.0778722,113.110823 L46.3280136,113.110823 C46.3280136,116.388979 48.9582491,119.046341 52.2029429,119.046341" id="Fill-30" fill="#EB8B2D"></path>
                        <path d="M60.0596198,112.067758 L44.346512,112.067758 C42.5641795,112.067758 41.0622582,110.917341 40.6072051,109.3568 L63.7986807,109.3568 C63.3438736,110.917341 61.8419522,112.067758 60.0596198,112.067758 Z M52.2031889,117.96815 C49.8388804,117.96815 47.8605061,116.280032 47.4025013,114.041876 L57.0033845,114.041876 C56.5453797,116.280032 54.5672514,117.96815 52.2031889,117.96815 Z M40.462572,102.677619 L63.9433138,102.677619 L63.9433138,99.9661673 L40.462572,99.9661673 L40.462572,102.677619 Z M40.462572,107.382682 L63.9433138,107.382682 L63.9433138,104.651737 L40.462572,104.651737 L40.462572,107.382682 Z M38.4947746,97.9920492 L38.4947746,108.370482 C38.4947746,111.497731 41.1198163,114.041876 44.346512,114.041876 L45.4066628,114.041876 C45.8868054,117.373694 48.7511804,119.942268 52.2031889,119.942268 C55.6551974,119.942268 58.5193264,117.373694 58.999223,114.041876 L60.0596198,114.041876 C63.2860695,114.041876 65.9111112,111.497731 65.9111112,108.370482 L65.9111112,97.9920492 L38.4947746,97.9920492 Z" id="Fill-31" fill="#343534"></path>
                        <path d="M82.6529163,51.8517929 C82.0106144,51.8517929 81.4899288,51.3308037 81.4899288,50.6881272 C81.4899288,37.7348337 72.27638,26.5718708 59.5822392,24.1447756 C58.9512619,24.0240736 58.5376677,23.4146518 58.6582993,22.7835528 C58.7786848,22.1524539 59.3870129,21.7386185 60.0187288,21.8590742 C73.8076632,24.495304 83.8156575,36.6196952 83.8156575,50.6881272 C83.8156575,51.3308037 83.294972,51.8517929 82.6529163,51.8517929" id="Fill-32" fill="#FFFFFE"></path>
                        <path d="M37.1375781,18.9264644 C30.476481,18.9264644 25.0528774,24.221444 24.8249245,30.8383807 C24.3394785,30.9089048 23.9630856,30.966853 23.8712644,30.9902788 C19.2083241,32.1751331 16.3869769,36.9219481 17.5698208,41.5925674 C17.6709964,41.9920397 18.0180952,42.7737229 18.5800999,44.0877893 C16.9228877,45.8698792 15.4426712,48.6698836 15.4426712,51.2975231 C15.4426712,55.1894182 17.3002653,58.6384416 21.5457023,60.4666435 C20.8160563,62.0825333 20.5708716,63.4150937 20.5708716,64.2507797 C20.5708716,68.1705392 23.7432563,71.3483161 27.6563647,71.3483161 C27.719384,71.3483161 27.978108,71.3268629 28.3173294,71.2960394 C28.607317,75.6024486 31.4951299,79.0263201 35.3986376,80.4008004 C35.3986376,87.8958363 35.3654048,94.0723673 35.3654048,94.0723673 L49.4613092,94.0723673 L49.4613092,31.2711423 C49.4613092,24.4534831 43.9439151,18.9264644 37.1375781,18.9264644" id="Fill-33" fill="#BFC0BF"></path>
                        <path d="M62.9881754,58.6624553 C63.5573253,56.8739009 64.2041539,55.5930826 64.8490096,54.8644306 C65.6211103,53.9921216 66.5774203,53.4922841 67.4518595,53.4922841 C67.5300313,53.4922841 67.6074633,53.4962334 67.6841555,53.5043789 C68.3092833,53.5702834 68.8059332,53.8985717 69.1203467,54.4544404 C69.3425321,54.8476459 69.6458486,55.6271456 69.1770644,56.4320692 C68.816537,57.0506335 67.5125228,58.4134004 62.9881754,58.6624553 Z M68.4584756,79.6758714 L67.7909328,79.9910775 L67.7909328,93.1934525 L61.1251218,93.1934525 L61.1251218,73.7730988 C61.1251218,68.549118 61.6202921,64.2500216 62.352937,61.0219352 C68.0794533,60.8602593 70.3217758,59.0968819 71.1898034,57.6062554 C71.949081,56.3022348 71.9332987,54.6946093 71.1473884,53.3054312 C70.4667759,52.1018718 69.2932124,51.3290366 67.9280417,51.1851328 C66.2237977,51.0069191 64.4645621,51.7829632 63.1055564,53.3180197 C62.0905559,54.4648074 61.2222817,56.3160575 60.5367371,58.7019486 L55.9497537,58.7019486 L55.9497537,18.9245086 C73.0277039,19.4951873 86.7452529,33.579251 86.7452529,50.8099461 C86.7452529,63.0973099 79.567503,74.4277008 68.4584756,79.6758714 Z M58.7955033,73.7730988 L58.7955033,93.1934525 L55.9497537,93.1934525 L55.9497537,61.0337832 L59.9604359,61.0337832 C59.2107756,64.5763353 58.7955033,68.9512095 58.7955033,73.7730988 Z M48.4016124,31.3567636 L48.4016124,39.1327544 C47.7074369,38.7257262 46.9025385,38.4882725 46.0414157,38.4882725 C43.4553345,38.4882725 41.3513539,40.5942546 41.3513539,43.182549 C41.3513539,43.8265372 41.8729103,44.3485897 42.5162865,44.3485897 C43.1596626,44.3485897 43.681219,43.8265372 43.681219,43.182549 C43.681219,41.8797626 44.7398674,40.8201071 46.0414157,40.8201071 C47.3429639,40.8201071 48.4016124,41.8797626 48.4016124,43.182549 L48.4016124,62.0934387 C48.2923691,63.3794404 47.3000557,64.4368745 46.0155228,64.619778 C45.2767129,64.7246821 44.5425884,64.5358546 43.9465592,64.088099 C43.35053,63.6400964 42.9643564,62.9864817 42.8595519,62.2474627 C42.8326727,62.0593757 42.8247815,61.8688204 42.836125,61.681227 C42.8750876,61.038473 42.3860823,60.4858132 41.7439391,60.4468135 C41.1008096,60.4085543 40.5496614,60.8972843 40.5109454,61.5400384 C40.4899845,61.8843709 40.5042872,62.2331464 40.5531138,62.5759979 C40.7457074,63.9313598 41.453939,65.130723 42.5476045,65.952678 C43.4437444,66.6262862 44.5105306,66.9804921 45.611594,66.9804921 C45.8544938,66.9804921 46.0988732,66.9634606 46.3434991,66.9284102 C47.095872,66.8212846 47.7934998,66.5505084 48.4016124,66.1548345 L48.4016124,93.1961677 L36.4265302,93.1961677 L36.4265302,81.9645101 C37.2437584,82.1449453 38.0918116,82.2429381 38.9625518,82.2429381 C40.3158858,82.2429381 41.6428337,82.0148641 42.9068989,81.5646401 C43.5130386,81.3489078 43.8296714,80.6822109 43.6141441,80.0754946 C43.3986168,79.4687782 42.7320604,79.1523379 42.1261672,79.3675765 C41.1133861,79.7282 40.0490659,79.9111035 38.9625518,79.9111035 C33.9721328,79.9111035 29.8766206,76.0140987 29.5471647,71.1013747 C29.5471647,71.1011279 29.5471647,71.1011279 29.5471647,71.1011279 L29.5471647,71.1008811 C29.5331085,70.8898385 29.5232446,70.6775619 29.5232446,70.4630637 C29.5232446,67.9394396 30.5052008,65.5666307 32.2881098,63.7820256 C32.742838,63.3268649 32.742838,62.5883396 32.2881098,62.1331789 C31.8331351,61.6777714 31.0955583,61.6777714 30.6405836,62.1331789 C28.5156421,64.2601418 27.3063218,67.0579977 27.2037367,70.0491242 C24.1747642,69.7845188 21.7906474,67.2337431 21.7906474,64.1345036 C21.7906474,63.3463648 21.9324417,62.7144714 22.1738619,62.0761604 C22.6465917,62.2210516 23.1338708,62.3363227 23.6339731,62.4192587 C23.6983354,62.4301194 23.7624511,62.4353029 23.8258269,62.4353029 C24.3853595,62.4353029 24.8790502,62.0304962 24.9734975,61.4595707 C25.0785486,60.8242217 24.6492202,60.223923 24.0147216,60.118772 C19.7493029,59.4113476 16.6535021,55.751056 16.6535021,51.4151815 C16.6535021,47.951616 18.6923806,44.7928897 21.8478583,43.3681677 C22.4340236,43.1035623 22.6951716,42.4131695 22.4305712,41.825953 C22.1659707,41.2392301 21.476234,40.9773399 20.8898221,41.2426858 C20.2612419,41.5262973 19.6681719,41.8647058 19.1143111,42.2502595 C18.966845,41.900003 18.8425593,41.5388858 18.7486051,41.1671548 C17.7639363,37.281998 19.9899833,33.3240253 23.7483949,32.1083711 C23.9330974,34.6981465 24.8437866,37.1450055 26.4128945,39.2361775 C26.6417381,39.5412635 26.9914152,39.701952 27.3452844,39.701952 C27.5886774,39.701952 27.8342897,39.6259274 28.0438987,39.4682009 C28.5583037,39.081413 28.6621217,38.3505395 28.2757015,37.8356451 C26.8138641,35.8876364 26.0412702,33.5661688 26.0412702,31.1220251 C26.0412702,24.9511915 31.0565957,19.931095 37.221318,19.931095 C43.3862869,19.931095 48.4016124,24.9511915 48.4016124,31.1220251 C48.4016124,31.1622589 48.4095035,31.2002712 48.4134491,31.2392709 C48.4095035,31.2785174 48.4016124,31.3165297 48.4016124,31.3567636 Z M54.8723637,16.5746552 L53.6198886,16.5758893 L53.6198886,93.1961677 L50.7312308,93.1961677 L50.7312308,62.1936531 C50.7319706,62.1850139 50.7334502,62.1768684 50.7339434,62.1684761 C50.735423,62.1457674 50.7312308,62.1242929 50.7312308,62.101831 L50.7312308,31.3567636 C50.7312308,31.3165297 50.7235863,31.2785174 50.7196407,31.2392709 C50.7235863,31.2002712 50.7312308,31.1622589 50.7312308,31.1220251 C50.7312308,23.6656834 44.6708198,17.5992604 37.221318,17.5992604 C30.2593419,17.5992604 24.5118647,22.8982786 23.7895769,29.6782968 C23.7414902,29.6896512 23.6929102,29.698784 23.6453166,29.7108788 C21.0846352,30.3610379 18.9301018,31.9703913 17.5787406,34.2424922 C16.2273795,36.5145931 15.8409592,39.1774312 16.4902537,41.7405486 C16.6759426,42.4726563 16.9472012,43.1761313 17.2894803,43.8418409 C15.4205083,45.8683426 14.3236371,48.5595665 14.3236371,51.4151815 C14.3236371,55.576298 16.5814953,59.2437478 20.0284527,61.161396 C19.7059015,61.9900155 19.4607824,62.9403239 19.4607824,64.1345036 C19.4607824,68.5710861 22.9693895,72.2017578 27.3546551,72.3957688 C28.0046895,76.3199252 30.5984152,79.5931822 34.1099815,81.1906876 C34.1050495,81.2343771 34.0966651,81.2768324 34.0966651,81.3217561 L34.0966651,95.5282491 L70.1205512,95.5252871 L70.1205512,81.4604764 C75.6127987,78.7188985 80.2661172,74.5538327 83.6117226,69.3767502 C87.1859249,63.8459554 89.075118,57.4255734 89.075118,50.8099461 C89.075118,31.9326258 73.7317434,16.5746552 54.8723637,16.5746552 Z" id="Fill-34" fill="#343534"></path>
                        <path d="M24.6113145,46.7361716 C22.4414435,47.2833588 20.9259385,49.2260219 20.9259385,51.4601217 C20.9259385,53.245419 21.90289,54.8854935 23.4760527,55.7404735 C23.6544936,55.837619 23.8471004,55.8834658 24.0367249,55.8834658 C24.4527556,55.8834658 24.8556145,55.6626579 25.0686004,55.2730845 C25.379008,54.7053282 25.1690045,53.9943318 24.5996339,53.6848043 C23.7817384,53.2402147 23.2737534,52.387713 23.2737534,51.4601217 C23.2737534,50.2993315 24.0605833,49.2899596 25.1871468,49.0059575 C25.8156663,48.8473526 26.1964065,48.2107023 26.0373505,47.5839648 C25.8782946,46.9572273 25.2405796,46.5778145 24.6113145,46.7361716" id="Fill-35" fill="#343534"></path>
                        <path d="M37.2331198,38.5061359 C37.8678665,38.4400297 38.329923,37.8658709 38.2648584,37.2233776 C38.1995492,36.5806367 37.6306009,36.1144267 36.9973218,36.1790474 C33.4009132,36.5526591 30.7748475,39.8178621 31.1437099,43.4581624 C31.3814648,45.8062959 32.8517778,47.8672263 34.9808087,48.8367846 C35.1346644,48.9068522 35.2956137,48.9400292 35.4541169,48.9400292 C35.8948928,48.9400292 36.3158558,48.6832794 36.508359,48.2499988 C36.7703296,47.6609847 36.510805,46.968726 35.9288927,46.7038058 C34.5493277,46.0754251 33.5965962,44.7404255 33.4427404,43.2194866 C33.2037626,40.8621923 34.9042477,38.7477827 37.2331198,38.5061359" id="Fill-36" fill="#343534"></path>
                        <path d="M38.6906341,55.1773703 C36.0111855,56.4324601 32.8049486,55.282987 31.5443662,52.614998 C31.2698427,52.0339835 30.5733938,51.7845904 29.9899695,52.0578641 C29.4060506,52.3311379 29.1555169,53.0239238 29.4300404,53.6051845 C30.7418177,56.3810059 33.521183,58.0112931 36.4165406,58.0112931 C37.5138927,58.0112931 38.6283098,57.7769178 39.6851018,57.2820707 C42.1662009,56.1202879 43.8524184,53.7078468 44.0856397,50.9861878 C44.1405444,50.3463333 43.6639617,49.7832909 43.0211809,49.7283899 C42.3796367,49.6727504 41.8127828,50.1483945 41.7576307,50.788249 C41.5948952,52.6861476 40.4196377,54.3678891 38.6906341,55.1773703" id="Fill-37" fill="#343534"></path>
                        <path d="M37.949821,72.4672736 C36.6611435,71.7477896 36.1971405,70.1122387 36.9157642,68.8215747 C37.229714,68.2575745 37.0275007,67.5452706 36.4643687,67.2305892 C35.900495,66.916403 35.1895347,67.1186805 34.875832,67.6826806 C33.5302975,70.0998595 34.3992216,73.1627417 36.8126799,74.5103505 C37.5787669,74.9379309 38.4187681,75.1459029 39.2523419,75.1459029 C40.5847746,75.1456553 41.9008918,74.6143365 42.8699337,73.6012159 C43.3163852,73.1350121 43.3005641,72.3944834 42.8348307,71.9478389 C42.3690972,71.5006992 41.6299556,71.5165446 41.1837513,71.982996 C40.3432557,72.8619251 39.0132951,73.0612316 37.949821,72.4672736" id="Fill-38" fill="#343534"></path>
                        <path d="M37.1518105,24.8619828 C33.6963601,24.8619828 30.8853424,27.6585699 30.8853424,31.0959802 C30.8853424,31.7353332 31.4063574,32.2533831 32.0488194,32.2533831 C32.6915278,32.2533831 33.2125428,31.7353332 33.2125428,31.0959802 C33.2125428,28.9350702 34.979806,27.1772785 37.1518105,27.1772785 C39.3240612,27.1772785 41.0913245,28.9350702 41.0913245,31.0959802 C41.0913245,31.7353332 41.6123395,32.2533831 42.2550478,32.2533831 C42.8977562,32.2533831 43.4185249,31.7353332 43.4185249,31.0959802 C43.4185249,27.6585699 40.6075072,24.8619828 37.1518105,24.8619828" id="Fill-39" fill="#343534"></path>
                    </g>
                </g>
            </g>
        </g>
    </g>
</svg>