<svg xmlns="http://www.w3.org/2000/svg" xmlns:xlink="http://www.w3.org/1999/xlink" width="228" height="228" viewBox="0 0 228 228">
    <defs>
        <circle id="b" cx="75" cy="75" r="75"/>
        <filter id="a" width="186.7%" height="186.7%" x="-43.3%" y="-36.7%" filterUnits="objectBoundingBox">
            <feOffset dy="10" in="SourceAlpha" result="shadowOffsetOuter1"/>
            <feGaussianBlur in="shadowOffsetOuter1" result="shadowBlurOuter1" stdDeviation="20"/>
            <feComposite in="shadowBlurOuter1" in2="SourceAlpha" operator="out" result="shadowBlurOuter1"/>
            <feColorMatrix in="shadowBlurOuter1" values="0 0 0 0 1 0 0 0 0 1 0 0 0 0 1 0 0 0 0.7 0"/>
        </filter>
    </defs>
    <g fill="none" fill-rule="evenodd">
        <g transform="translate(39 29)">
            <use fill="#000" filter="url(#a)" xlink:href="#b"/>
            <use fill="#5F6E85" xlink:href="#b"/>
            <circle cx="75" cy="75" r="73.5" stroke="#FFF" stroke-width="3"/>
        </g>
        <path fill="#FFFFFE" d="M146.79 98.042c0 16.587-13.323 30.033-29.759 30.033-16.435 0-29.758-13.446-29.758-30.033 0-16.587 13.323-30.034 29.758-30.034 16.436 0 29.759 13.447 29.759 30.034"/>
        <path fill="#FFFFFE" d="M105.957 148.452h22.149v-24.939h-22.15z"/>
        <path fill="#FFFFFE" d="M102.642 130.508h28.779v-6.235h-28.78z"/>
        <path fill="#FFFFFE" d="M130.774 133.86c-.27 1.505-1.696 2.502-3.185 2.23l-22.093-4.045c-1.49-.273-2.477-1.713-2.207-3.216.27-1.504 1.696-2.502 3.185-2.23l22.092 4.045c1.49.273 2.478 1.713 2.208 3.217M130.774 139.487c-.27 1.504-1.696 2.502-3.185 2.23l-22.093-4.045c-1.49-.273-2.477-1.713-2.207-3.217s1.696-2.502 3.185-2.23l22.092 4.046c1.49.272 2.478 1.712 2.208 3.216"/>
        <path fill="#FFFFFE" d="M130.774 144.962c-.27 1.503-1.696 2.501-3.185 2.229l-22.093-4.045c-1.49-.273-2.477-1.713-2.207-3.216.27-1.504 1.696-2.502 3.185-2.23l22.092 4.045c1.49.273 2.478 1.713 2.208 3.217"/>
        <path fill="#FFFFFE" d="M130.171 150.288a2.746 2.746 0 0 1-3.19 2.225l-21.482-3.902a2.761 2.761 0 0 1-2.21-3.21 2.745 2.745 0 0 1 3.189-2.226l21.483 3.902a2.761 2.761 0 0 1 2.21 3.21"/>
        <path fill="#FFFFFE" d="M128.558 145.183c0 6.424-5.16 11.633-11.527 11.633-6.366 0-11.527-5.209-11.527-11.633 0-6.425 5.161-11.633 11.527-11.633s11.527 5.208 11.527 11.633"/>
        <path fill="#FFFFFE" d="M120.874 155.067c0 2.142-1.72 3.878-3.843 3.878-2.122 0-3.842-1.736-3.842-3.878 0-2.141 1.72-3.878 3.842-3.878s3.843 1.737 3.843 3.878"/>
        <path fill="#30424A" d="M107.86 93.69a1.068 1.068 0 0 1-.67 1.352c-.67.226-1.36.339-2.048.339a6.363 6.363 0 0 1-2.84-.673 6.366 6.366 0 0 1-3.22-3.698 1.065 1.065 0 1 1 2.02-.68 4.247 4.247 0 0 0 2.147 2.467 4.234 4.234 0 0 0 3.26.222 1.065 1.065 0 0 1 1.35.671"/>
        <path fill="#30424A" d="M114.545 80.007a4.289 4.289 0 0 0-1.276-3.02 4.177 4.177 0 0 0-3.014-1.223 4.19 4.19 0 0 0-2.985 1.292 4.282 4.282 0 0 0-1.188 2.595 6.35 6.35 0 0 1 2.458 2.312 1.078 1.078 0 0 1-.341 1.474 1.05 1.05 0 0 1-1.457-.345 4.216 4.216 0 0 0-2.637-1.916 4.167 4.167 0 0 0-3.204.533 4.276 4.276 0 0 0-1.848 2.486 6.285 6.285 0 0 1 5.426 2.05 1.08 1.08 0 0 1-.067 1.513 1.05 1.05 0 0 1-1.495-.068 4.194 4.194 0 0 0-2.94-1.392 4.18 4.18 0 0 0-3.053 1.12 4.285 4.285 0 0 0-1.376 2.975 4.292 4.292 0 0 0 1.107 3.088 1.08 1.08 0 0 1-.068 1.513 1.047 1.047 0 0 1-1.494-.068 6.477 6.477 0 0 1-.533-.677 4.297 4.297 0 0 0-.658 2.291 4.29 4.29 0 0 0 1.242 3.035 4.202 4.202 0 0 0 3.866 1.168 1.058 1.058 0 0 1 1.25.831 1.07 1.07 0 0 1-.82 1.266 6.281 6.281 0 0 1-4.988-1.064c-.08.63-.02 1.276.186 1.896a4.25 4.25 0 0 0 2.134 2.475 4.17 4.17 0 0 0 3.238.224 4.23 4.23 0 0 0 2.447-2.16 1.06 1.06 0 0 1 .204-.28 6.323 6.323 0 0 1 3.463-2.855 6.25 6.25 0 0 1 4.854.334c.524.263.738.906.478 1.435-.26.53-.895.746-1.418.483a4.168 4.168 0 0 0-3.24-.223 4.227 4.227 0 0 0-2.446 2.16c-.054.11-.126.205-.208.286a6.326 6.326 0 0 1-3.459 2.85l-.057.016a4.29 4.29 0 0 0-1.24 3.033 4.29 4.29 0 0 0 1.242 3.035 4.202 4.202 0 0 0 3.326 1.245 6.445 6.445 0 0 1 1.852-4.251 1.049 1.049 0 0 1 1.496 0 1.08 1.08 0 0 1 0 1.513 4.333 4.333 0 0 0 0 6.07 4.189 4.189 0 0 0 3 1.258 4.189 4.189 0 0 0 2.999-1.258 4.29 4.29 0 0 0 1.242-3.035 4.29 4.29 0 0 0-1.242-3.035 1.08 1.08 0 0 1 0-1.513c.337-.341.842-.4 1.242-.184v-3.282l-.014.013a6.271 6.271 0 0 1-4.6 1.608 1.066 1.066 0 0 1-.992-1.132c.035-.59.54-1.04 1.12-1.005a4.185 4.185 0 0 0 3.068-1.073 4.28 4.28 0 0 0 1.418-2.936V92.575c.014-2.367-1.877-4.305-4.215-4.32a1.064 1.064 0 0 1-1.052-1.076 1.06 1.06 0 0 1 1.065-1.064 6.29 6.29 0 0 1 4.202 1.647v-7.755M135.132 91.01a6.368 6.368 0 0 1-3.22 3.698 6.367 6.367 0 0 1-4.889.334 1.068 1.068 0 0 1 .68-2.023 4.234 4.234 0 0 0 3.26-.222 4.248 4.248 0 0 0 2.15-2.468 1.065 1.065 0 1 1 2.019.68"/>
        <path fill="#30424A" d="M140.16 96.54c0-.824-.232-1.611-.658-2.29a6.537 6.537 0 0 1-.532.676 1.049 1.049 0 0 1-1.495.068 1.08 1.08 0 0 1-.067-1.513 4.295 4.295 0 0 0 1.106-3.088 4.287 4.287 0 0 0-1.376-2.976 4.187 4.187 0 0 0-3.052-1.12 4.193 4.193 0 0 0-2.94 1.393 1.05 1.05 0 0 1-1.495.068 1.08 1.08 0 0 1-.067-1.512 6.286 6.286 0 0 1 5.425-2.05 4.275 4.275 0 0 0-1.848-2.487 4.17 4.17 0 0 0-3.203-.533 4.215 4.215 0 0 0-2.637 1.916c-.308.502-.96.657-1.457.345a1.078 1.078 0 0 1-.341-1.474 6.345 6.345 0 0 1 2.458-2.312 4.279 4.279 0 0 0-1.189-2.595 4.19 4.19 0 0 0-2.984-1.292 4.18 4.18 0 0 0-3.014 1.222 4.288 4.288 0 0 0-1.276 3.021v7.755a6.29 6.29 0 0 1 4.202-1.647h.007c.58 0 1.054.475 1.058 1.064a1.064 1.064 0 0 1-1.052 1.077c-2.338.014-4.23 1.952-4.215 4.319v10.91a4.284 4.284 0 0 0 1.418 2.939 4.185 4.185 0 0 0 3.068 1.073 1.065 1.065 0 0 1 1.12 1.005c.035.59-.41 1.097-.993 1.132a6.269 6.269 0 0 1-4.6-1.608l-.013-.014v3.283c.4-.215.905-.157 1.242.184a1.08 1.08 0 0 1 0 1.513 4.29 4.29 0 0 0-1.242 3.035 4.29 4.29 0 0 0 1.242 3.035 4.188 4.188 0 0 0 2.999 1.258 4.19 4.19 0 0 0 3-1.258 4.334 4.334 0 0 0 0-6.07 1.08 1.08 0 0 1 0-1.513 1.049 1.049 0 0 1 1.496 0 6.445 6.445 0 0 1 1.852 4.251 4.205 4.205 0 0 0 3.326-1.245 4.29 4.29 0 0 0 1.242-3.035 4.29 4.29 0 0 0-1.24-3.033c-.02-.006-.039-.01-.058-.017a6.322 6.322 0 0 1-3.457-2.848 1.063 1.063 0 0 1-.21-.288 4.229 4.229 0 0 0-2.446-2.16 4.166 4.166 0 0 0-3.239.224 1.052 1.052 0 0 1-1.418-.483 1.076 1.076 0 0 1 .477-1.435 6.25 6.25 0 0 1 4.855-.334 6.325 6.325 0 0 1 3.462 2.856c.08.08.152.172.205.28a4.227 4.227 0 0 0 2.446 2.159 4.17 4.17 0 0 0 3.239-.224 4.25 4.25 0 0 0 2.134-2.475 4.32 4.32 0 0 0 .187-1.896 6.282 6.282 0 0 1-4.989 1.064 1.07 1.07 0 0 1-.821-1.266c.119-.579.678-.95 1.25-.831a4.201 4.201 0 0 0 3.865-1.168 4.288 4.288 0 0 0 1.243-3.035"/>
        <path fill="#FFFFFE" d="M105.21 132.029l17.773 3.193-19.287-2.592 1.513-.601M105.21 137.503l17.773 3.194-19.287-2.592 1.513-.602M105.21 143.13l17.773 3.193-19.287-2.592 1.513-.601M77.479 68.008l10.999 10.493v-2.364l-11-8.129M81.892 92.643L60 88.842l22.903 1.3-1.01 2.501M83.807 105.57l-20.643 9.58 19.966-5.544.677-4.037M89.547 119.711l-12.671 12.774 14.465-10.019-1.794-2.755M98.318 69.225l-3.662-14.598 5.876 13.379-2.214 1.219M113.773 65.12L112.436 49l2.862 16.12h-1.525M129.01 68.16c-.024-.367 11-16.423 11-16.423l-8.205 16.424h-2.795M142.119 75.087l15.52-8.447-14.733 10.797-.787-2.35M149.804 88.178L167.13 85.8l-17.327 4.258v-1.88M150.592 102.224l17.443 4.714-18.231-2.913.788-1.801M144.114 118.039l13.525 13.99-14.315-10.36.79-3.63"/>
        <g stroke="#5F6E85" stroke-width="3">
            <path d="M113.5-40v70"/>
        </g>
    </g>
</svg>
