<svg xmlns="http://www.w3.org/2000/svg" xmlns:xlink="http://www.w3.org/1999/xlink" width="228" height="228" viewBox="0 0 228 228">
    <defs>
        <circle id="b" cx="75" cy="75" r="75"/>
        <filter id="a" width="186.7%" height="186.7%" x="-43.3%" y="-36.7%" filterUnits="objectBoundingBox">
            <feOffset dy="10" in="SourceAlpha" result="shadowOffsetOuter1"/>
            <feGaussianBlur in="shadowOffsetOuter1" result="shadowBlurOuter1" stdDeviation="20"/>
            <feComposite in="shadowBlurOuter1" in2="SourceAlpha" operator="out" result="shadowBlurOuter1"/>
            <feColorMatrix in="shadowBlurOuter1" values="0 0 0 0 0.82745098 0 0 0 0 0.894117647 0 0 0 0 0.901960784 0 0 0 0.7 0"/>
        </filter>
    </defs>
    <g fill="none" fill-rule="evenodd">
        <g transform="translate(39 29)">
            <use fill="#000" filter="url(#a)" xlink:href="#b"/>
            <use fill="#FFF" xlink:href="#b"/>
            <circle cx="75" cy="75" r="73.5" stroke="#8DEBFD" stroke-width="3"/>
        </g>
        <path fill="#FFF" d="M123.029 52.735c-.08 0-.16-.008-.242-.025a1.142 1.142 0 0 1-.893-1.354l1.15-5.331a1.16 1.16 0 0 1 1.375-.88c.626.131 1.026.738.893 1.355l-1.15 5.33a1.156 1.156 0 0 1-1.133.905M132.068 55.647a1.148 1.148 0 0 1-1.037-1.61l2.204-4.99a1.132 1.132 0 0 1 1.5-.58c.572.257.83.933.575 1.511l-2.204 4.99c-.188.426-.604.68-1.038.68M83.842 138.184a1.13 1.13 0 0 1-.67-.219 1.15 1.15 0 0 1-.252-1.601l3.201-4.426a1.137 1.137 0 0 1 1.594-.254c.51.372.623 1.09.252 1.602l-3.2 4.426a1.138 1.138 0 0 1-.925.472M140.242 60.463a1.15 1.15 0 0 1-.922-1.82l3.2-4.427a1.137 1.137 0 0 1 1.594-.254c.51.373.623 1.09.253 1.602l-3.201 4.426a1.139 1.139 0 0 1-.924.473M75.907 131.017c-.314 0-.628-.127-.855-.378a1.137 1.137 0 0 1 .086-1.614l4.078-3.65a1.155 1.155 0 0 1 1.624.084c.425.47.387 1.192-.085 1.615l-4.078 3.65a1.15 1.15 0 0 1-.77.293M147.302 66.734a1.15 1.15 0 0 1-.855-.378 1.138 1.138 0 0 1 .085-1.614l4.078-3.65a1.155 1.155 0 0 1 1.625.085 1.138 1.138 0 0 1-.086 1.614l-4.078 3.65c-.22.196-.495.293-.77.293M69.753 122.506a1.149 1.149 0 0 1-.576-2.144l4.75-2.742a1.15 1.15 0 1 1 1.15 1.99l-4.75 2.742a1.143 1.143 0 0 1-.574.154M152.897 74.462a1.149 1.149 0 0 1-.576-2.144l4.751-2.742a1.15 1.15 0 0 1 1.15 1.99l-4.751 2.742a1.144 1.144 0 0 1-.574.154M65.385 112.874c-.484 0-.933-.311-1.09-.801a1.163 1.163 0 0 1 .736-1.462l5.203-1.711a1.144 1.144 0 0 1 1.445.745 1.163 1.163 0 0 1-.736 1.462l-5.204 1.71a1.14 1.14 0 0 1-.354.057M156.698 83.085a1.163 1.163 0 0 1-.354-2.264l5.204-1.71a1.144 1.144 0 0 1 1.444.744 1.163 1.163 0 0 1-.736 1.462l-5.204 1.71a1.132 1.132 0 0 1-.354.058M63.143 102.46a1.152 1.152 0 0 1-1.137-1.044 1.16 1.16 0 0 1 1.019-1.281l5.432-.581a1.15 1.15 0 0 1 1.258 1.037 1.16 1.16 0 0 1-1.019 1.28l-5.432.582a1.16 1.16 0 0 1-.12.006M158.709 92.38a1.152 1.152 0 0 1-1.137-1.043 1.16 1.16 0 0 1 1.019-1.28l5.432-.582a1.152 1.152 0 0 1 1.258 1.037 1.16 1.16 0 0 1-1.02 1.28l-5.431.582c-.04.004-.081.006-.121.006M68.578 92.38c-.04 0-.08-.002-.121-.006l-5.432-.582a1.16 1.16 0 0 1-1.019-1.28 1.15 1.15 0 0 1 1.258-1.037l5.432.581a1.16 1.16 0 0 1 1.019 1.28 1.152 1.152 0 0 1-1.137 1.044M164.144 102.46c-.04 0-.08-.003-.121-.007l-5.432-.581a1.16 1.16 0 0 1-1.02-1.281 1.15 1.15 0 0 1 1.259-1.037l5.432.581a1.16 1.16 0 0 1 1.019 1.28 1.153 1.153 0 0 1-1.137 1.044M70.589 83.085c-.117 0-.237-.018-.355-.057l-5.203-1.71a1.163 1.163 0 0 1-.737-1.463c.196-.61.843-.943 1.445-.745l5.204 1.711a1.163 1.163 0 0 1-.354 2.264M161.902 112.874c-.117 0-.237-.018-.354-.057l-5.204-1.71a1.163 1.163 0 0 1-.736-1.462c.195-.61.841-.943 1.444-.745l5.204 1.71a1.163 1.163 0 0 1-.354 2.264M74.501 74.462c-.195 0-.392-.05-.573-.154l-4.75-2.742a1.148 1.148 0 1 1 1.149-1.99l4.75 2.742a1.148 1.148 0 0 1-.576 2.144M157.646 122.506c-.195 0-.393-.05-.574-.154l-4.75-2.742a1.149 1.149 0 1 1 1.149-1.99l4.75 2.742a1.149 1.149 0 0 1-.575 2.144M79.985 66.734a1.15 1.15 0 0 1-.769-.293l-4.078-3.65a1.138 1.138 0 0 1-.086-1.614 1.155 1.155 0 0 1 1.625-.085l4.078 3.65c.472.422.51 1.145.085 1.614a1.15 1.15 0 0 1-.855.378M151.38 131.017a1.15 1.15 0 0 1-.77-.294l-4.078-3.65a1.138 1.138 0 0 1-.085-1.613 1.154 1.154 0 0 1 1.624-.085l4.078 3.65c.472.422.51 1.145.086 1.614a1.15 1.15 0 0 1-.855.378M87.045 60.463c-.353 0-.7-.164-.924-.473l-3.201-4.426a1.15 1.15 0 0 1 .253-1.602 1.138 1.138 0 0 1 1.594.254l3.2 4.426a1.15 1.15 0 0 1-.252 1.602c-.203.147-.437.219-.67.219M143.444 138.184c-.353 0-.7-.163-.924-.472l-3.2-4.426a1.15 1.15 0 0 1 .252-1.602 1.138 1.138 0 0 1 1.594.254l3.2 4.426a1.15 1.15 0 0 1-.252 1.601 1.13 1.13 0 0 1-.67.22M95.219 55.647c-.435 0-.85-.253-1.038-.68l-2.204-4.99a1.148 1.148 0 0 1 .575-1.51 1.133 1.133 0 0 1 1.5.58l2.204 4.99a1.148 1.148 0 0 1-.576 1.51c-.15.068-.307.1-.461.1M104.258 52.735a1.156 1.156 0 0 1-1.133-.905l-1.15-5.33a1.142 1.142 0 0 1 .893-1.355 1.159 1.159 0 0 1 1.375.88l1.15 5.33a1.142 1.142 0 0 1-.893 1.355 1.17 1.17 0 0 1-.242.025M113.588 51.727a1.13 1.13 0 0 1-1.12-1.14V45.14c0-.63.502-1.141 1.12-1.141a1.13 1.13 0 0 1 1.119 1.141v5.445a1.13 1.13 0 0 1-1.12 1.141M116.808 61.695h-.087v76.601h14.17V124.67c11.201-5.29 18.953-16.695 18.953-29.913 0-18.26-14.79-33.062-33.036-33.062"/>
        <path fill="#EB8B2D" d="M114.203 163.046c3.245 0 5.875-2.657 5.875-5.935h-11.75c0 3.278 2.63 5.935 5.875 5.935"/>
        <path fill="#343534" d="M122.06 156.068h-15.713c-1.783 0-3.285-1.15-3.74-2.711H125.8c-.455 1.56-1.957 2.71-3.74 2.71zm-7.857 5.9c-2.364 0-4.342-1.688-4.8-3.926h9.6c-.458 2.238-2.436 3.926-4.8 3.926zm-11.74-15.29h23.48v-2.712h-23.48v2.712zm0 4.705h23.48v-2.731h-23.48v2.73zm-1.968-9.391v10.378c0 3.128 2.625 5.672 5.852 5.672h1.06c.48 3.332 3.344 5.9 6.796 5.9 3.452 0 6.316-2.568 6.796-5.9h1.06c3.227 0 5.852-2.544 5.852-5.672v-10.378h-27.416z"/>
        <path fill="#FFFFFE" d="M144.653 95.852a1.163 1.163 0 0 1-1.163-1.164c0-12.953-9.214-24.116-21.908-26.543a1.163 1.163 0 0 1 .437-2.286c13.789 2.636 23.797 14.76 23.797 28.83 0 .642-.521 1.163-1.163 1.163"/>
        <path fill="#BFC0BF" d="M99.138 62.926c-6.662 0-12.085 5.295-12.313 11.912-.486.07-.862.129-.954.152-4.663 1.185-7.484 5.932-6.301 10.603.101.399.448 1.18 1.01 2.495-1.657 1.782-3.137 4.582-3.137 7.21 0 3.891 1.857 7.34 6.103 9.169-.73 1.616-.975 2.948-.975 3.784 0 3.92 3.172 7.097 7.085 7.097.063 0 .322-.021.661-.052.29 4.306 3.178 7.73 7.082 9.105 0 7.495-.034 13.671-.034 13.671h14.096v-62.8c0-6.819-5.517-12.346-12.323-12.346"/>
        <path fill="#343534" d="M124.988 102.662c.57-1.788 1.216-3.069 1.861-3.798.772-.872 1.728-1.372 2.603-1.372.078 0 .155.004.232.012a1.813 1.813 0 0 1 1.436.95c.223.394.526 1.173.057 1.978-.36.619-1.664 1.981-6.189 2.23zm5.47 21.014l-.667.315v13.202h-6.666v-19.42c0-5.224.495-9.523 1.228-12.751 5.726-.162 7.969-1.925 8.837-3.416.76-1.304.743-2.911-.043-4.3a4.163 4.163 0 0 0-3.219-2.12c-1.704-.18-3.463.597-4.822 2.132-1.015 1.147-1.884 2.998-2.57 5.384h-4.586V62.925c17.078.57 30.795 14.654 30.795 31.885 0 12.287-7.177 23.618-18.287 28.866zm-9.662-5.903v19.42h-2.846v-32.16h4.01c-.75 3.543-1.164 7.918-1.164 12.74zm-10.394-42.416v7.776a4.65 4.65 0 0 0-2.36-.645 4.698 4.698 0 0 0-4.69 4.695 1.165 1.165 0 1 0 2.33 0 2.364 2.364 0 0 1 2.36-2.363c1.301 0 2.36 1.06 2.36 2.363v18.91a2.8 2.8 0 0 1-2.386 2.527 2.772 2.772 0 0 1-2.07-.532 2.812 2.812 0 0 1-1.11-2.407 1.166 1.166 0 1 0-2.325-.141c-.021.344-.007.693.042 1.036a5.092 5.092 0 0 0 1.995 3.377 5.079 5.079 0 0 0 3.795.975 5.082 5.082 0 0 0 2.059-.773v27.041H98.427v-11.231a11.749 11.749 0 0 0 6.48-.4 1.166 1.166 0 0 0-.78-2.197 9.405 9.405 0 0 1-3.164.543c-4.99 0-9.086-3.897-9.416-8.81a9.391 9.391 0 0 1 2.74-7.319 1.167 1.167 0 0 0 .001-1.649 1.164 1.164 0 0 0-1.647 0 11.7 11.7 0 0 0-3.437 7.916 5.943 5.943 0 0 1-5.413-5.914c0-.789.141-1.42.383-2.059.473.145.96.26 1.46.343a1.165 1.165 0 0 0 .38-2.3 8.785 8.785 0 0 1-7.36-8.704 8.844 8.844 0 0 1 5.194-8.047 1.166 1.166 0 0 0-.958-2.125 11.09 11.09 0 0 0-1.776 1.007 7.578 7.578 0 0 1-.365-1.083c-.985-3.885 1.241-7.843 5-9.059a13.394 13.394 0 0 0 2.664 7.128 1.163 1.163 0 0 0 1.63.232 1.167 1.167 0 0 0 .233-1.632 11.1 11.1 0 0 1-2.235-6.714c0-6.17 5.016-11.19 11.18-11.19 6.165 0 11.18 5.02 11.18 11.19 0 .04.009.078.012.117-.003.04-.011.078-.011.118zm6.47-14.782h-1.252v76.621h-2.889v-31.002l.003-.026c.001-.022-.003-.044-.003-.066V75.357c0-.04-.007-.078-.011-.118.004-.039.011-.077.011-.117 0-7.456-6.06-13.523-13.51-13.523-6.962 0-12.71 5.3-13.431 12.08-.049.01-.097.02-.145.032a9.826 9.826 0 0 0-6.066 4.531 9.844 9.844 0 0 0-1.089 7.499c.186.732.457 1.435.8 2.1a11.178 11.178 0 0 0-2.966 7.574c0 4.161 2.257 7.829 5.704 9.746a7.954 7.954 0 0 0-.567 2.974c0 4.436 3.508 8.067 7.894 8.26.65 3.925 3.243 7.198 6.755 8.796-.005.043-.013.086-.013.13v14.207l36.024-.003V125.46a34.29 34.29 0 0 0 13.49-12.083 34.129 34.129 0 0 0 5.464-18.567c0-18.877-15.343-34.235-34.203-34.235z"/>
        <path fill="#343534" d="M86.611 90.736a4.869 4.869 0 0 0-1.135 9.004 1.174 1.174 0 0 0 1.593-.467c.31-.568.1-1.279-.47-1.588a2.532 2.532 0 0 1 .588-4.679 1.17 1.17 0 1 0-.576-2.27M99.233 82.506a1.166 1.166 0 0 0 1.032-1.283 1.161 1.161 0 0 0-1.268-1.044c-3.596.374-6.222 3.639-5.853 7.28.237 2.347 1.708 4.408 3.837 5.378.154.07.315.103.473.103.44 0 .862-.257 1.054-.69a1.175 1.175 0 0 0-.58-1.546 4.312 4.312 0 0 1-2.485-3.485c-.24-2.357 1.461-4.471 3.79-4.713M100.69 99.177c-2.679 1.255-5.885.106-7.146-2.562a1.17 1.17 0 0 0-1.554-.557 1.16 1.16 0 0 0-.56 1.547c1.312 2.776 4.091 4.406 6.987 4.406a7.701 7.701 0 0 0 7.67-7.025 1.165 1.165 0 0 0-1.066-1.258 1.167 1.167 0 0 0-1.263 1.06 5.368 5.368 0 0 1-3.067 4.39M99.95 116.467a2.685 2.685 0 0 1-1.034-3.645 1.167 1.167 0 1 0-2.04-1.139 5.029 5.029 0 0 0 1.937 6.827 5.002 5.002 0 0 0 6.057-.91 1.17 1.17 0 0 0-.035-1.652 1.166 1.166 0 0 0-1.651.035 2.672 2.672 0 0 1-3.234.484M99.152 68.862c-3.456 0-6.267 2.797-6.267 6.234 0 .64.521 1.157 1.164 1.157a1.16 1.16 0 0 0 1.164-1.157c0-2.16 1.767-3.919 3.939-3.919s3.94 1.758 3.94 3.919c0 .64.52 1.157 1.163 1.157a1.16 1.16 0 0 0 1.164-1.157c0-3.437-2.811-6.234-6.267-6.234"/>
        <g stroke-width="3">
            <path stroke="#00D7FF" d="M113.5-39v70"/>
            <path stroke="#5F6E85" d="M113.5 178v70"/>
        </g>
    </g>
</svg>
