<svg xmlns="http://www.w3.org/2000/svg" xmlns:xlink="http://www.w3.org/1999/xlink" width="204" height="302" viewBox="0 0 204 302">
    <defs>
        <path id="a" d="M0 .095h189.87v218.959H0z"/>
        <linearGradient id="d" x1="50%" x2="50%" y1="0%" y2="97.919%">
            <stop offset="0%" stop-color="#63A4E7"/>
            <stop offset="24.649%" stop-color="#ACD1F5"/>
            <stop offset="49.292%" stop-color="#C4E0F8"/>
            <stop offset="75.813%" stop-color="#81ADF2"/>
            <stop offset="100%" stop-color="#3958C2"/>
        </linearGradient>
        <path id="c" d="M0 302h204V0H0z"/>
    </defs>
    <g fill="none" fill-rule="evenodd">
        <g>
            <g transform="translate(0 81)">
                <mask id="b" fill="#fff">
                    <use xlink:href="#a"/>
                </mask>
                <path fill="#710E19" d="M119.04 44.445c0 2.083-2.135 3.787-4.745 3.787H90.278c-2.61 0-4.745-1.704-4.745-3.787V15.414c0-2.083 2.135-3.787 4.745-3.787h24.017c2.61 0 4.745 1.704 4.745 3.787v29.031zm0 44.363c0 2.235-2.135 4.064-4.745 4.064H90.278c-2.61 0-4.745-1.829-4.745-4.064V57.653c0-2.236 2.135-4.064 4.745-4.064h24.017c2.61 0 4.745 1.828 4.745 4.064v31.155zm0 44.64c0 2.235-2.135 4.064-4.745 4.064H90.278c-2.61 0-4.745-1.829-4.745-4.064v-31.156c0-2.235 2.135-4.063 4.745-4.063h24.017c2.61 0 4.745 1.828 4.745 4.063v31.156zm-60.987 2.459l-.102.29-.049.14-.054.144-.216.578-.43 1.154-.215.576-.047.12-.057.143-.114.285-.456 1.136-.906 2.26-.451 1.125-.225.56-.24.548-1.895 4.351c-.152.361-.322.715-.49 1.069l-.499 1.059-.992 2.103c-.639 1.403-1.36 2.751-2.04 4.099l-1.021 2.005c-.348.66-.713 1.305-1.065 1.952l-1.056 1.924-.523.952c-.175.316-.364.623-.544.932l-2.153 3.649c-.713 1.128-1.407 2.243-2.1 3.333L37.8 147.685l.116-.004.012-.426h6.293v4.56h4.468v-10.781h1.716v-4.908h1.96v-3.29h6.766l-1.078 3.07zm-18.479 37.327zm-.577.886zm-1.155 1.71l-.346.51H24.571l.12-1.286h13.683a83.106 83.106 0 0 0-.532.776zm-1.077 1.59l-.265.392-.13.19-.138.193-.036.05H24.393l.12-1.286h12.564l.152-.225-.464.686zm-1.935 2.73H24.215l.12-1.286h11.417l.273-.382-.34.475-.855 1.193zm-.485.648l-.282.354-.559.7-.16.203h-9.308l.12-1.286h10.212l.119-.148-.142.177zm-1.494 1.875l.464-.582-.464.582zm-3.573 4.433c-.184.225-.366.445-.547.664h-5.23l.12-1.286h6.165c-.17.21-.34.417-.508.622zm-2.68 3.189h.011l-.012.014v-.014zm-.82.557v.4l-.335.38c-.601.693-1.204 1.336-1.769 1.96-.271.283-.533.563-.79.835h-.006l.387-4.132h3.288c.015-.012.03-.022.046-.033-.27.202-.544.398-.822.59zm-3.217 3.914zm.882-6.377h4.775a223.291 223.291 0 0 0-1.114 1.325l.033-.039h-3.814l.12-1.286zm.357-3.81h7.526c-.35.436-.696.865-1.037 1.286h-6.61l.12-1.286zm.178-1.905h8.872c-.516.647-1.024 1.282-1.522 1.903l.494-.617h-7.964l.12-1.286zm.892-9.526h14.032l.092.978-.206.309H24.75l.12-1.287zm.178-1.904h13.676l.12 1.286H24.928l.12-1.286zm.179-1.906h13.318l.12 1.286H25.107l.12-1.286zm.178-1.905h12.962l.12 1.286H25.285l.12-1.286zm.178-1.905H38.19l.12 1.286H25.463l.12-1.286zm12.427-1.905l.12 1.286H25.642l.12-1.286h12.25zm-12.19-.619l.12-1.286h11.892l.12 1.286H25.82zm.298-3.191h11.536l.12 1.286H25.998l.12-1.286zm.179-1.905h11.178l.12 1.286H26.177l.12-1.286zm2.103-37.444l-1.57 16.773-.488-16.773H28.4zm6.935 14.583l.12 1.286h-7.139l.12-1.286h6.9zm-6.72-1.906h6.537l-.067-.618h-6.412l.12-1.286h6.171l-.066-.62h-6.047l.12-1.286h5.787l-.066-.619H29.03l.12-1.286h5.42l-.066-.619h-5.296l2.678-28.609 3.392 36.23h-6.783l.12-1.287zm8.815-12.677l-.487 16.773-1.57-16.773h2.057zm-.133 35.539l.12 1.286H26.356l.12-1.286h10.822zm-.178-1.905l.12 1.286H26.533l.12-1.286H37.12zm-.179-1.905l.12 1.285H26.712l.12-1.285h10.11zm-.178-1.905l.12 1.286H26.89l.12-1.286h9.752zm-.178-1.906l.12 1.286h-9.636l.12-1.286h9.396zm-.178-1.905l.12 1.286h-9.28l.12-1.286h9.04zm-.179-1.905l.12 1.286h-8.922l.12-1.286h8.682zm-.178-1.905l.12 1.286h-8.566l.12-1.286h8.326zm-.179-1.905l.12 1.286h-8.209l.12-1.286h7.97zm-7.732-2.524l.12-1.286h7.256l.12 1.286h-7.496zm7.554.619l.12 1.286H27.96l.12-1.286h7.612zm153.653 62.38l-.644-.465c-.259-.181-.537-.416-.864-.668-1.299-1.017-3.13-2.595-5.27-4.773-.545-.537-1.086-1.13-1.668-1.74-.565-.623-1.168-1.266-1.769-1.959-.11-.125-.223-.252-.334-.38v-.4a27.199 27.199 0 0 1-.822-.59l.002.047a176.833 176.833 0 0 1-2.68-3.203 490.615 490.615 0 0 1-4.228-5.253c-.184-.232-.37-.466-.558-.7l-.282-.355-.142-.177-.058-.074-.066-.092-1.074-1.498-.547-.762-.137-.192-.13-.191-.266-.392-1.077-1.59c-1.48-2.124-2.886-4.417-4.371-6.77l-2.153-3.648c-.18-.31-.37-.616-.544-.932l-.523-.952-1.056-1.924c-.352-.647-.717-1.293-1.065-1.952l-1.022-2.005c-.678-1.348-1.4-2.696-2.039-4.1l-.992-2.102-.5-1.06c-.167-.353-.338-.707-.49-1.068-.625-1.437-1.257-2.888-1.895-4.35l-.24-.55-.224-.56-.45-1.123-.907-2.26-.456-1.137-.114-.285-.057-.143-.047-.12-.214-.576a1695.5 1695.5 0 0 1-.431-1.154l-.216-.578-.054-.145-.049-.139-.102-.29-1.64-4.672-.205-.587-.191-.593-.383-1.188-.769-2.383a293.16 293.16 0 0 1-5.39-19.525c-1.577-6.598-2.926-13.243-4.107-19.806a407.18 407.18 0 0 1-2.995-19.344 498.904 498.904 0 0 1-2.036-18.18 503.74 503.74 0 0 1-1.257-16.334 520.302 520.302 0 0 1-.666-13.822c-.14-4.116-.213-7.704-.248-10.657-.037-2.952-.031-5.269-.019-6.844l.021-1.789.002-.088h-7.597v.223c0 2.456-2.135 4.464-4.745 4.464H90.278c-2.61 0-4.745-2.008-4.745-4.464V.095h-7.597l.002.088.02 1.79c.013 1.574.019 3.89-.018 6.843-.035 2.953-.109 6.54-.248 10.657a517.83 517.83 0 0 1-.667 13.822 498.874 498.874 0 0 1-3.292 34.514 407.44 407.44 0 0 1-2.995 19.344c-1.18 6.563-2.53 13.208-4.106 19.806a293.16 293.16 0 0 1-5.392 19.525 12522.653 12522.653 0 0 0-1.15 3.57l-.192.594-.206.587-.065.187H55.81l-1.293-19.27-1.284 19.27h-2.191v3.29h-1.961v4.908h-1.716v10.781h-1.822v-4.56h-7.575l.774-26.643h-3.61l-2.232-23.84c-.127-1.36-.266-2.25-1.015-2.25-.749 0-.888.89-1.015 2.25l-2.232 23.84h-3.61l.828 28.483.115.004-.23 2.457h-.333v-7.886h-9.796v7.886h-.686v8.106h-1.528v-17.69h-1.887v-5.476H1.716v5.476H0l1.39 63.645V142.562h1.715v-5.477h7.018v5.477h1.887v17.69h4.306v-8.106h.686v-7.886h7.018v7.886h1.535l-4.077 43.548h.17l.359-.363c-2.14 2.178-3.972 3.756-5.271 4.773-.327.252-.606.487-.864.668l-.644.466-.525.38.536-.366.658-.45c.264-.175.55-.402.884-.646 1.33-.985 3.212-2.519 5.423-4.649.561-.525 1.12-1.105 1.723-1.701.585-.611 1.209-1.241 1.831-1.92l.02-.02v18.402l.79-19.256a169.468 169.468 0 0 0 3.167-3.564 490.79 490.79 0 0 0 4.383-5.149l.58-.686.291-.347.147-.174.037-.043c.018-.022.013-.013.048-.06l.07-.09c.367-.485.74-.974 1.117-1.47l.44-.579-.01.014h.01v28.13l1.162-29.739.658-.915c1.55-2.098 3.03-4.365 4.595-6.695l2.273-3.616c.19-.307.39-.61.576-.924a3883.891 3883.891 0 0 1 1.674-2.855c.27-.465.546-.933.82-1.403v39.898l1.77-43.11c.61-1.114 1.235-2.236 1.804-3.396l1.062-2.094.535-1.056c.179-.353.361-.705.526-1.066l2.048-4.36.259-.55.241-.554.484-1.112.862-1.985v54.133l2.472-60.177 1.326-3.458.225-.588.21-.593.42-1.188.846-2.385a296.333 296.333 0 0 0 6.522-21.477v87.822l4.376-106.562a410.673 410.673 0 0 0 3.423-18.625 494.078 494.078 0 0 0 1.532-10.239V198.52L24.31 219.054l61.223-20.534v-49.412c0-2.777 2.135-5.049 4.745-5.049h24.017c2.61 0 4.745 2.272 4.745 5.049v49.412l61.223 20.534-55.239-20.534V58.125c.465 3.343.974 6.76 1.532 10.24a410.396 410.396 0 0 0 3.423 18.624l4.376 106.562v-87.822c.169.64.337 1.282.51 1.922a296.452 296.452 0 0 0 6.012 19.555l.845 2.385.421 1.188.21.593.225.588 1.326 3.458 2.472 60.177v-54.133l.863 1.985c.16.371.322.742.483 1.112l.241.554.259.55 2.048 4.36c.165.361.347.713.526 1.066.18.353.357.705.535 1.056l1.062 2.094c.57 1.16 1.194 2.282 1.804 3.397l1.77 43.109v-39.898c.274.47.55.938.82 1.403l1.12 1.91.555.945c.185.313.384.617.575.924l2.273 3.616c1.564 2.33 3.044 4.597 4.595 6.695l.658.915 1.162 29.74V178.85l.44.58c.377.495.75.984 1.117 1.469l.07.09c.035.047.03.038.048.06l.037.043.146.174.293.347.578.686a493.217 493.217 0 0 0 4.384 5.149 169.457 169.457 0 0 0 3.167 3.564l.79 19.256v-18.402l.02.02c.623.679 1.246 1.309 1.83 1.92.603.596 1.163 1.176 1.724 1.701 2.211 2.13 4.093 3.664 5.423 4.649.335.244.62.471.884.646a1945.902 1945.902 0 0 0 1.195.816l-.526-.38z" mask="url(#b)"/>
            </g>
            <path fill="#710E19" d="M89.56 280.388c-.503.262-1.115.578-1.812.95-.698.368-1.485.785-2.338 1.248-.855.46-1.781.959-2.754 1.497-.974.536-2.004 1.097-3.059 1.692-1.055.595-2.153 1.198-3.256 1.83l-3.348 1.91c-1.116.65-2.233 1.298-3.331 1.936-1.102.634-2.171 1.28-3.214 1.894-1.043.613-2.042 1.218-2.99 1.79-.951.57-1.844 1.118-2.667 1.624-.826.503-1.577.973-2.243 1.39-.667.413-1.243.782-1.72 1.084-.476.3-.845.544-1.1.707l-.388.251.416-.211c.27-.14.671-.338 1.173-.601.503-.262 1.116-.578 1.812-.95.699-.368 1.486-.785 2.34-1.248.854-.46 1.78-.96 2.753-1.497.974-.535 2.003-1.097 3.058-1.692 1.056-.595 2.155-1.197 3.257-1.831l3.348-1.91c1.116-.65 2.232-1.298 3.33-1.936 1.1-.636 2.17-1.28 3.213-1.894 1.044-.613 2.042-1.22 2.991-1.791.951-.57 1.843-1.118 2.667-1.624.826-.503 1.577-.973 2.242-1.389.668-.414 1.244-.782 1.72-1.084.477-.3.846-.544 1.1-.707l.389-.252-.416.212c-.27.14-.67.338-1.173.602M146.938 300.128l-1.987-1.302c-.77-.5-1.637-1.064-2.59-1.67-.95-.61-1.98-1.268-3.077-1.955-1.095-.69-2.248-1.42-3.45-2.16-1.201-.741-2.435-1.52-3.703-2.287l-3.837-2.341-3.854-2.314c-1.27-.766-2.532-1.5-3.747-2.221-1.214-.722-2.397-1.405-3.517-2.057a351.498 351.498 0 0 0-3.164-1.822c-.98-.564-1.884-1.073-2.685-1.523-.803-.449-1.503-.84-2.08-1.16-.576-.323-1.035-.567-1.345-.738l-.476-.259.45.301c.293.195.72.487 1.272.848l1.987 1.301c.77.5 1.637 1.064 2.59 1.67.95.609 1.98 1.268 3.077 1.955 1.095.69 2.248 1.42 3.45 2.16 1.2.741 2.435 1.519 3.703 2.288 1.265.772 2.55 1.557 3.836 2.34l3.854 2.315c1.269.768 2.532 1.5 3.747 2.222 1.214.722 2.396 1.406 3.516 2.057 1.119.653 2.182 1.262 3.164 1.822.98.564 1.885 1.073 2.686 1.523l2.08 1.16c.576.322 1.035.566 1.345.736l.477.26-.45-.302c-.294-.195-.721-.487-1.272-.847"/>
            <path fill="#F6931D" d="M99.957 299.106l-.127 2.17h3.255l-.127-2.17zM100.915 294.766h2.17l-.243-4.34h-1.684zM100.915 288.255H102l-.22-4.34h-.645zM102 279.574h.543l-.272-2.17z"/>
            <path fill="#1E3746" d="M183.381 206.841s-3.074-9.425-7.057-10.756l-3.457-1.19a.963.963 0 0 0-.49-.76c-.289-.157-.634-.154-.946-.024l-2.81-2.236c-3.203-2.596-13.426-.437-13.426-.437-.344.107 2.949.587 5.628.952 1.774.242 3.84.374 4.133.407 2.051.229 4.446 2.357 5.487 3.375-1.014.642-1.991 1.37-1.022 1.18.438-.085 1.313.393 1.45.793.306.887.494-.274.584-1.42 1.455.346 4.606 1.249 5.835 2.812.175.223 1.32 1.846 2.423 3.177 1.665 2.008 3.74 4.462 3.668 4.127M203.984 180.648s-8.415-6.299-12.48-5.09l-3.549 1.02c-.228-.255-.544-.4-.876-.365-.332.035-.61.242-.781.538l-3.683-.263c-4.228-.343-11.158 7.56-11.158 7.56-.211.296 2.76-1.238 5.16-2.507 1.591-.841 3.348-1.948 3.606-2.093 1.807-1.016 5.086-.6 6.57-.337-.42 1.15-.753 2.356-.087 1.62.3-.333 1.31-.438 1.674-.175.804.583.228-.528-.42-1.568 1.397-.562 4.519-1.648 6.497-1.028.282.089 2.23.808 3.96 1.302 2.612.746 5.836 1.632 5.567 1.386M199.657 239.37s-5.203-16.966-11.944-19.362l-5.85-2.14c-.057-.575-.343-1.086-.83-1.37-.487-.282-1.072-.278-1.6-.043l-4.756-4.025c-5.42-4.673-22.72-.787-22.72-.787-.583.194 4.99 1.057 9.524 1.714 3.003.436 6.498.673 6.994.732 3.472.413 7.525 4.244 9.285 6.076-1.715 1.155-3.369 2.467-1.728 2.125.74-.154 2.221.707 2.454 1.427.516 1.595.835-.493.987-2.556 2.463.622 7.796 2.248 9.875 5.061.297.402 2.235 3.323 4.1 5.718 2.818 3.616 6.33 8.033 6.209 7.43"/>
            <path fill="#F6931D" d="M173 143c0 7.18-5.82 13-13 13s-13-5.82-13-13 5.82-13 13-13 13 5.82 13 13"/>
            <use fill="url(#d)" opacity=".6" xlink:href="#c"/>
        </g>
        <text fill="#FFF" font-family="Lato-Bold, Lato" font-size="16" font-weight="bold">
            <tspan x="41" y="36">SANFRANCISCO</tspan>
        </text>
    </g>
</svg>
