<svg xmlns="http://www.w3.org/2000/svg" xmlns:xlink="http://www.w3.org/1999/xlink" width="204" height="302" viewBox="0 0 204 302">
    <defs>
        <linearGradient id="b" x1="50%" x2="50%" y1="0%" y2="97.919%">
            <stop offset="0%" stop-color="#004E8A"/>
            <stop offset="24.649%" stop-color="#03AAD3"/>
            <stop offset="49.292%" stop-color="#F6E4A4"/>
            <stop offset="70.348%" stop-color="#E8DEA4"/>
            <stop offset="100%" stop-color="#007A92"/>
        </linearGradient>
        <path id="a" d="M0 302h204V0H0z"/>
        <path id="d" d="M170 143.664c2.091-.604 5.343.333 5.343.333l1.098-1.036c.012.023.035.048.046.068.308.544.804-.166 1.04-1.099l.056-.052-.56 2.42c3.897-3.026 8.278 2.698 8.278 2.698l-.008 1.056-15.294-1.725v-2.663zm-24.069-2.47s-.049.135-.107.34h-.2c.097-.13.199-.25.307-.34zm6.843.34h-.81l.836-1.188-.026 1.188zm4.211-4.852s-.957-.007-2.334.098c.623-.245 1.798-.607 2.334-.098zm1.369 4.852h-3.656c.446-.916.903-1.726 1.158-1.793.46-.114 1.682.466 2.498 1.793zm8.4-6.137l-.11-1.891 1.637 1.759-.265-1.896 1.337 1.582.199-2.227 1.478 2.099.227-.083c-.288.14-.525.292-.664.456-.725.856-.597 1.787-.212 2.299-2.347-.097-4.855.521-6.772 2.798 0 0 1.457-4.253 3.145-4.896zm8.476-1.163c-.973-.1-1.875-.057-2.636.089.95-.25 2.078-.424 2.636-.089zm-5.507 5.786l-.296-1.288 1.278 1.207c-.335.023-.664.051-.982.081zm-4.857 1.514h-.718c1.042-.741 2.321-1.349 3.654-1.256-1.33.23-2.278.515-2.568.73-.173.123-.29.313-.368.526zm12.789-3.436l1.338-1.579-.265 1.896 1.638-1.761-.113 1.89c1.686.643 3.145 4.896 3.145 4.896-1.377-1.636-3.49-2.58-5.794-3.082-.071-.312-.208-.575-.435-.743-.607-.45-2.913-1.645-5.63-2.02.006-.009.012-.013.016-.019.74-1.05 4.423.396 4.423.396l1.478-2.103.199 2.229zM32.711 139.23c-1.376-.105-2.333-.098-2.333-.098.535-.505 1.708-.145 2.333.098zm159.646.697c-1.376-.105-2.335-.096-2.335-.096.536-.506 1.71-.147 2.335.096zM204 150l-10.046-.97-6.964-.784-.012-1.12s.488 1.528 1.045-.89c.56-2.418 2.517-3.497 3.128-3.346.613.156 2.38 4.574 2.38 4.574l.102-2.406.656 2.212-.08-3.776 1.292 3.576c.89-1.053 5.547 3.112 5.821 1.732.276-1.38-.245-4.46-.245-4.46 1.238 1 1.785 5.277 1.785 5.277s.87-2.084-1.04-5.983c-1.248-2.548-5.915-3.392-8.994-3.67l1.832-4.035.216 3.084 1.757-3.31-.39 3.102 1.776-2.45-.408 2.414c1.374.136 2.017 1.834 2.017 1.834l1.462-2.958s-.248 2.753.514 2.734c.76-.018 1.339-1.408 1.339-1.408-.692-3.931-2.555-5.77-5.318-6.898-2.765-1.13-9.486 5.06-9.486 5.06l-.058-2.747 1.08.66c-.476-.846.378-3.79.378-3.79.031 1.545.503 2.218.503 2.218-.475-.843.5-5.162.5-5.162l.807 2.209.11-2.06.779.835.09-2.92.497 1.876 1.59-3.992c-.201-2.399-.493-1.875-.493-1.875-4.103.45-7.805 12.74-7.805 12.74l-.071-3.431c-.036-1.716-1.154-4.262-1.154-4.262l1.082.829-.372-3.25.49 1.529s.599-.357.412-2.071c-.188-1.71-1.3-3.912-2.045-3.207-.747.706-1.336 8.964-1.336 8.964-.968-2.55-4.84-5.71-5.579-4.66-.739 1.05.101 4.806.101 4.806l1.516-.385.815 2.555.756-.19.04 1.887 1.2-.891s-.125 1.375.643 1.7c.768.323 1.05 6.497 1.05 6.497-1.395-4.456-4.357-6.433-7.127-7.1.45-.476.656-1.48-.122-2.4-1.337-1.58-10.3-2.503-13.073 6.35 0 0 .281-6.174 1.05-6.497.768-.321.646-1.7.646-1.7l1.197.89.04-1.887.756.192.816-2.554 1.515.387s.837-3.76.1-4.81c-.739-1.049-4.612 2.113-5.579 4.66 0 0-.588-8.255-1.334-8.962-.747-.707-1.859 1.493-2.048 3.205-.186 1.715.414 2.075.414 2.075l.49-1.534-.373 3.254 1.083-.83s-1.119 2.546-1.155 4.263l-.072 3.43s-3.7-12.287-7.802-12.74c0 0-.293-.523-.493 1.874l1.59 3.993.495-1.88.093 2.924.777-.838.109 2.063.806-2.212s.978 4.32.502 5.17c0 0 .47-.677.504-2.223 0 0 .854 2.941.376 3.787l1.08-.659-.06 2.748s-6.72-6.188-9.483-5.062c-2.764 1.131-5.649 1.973-6.34 5.902 0 0 .58 1.388 1.34 1.41.76.02.514-2.735.514-2.735l1.46 2.956s.644-1.697 2.018-1.832l-.406-2.42 2.795 3.453-.389-3.103 1.755 3.311.218-3.083 1.83 4.034c-3.076.278-7.745 1.121-8.994 3.672-.178.369-.326.711-.46 1.045h-7.874v-2.788h-4.56v-9.412l.697-.696v-1.919l.502-.564v-1.876l-.813-1.742h-.926l.153-.958.156-1.742s.54-1.745-.077-1.659c-.618.089-1.855-1.218-2.088-.171-.23 1.043-.23 1.745-.23 1.745l-.928.78v2.092h-2.086v-6.536h-1.238l.157-.959s.771-1.132.154-1.745c0 0 .385-1.477-.387-1.655-.772-.173-1.854.787-1.39 1.655 0 0-1.006 1.57-.697 2.008l-1.854.523v-2.354h-1.623s.154-2.442-2.55-4.36c0 0 .697-3.049.619-3.66 0 0 1.159-1.135.927-2.35h-4.327v-1.309s-2.628-.872-4.327-.957c0 0-2.088-2.266-3.787-2.355h-5.331s-.31-8.714-.233-9.76c.078-1.046.541-14.904 1.469-22.487.927-7.582 2.396-23.793 2.396-23.793l.849-.433s2.318-1.918.927-7.67c0 0-2.008-12.462-3.399-13.597-1.392-1.133-1.777-1.133-3.323-1.133-1.547 0-4.482-1.74-4.482-1.74l-.078-.787s.696-.174.696-.611c0-.433-.078-2.351 0-2.958.078-.612 1.082-4.708.31-5.055-.773-.353-.852.084-.852.084s.327-2.171-2.076-5.355c0 0-.896-3.869-3.28-3.197 0 0-2.983.504-2.534 3.363 0 0-1.491.672-1.342 3.195 0 0-1.044 1.178-.894 1.852 0 0-1.94-.338-1.194 3.528l.448 4.373s-3.429-.003-5.517-2.018v-1.53s-.205-1.096-1.023-.44v-.631s-.734-.85-1.188.122c0 .463-.84.048-.776.996v.657s-.625-.657-.97.367v3.961s-.734 1.973-.496 2.653c.237.683-.175 3.009-.021 3.355 0 0-.078 10.98 1.314 14.292 1.39 3.315 2.782 3.224 2.782 3.224l1.08 2.527s1.932 15.34 2.243 25.8c.308 10.456.077 20.741-.541 23.006 0 0-.85 2.965 0 4.011v1.133h-1.392v.958h-4.094s-4.713 1.043-4.174 2.265c0 0-4.171 1.396-3.94 2.005h-4.79s-.697 2.181.772 2.528c0 0 .231 3.05 1.467 3.66 0 0-2.936 3.138-2.857 5.056h-1.625v1.57H59.27s.308-1.05 0-1.31c0 0 .076-1.57-.156-1.83-.231-.26-1.855-.784-1.855-.088 0 .696.233 1.83.233 1.83l-.464 1.831-.387.435v6.104h-2.008s-.231-2.706-1.16-2.791c0 0-.232-1.393-.928-1.393-.694 0-1.081.259-1.081.259s-.23 1.655.154 1.916c0 0-.307 1.745 0 2.09h-.618v.788H49.84v3.14h.773v2.264l.617.697v8.888h-2.317s-3.555.263-1.39 2.875v8.543h-2.629l-2.01.437-15.145-1.919-.406-2.255s.486 1.529 1.046-.888c.558-2.419 2.515-3.498 3.127-3.346.612.158 2.379 4.574 2.379 4.574l.104-2.406.655 2.214-.08-3.775 1.292 3.572c.89-1.054 5.546 3.113 5.822 1.732.275-1.379-.247-4.456-.247-4.456 1.24.998 1.786 5.276 1.786 5.276s.87-2.085-1.039-5.983c-1.25-2.552-5.917-3.397-8.994-3.671l1.831-4.033.217 3.081 1.756-3.31-.391 3.104 1.776-2.454-.407 2.418c1.374.132 2.017 1.831 2.017 1.831l1.46-2.956s-.246 2.754.515 2.733c.761-.019 1.34-1.408 1.34-1.408-.692-3.932-2.554-5.771-5.318-6.898-2.765-1.127-9.485 5.06-9.485 5.06l-.06-2.746 1.08.658c-.474-.847.378-3.788.378-3.788.033 1.544.505 2.22.505 2.22-.476-.848.499-5.164.499-5.164l.808 2.21.108-2.062.78.837.09-2.923.497 1.877 1.591-3.991c-.203-2.397-.495-1.875-.495-1.875-4.103.451-7.802 12.74-7.802 12.74L26.4 131c-.035-1.717-1.153-4.263-1.153-4.263l1.083.83-.374-3.254.489 1.535s.601-.358.414-2.072c-.189-1.711-1.3-3.915-2.045-3.207-.747.702-1.337 8.963-1.337 8.963-.967-2.553-4.838-5.71-5.578-4.662-.739 1.05.1 4.806.1 4.806l1.516-.386.815 2.556.756-.19.04 1.887 1.2-.89s-.125 1.374.642 1.698c.77.322 1.051 6.495 1.051 6.495-2.773-8.851-11.736-7.929-13.071-6.346-1.338 1.581.223 3.429.963 2.377.739-1.048 4.422.399 4.422.399l1.478-2.1.198 2.226 1.338-1.581-.265 1.895 1.638-1.76-.113 1.893c1.688.642 3.146 4.893 3.146 4.893-4.527-5.371-16.965-3.323-18.166-2.434-1.2.889.093 4.461.681 3.416.588-1.046 2.688-2.477 2.688-2.477l-.41 2.244s-1.025 1.917.611.156c1.639-1.76 6.541-.346 6.541-.346l2.239-2.12-.559 2.418c3.895-3.024 8.276 2.697 8.276 2.697l-.018 2.46-10.259.364L0 147.026V175h204v-25z"/>
    </defs>
    <g fill="none" fill-rule="evenodd">
        <g>
            <mask id="c" fill="#fff">
                <use xlink:href="#a"/>
            </mask>
            <use fill="url(#b)" opacity=".6" xlink:href="#a"/>
            <g mask="url(#c)">
                <use fill="#FE984D" transform="translate(0 127)" xlink:href="#d"/>
            </g>
        </g>
        <text fill="#FFF" font-family="Lato-Bold, Lato" font-size="16" font-weight="bold">
            <tspan x="62" y="36">SR NAGAR</tspan>
        </text>
    </g>
</svg>
