<?xml version="1.0" encoding="UTF-8"?>
<svg width="25px" height="25px" viewBox="0 0 25 25" version="1.1" xmlns="http://www.w3.org/2000/svg" xmlns:xlink="http://www.w3.org/1999/xlink">
    <!-- Generator: Sketch 48.2 (47327) - http://www.bohemiancoding.com/sketch -->
    <title>Combined Shape</title>
    <desc>Created with Sketch.</desc>
    <defs></defs>
    <g id="Box-css" stroke="none" stroke-width="1" fill="none" fill-rule="evenodd" transform="translate(-840.000000, -9.000000)">
        <g id="google-plus" transform="translate(840.000000, 9.000000)" fill="#FFFFFF" fill-rule="nonzero">
            <path d="M12.5,0 C19.375,0 25,5.625 25,12.5 C25,19.375 19.375,25 12.5,25 C5.625,25 0,19.3749142 0,12.5 C0,5.62508582 5.625,0 12.5,0 Z M20.5098931,9.52560758 L18.4504017,9.52560758 L18.4504017,11.5369889 L16.3909103,11.5369889 L16.3909103,13.5483703 L18.4504017,13.5483703 L18.4504017,15.5597517 L20.5098931,15.5597517 L20.5098931,13.5483703 L22.5692588,13.5483703 L22.5692588,11.5369889 L20.5098931,11.5369889 L20.5098931,9.52560758 Z M4.41214849,16.82295 C6.76401594,19.1198775 10.8798109,19.1198775 13.2315707,16.9188261 C14.1135883,16.0575178 14.6035741,14.8133356 14.7015282,13.5691534 L14.7015282,12.2293053 L14.6035741,11.7507656 L9.01792928,11.7507656 L9.01792928,13.6648193 L12.5456766,13.6648193 L12.5456766,13.8562562 C12.4477225,14.4304617 12.0556908,15.0047725 11.6637667,15.3875412 C10.2918709,16.9188261 7.64603351,16.9188261 6.17607599,15.3875412 C4.60816436,13.8562562 4.70611847,11.2722259 6.17607599,9.83660677 C7.44991,8.59242457 9.40985337,8.40109279 10.7817491,9.26240117 L11.3696891,9.64516986 L12.9376007,8.11388487 L11.957629,7.44390826 L11.0757191,6.96536856 C8.82180577,6.10406017 6.2740301,6.48682885 4.5101026,8.20955075 C2.06028104,10.5063731 2.06028104,14.5260225 4.41214849,16.82295 Z" id="Combined-Shape"></path>
        </g>
    </g>
</svg>