<?xml version="1.0" encoding="UTF-8"?>
<svg width="25px" height="25px" viewBox="0 0 25 25" version="1.1" xmlns="http://www.w3.org/2000/svg" xmlns:xlink="http://www.w3.org/1999/xlink">
    <!-- Generator: Sketch 48.2 (47327) - http://www.bohemiancoding.com/sketch -->
    <title>Combined Shape</title>
    <desc>Created with Sketch.</desc>
    <defs></defs>
    <g id="Box-css" stroke="none" stroke-width="1" fill="none" fill-rule="evenodd" transform="translate(-986.000000, -8.000000)">
        <g id="Group-55" transform="translate(869.000000, 8.000000)" fill="#FFFFFF">
            <path d="M117,12.5 C117,5.59653858 122.596539,0 129.5,0 C136.403461,0 142,5.59653858 142,12.5 C142,19.4034614 136.403461,25 129.5,25 C122.596539,25 117,19.4034614 117,12.5 Z M123.399933,18.4727491 L126.283461,18.4727491 L126.283461,9.7973164 L123.399933,9.7973164 L123.399933,18.4727491 Z M124.860732,5.61552806 C123.873872,5.61552806 123.228503,6.26317637 123.228503,7.11416939 C123.228503,7.94715317 123.855406,8.61349461 124.82289,8.61349461 L124.841583,8.61349461 C125.847592,8.61349461 126.473127,7.94715317 126.473127,7.11416939 C126.453978,6.26317637 125.847592,5.61552806 124.860732,5.61552806 Z M136.683448,13.4976428 C136.683448,10.8334169 135.260491,9.59374373 133.362683,9.59374373 C131.830075,9.59374373 131.146408,10.436758 130.763199,11.0267312 L130.763199,11.0552268 L130.74405,11.0552268 C130.749065,11.0458802 130.757272,11.0365337 130.763199,11.0267312 L130.763199,9.7973164 L127.878531,9.7973164 C127.917057,10.6113791 127.878531,18.4727491 127.878531,18.4727491 L130.763199,18.4727491 L130.763199,13.6275828 C130.763199,13.3674749 130.782804,13.1098745 130.858716,12.9245391 C131.06776,12.4056909 131.541243,11.8697454 132.338209,11.8697454 C133.382516,11.8697454 133.799008,12.6655709 133.799008,13.8313835 L133.799008,18.4727491 L136.683448,18.4727491 L136.683448,13.4976428 Z" id="Combined-Shape"></path>
        </g>
    </g>
</svg>