<?xml version="1.0" encoding="UTF-8"?>
<svg width="25px" height="25px" viewBox="0 0 25 25" version="1.1" xmlns="http://www.w3.org/2000/svg" xmlns:xlink="http://www.w3.org/1999/xlink">
    <!-- Generator: Sketch 48.2 (47327) - http://www.bohemiancoding.com/sketch -->
    <title>Combined Shape</title>
    <desc>Created with Sketch.</desc>
    <defs></defs>
    <g id="Box-css" stroke="none" stroke-width="1" fill="none" fill-rule="evenodd" transform="translate(-1020.000000, -8.000000)">
        <g id="Group-55" transform="translate(869.000000, 8.000000)" fill="#FFFFFF">
            <path d="M151,12.499886 C151,5.59636165 156.596413,0 163.5,0 C170.403587,0 176,5.59636165 176,12.499886 C176,19.4036384 170.403587,25 163.5,25 C156.596413,25 151,19.4036384 151,12.499886 Z M171.215317,7.71438016 C170.647674,7.96605572 170.037173,8.13657502 169.396808,8.212716 C170.050623,7.82084074 170.552383,7.2009985 170.789243,6.46147358 C170.177374,6.82439703 169.49985,7.0876989 168.778783,7.22949437 C168.201338,6.61443943 167.378597,6.22985912 166.467633,6.22985912 C164.719566,6.22985912 163.301826,7.64758583 163.301826,9.39563671 C163.301826,9.64389276 163.329867,9.88530981 163.384123,10.1171522 C160.753132,9.98515935 158.420553,8.72495783 156.858965,6.80912324 C156.586542,7.27668354 156.430383,7.82084074 156.430383,8.40101673 C156.430383,9.49890576 156.989591,10.4682214 157.838548,11.0358592 C157.319918,11.0194456 156.83138,10.8771942 156.40485,10.6396526 C156.404394,10.6531026 156.404394,10.6665527 156.404394,10.6797748 C156.404394,12.2135367 157.496138,13.4928874 158.944198,13.7835453 C158.678842,13.8560388 158.398668,13.8947932 158.110287,13.8947932 C157.905799,13.8947932 157.707694,13.8749601 157.514376,13.8382574 C157.917425,15.0957233 159.086222,16.0110108 160.471818,16.0365431 C159.388054,16.8857201 158.023431,17.3918069 156.539808,17.3918069 C156.284711,17.3918069 156.032121,17.376989 155.785002,17.3475813 C157.185416,18.2459992 158.849819,18.7700953 160.637552,18.7700953 C166.460566,18.7700953 169.644838,13.9465417 169.644838,9.7624356 C169.644838,9.62542744 169.641874,9.48864724 169.635491,9.35300688 C170.254427,8.90664752 170.791066,8.34926823 171.215317,7.71438016 Z" id="Combined-Shape"></path>
        </g>
    </g>
</svg>