<?xml version="1.0" encoding="UTF-8"?>
<svg width="100px" height="100px" viewBox="0 0 100 100" version="1.1" xmlns="http://www.w3.org/2000/svg" xmlns:xlink="http://www.w3.org/1999/xlink">
    <!-- Generator: Sketch 48.2 (47327) - http://www.bohemiancoding.com/sketch -->
    <title>twitter</title>
    <desc>Created with Sketch.</desc>
    <defs></defs>
    <g id="Page-1" stroke="none" stroke-width="1" fill="none" fill-rule="evenodd">
        <g id="twitter" fill-rule="nonzero">
            <rect id="Rectangle-path" fill="#50ABF1" x="0" y="0" width="99.9410088" height="99.9410088" rx="20"></rect>
            <path d="M13.2405702,74.0837719 C19.891886,78.302193 27.7817982,80.7434211 36.2394737,80.7434211 C60.0002193,80.7434211 79.2614035,61.4800439 79.2614035,37.7214912 C79.2614035,37.1282895 79.2489035,36.5394737 79.2260965,35.9524123 C80.0855263,35.2760965 85.4008772,31.0157895 86.7037281,28.2769737 C86.7037281,28.2769737 82.3872807,30.0708333 78.1627193,30.4934211 C78.154386,30.4934211 78.1440789,30.4953947 78.1357456,30.4953947 C78.1357456,30.4953947 78.1440789,30.4912281 78.1585526,30.4809211 C78.547807,30.2208333 83.9899123,26.5162281 84.7267544,22.102193 C84.7267544,22.102193 81.6736842,23.7317982 77.3989035,25.1574561 C76.6912281,25.3925439 75.9504386,25.6236842 75.1866228,25.8379386 C72.4311404,22.8971491 68.5144737,21.0616228 64.166886,21.0616228 C55.8276316,21.0616228 49.0701754,27.8171053 49.0701754,36.15 C49.0701754,37.3258772 49.2054825,38.4703947 49.4614035,39.5692982 C48.2960526,39.5214912 30.5497807,38.5265351 18.4769737,23.9063596 C18.4769737,23.9063596 11.2616228,33.7565789 22.7767544,43.8855263 C22.7767544,43.8855263 19.2763158,43.7460526 16.2563596,41.9416667 C16.2563596,41.9416667 15.1471491,53.875 28.1877193,56.9260965 C28.1877193,56.9260965 25.6217105,57.8980263 21.5280702,57.2050439 C21.5280702,57.2050439 23.8173246,66.8471491 35.4032895,67.7482456 C35.4032895,67.7482456 26.2416667,76.0245614 13.2364035,74.0826754 L13.2405702,74.0837719 Z" id="Shape" fill="#FFFFFF"></path>
        </g>
    </g>
</svg>