<?xml version="1.0" encoding="UTF-8"?>
<svg width="100px" height="100px" viewBox="0 0 100 100" version="1.1" xmlns="http://www.w3.org/2000/svg" xmlns:xlink="http://www.w3.org/1999/xlink">
    <!-- Generator: Sketch 48.2 (47327) - http://www.bohemiancoding.com/sketch -->
    <title>youtube</title>
    <desc>Created with Sketch.</desc>
    <defs></defs>
    <g id="Page-1" stroke="none" stroke-width="1" fill="none" fill-rule="evenodd">
        <g id="youtube" fill-rule="nonzero">
            <rect id="Rectangle-path" fill="#DC472E" x="0" y="0" width="99.9410088" height="99.9410088" rx="20"></rect>
            <g id="Group" transform="translate(20.175439, 13.815789)" fill="#FFFFFF">
                <path d="M37.5567982,50.1609649 C37.5546053,49.7881579 37.4449561,49.4 37.3067982,49.0513158 C37.1225877,48.5929825 36.7278509,48.3649123 36.2322368,48.3166667 C35.6510965,48.2596491 35.1861842,48.4942982 34.7651316,48.8671053 C34.5962719,49.0140351 34.5195175,49.2333333 34.5195175,49.2333333 L34.5282895,61.0688596 L34.5282895,61.3605263 C34.5282895,61.3605263 34.6291667,61.4964912 34.6445175,61.5140351 C34.9866228,61.8846491 35.3857456,62.1785088 35.8967105,62.2837719 C36.7388158,62.4570175 37.333114,62.1061404 37.4975877,61.3254386 C37.5392544,61.1302632 37.5633772,60.9285088 37.5633772,60.7289474 C37.5677632,57.2048246 37.5743421,53.6828947 37.5567982,50.1609649 Z M37.5567982,50.1609649 C37.5546053,49.7881579 37.4449561,49.4 37.3067982,49.0513158 C37.1225877,48.5929825 36.7278509,48.3649123 36.2322368,48.3166667 C35.6510965,48.2596491 35.1861842,48.4942982 34.7651316,48.8671053 C34.5962719,49.0140351 34.5195175,49.2333333 34.5195175,49.2333333 L34.5282895,61.0688596 L34.5282895,61.3605263 C34.5282895,61.3605263 34.6291667,61.4964912 34.6445175,61.5140351 C34.9866228,61.8846491 35.3857456,62.1785088 35.8967105,62.2837719 C36.7388158,62.4570175 37.333114,62.1061404 37.4975877,61.3254386 C37.5392544,61.1302632 37.5633772,60.9285088 37.5633772,60.7289474 C37.5677632,57.2048246 37.5743421,53.6828947 37.5567982,50.1609649 Z M50.8089912,32.3122807 C36.8024123,32.0118421 22.7892544,32.0118421 8.78048246,32.3122807 C3.92083333,32.4153509 0.0348684211,36.3890351 0.0348684211,41.2508772 L0.0348684211,63.1280702 C0.0348684211,67.9921053 3.92083333,71.9657895 8.78048246,72.0688596 C22.7892544,72.3692982 36.8024123,72.3692982 50.8089912,72.0688596 C55.6708333,71.9657895 59.5567982,67.9921053 59.5567982,63.1280702 L59.5567982,41.2508772 C59.5567982,36.3892544 55.6708333,32.4153509 50.8089912,32.3122807 Z M12.8945175,65.1217105 L8.85504386,65.1217105 L8.85504386,42.2861842 L4.67302632,42.2861842 L4.67302632,38.4660088 L17.085307,38.4660088 L17.085307,42.2774123 L12.8945175,42.2774123 L12.8945175,65.1217105 Z M27.3506579,55.6434211 L27.3506579,65.1236842 L23.7739035,65.1236842 L23.7739035,62.9570175 C23.6445175,63.0951754 23.5721491,63.1697368 23.5041667,63.2464912 C22.7344298,64.1149123 21.8616228,64.8385965 20.7475877,65.2223684 C20.2037281,65.4087719 19.6445175,65.4723684 19.0721491,65.3736842 C18.2914474,65.2442982 17.7673246,64.7947368 17.4515351,64.0842105 C17.1576754,63.4285088 17.083114,62.7267544 17.0809211,62.020614 C17.0721491,59.4109649 17.0765351,45.5995614 17.0765351,45.4657895 L20.6445175,45.4657895 C20.6510965,45.5864035 20.6642544,55.5008772 20.6664474,60.3364035 C20.6664474,60.5995614 20.6686404,60.8692982 20.7212719,61.1258772 C20.8528509,61.775 21.3506579,62.0535088 21.9756579,61.8254386 C22.6949561,61.5622807 23.2432018,61.0666667 23.7037281,60.4723684 C23.7717105,60.3868421 23.7717105,60.2333333 23.7717105,60.1105263 L23.7717105,45.4438596 L27.3506579,45.4350877 C27.3506579,45.435307 27.3506579,52.3583333 27.3506579,55.6434211 Z M40.958114,63.2289474 C40.4800439,64.6675439 39.4274123,65.4 37.9142544,65.3846491 C36.6839912,65.3736842 35.6861842,64.8846491 34.8638158,63.9921053 C34.7717105,63.8934211 34.5173246,63.6236842 34.5173246,63.6236842 L34.5173246,65.1192982 L30.9339912,65.1192982 L30.9339912,38.4635965 L34.5173246,38.4635965 C34.5173246,41.3013158 34.5173246,47.2377193 34.5173246,47.2377193 C34.5173246,47.2377193 34.7190789,46.8342105 34.9032895,46.6258772 C35.458114,46.0052632 36.1335526,45.525 36.966886,45.3144737 C38.341886,44.9701754 39.9274123,45.395614 40.6817982,47.0030702 C41.1269737,47.9526316 41.2519737,48.9657895 41.2519737,49.9964912 C41.2585526,53.7223684 41.2585526,57.4482456 41.2541667,61.1741228 C41.2519737,61.8714912 41.1796053,62.560307 40.958114,63.2289474 Z M54.1927632,62.4791667 C53.5721491,64.2971491 52.2892544,65.3059211 50.4076754,65.5822368 C49.2410088,65.7532895 48.085307,65.7291667 46.9910088,65.2335526 C45.4932018,64.558114 44.6445175,63.3366228 44.2804825,61.7817982 C44.1116228,61.058114 44.0282895,60.2993421 44.0195175,59.5559211 C43.9910088,56.6370614 44.0041667,53.7160088 44.0107456,50.7971491 C44.0129386,49.2708333 44.3769737,47.8629386 45.4230263,46.6940789 C46.6160088,45.3585526 48.1423246,44.8607456 49.8857456,44.9725877 C50.4098684,45.0054825 50.9449561,45.0910088 51.4427632,45.2554825 C53.1379386,45.8125 54.0436404,47.0822368 54.3989035,48.7664474 C54.5348684,49.4155702 54.585307,50.0888158 54.5962719,50.7532895 C54.6247807,52.310307 54.585307,55.7423246 54.585307,55.7423246 L47.7234649,55.7423246 L47.7234649,60.6611842 C47.7234649,61.5449561 48.4383772,62.2598684 49.3221491,62.2598684 C50.2037281,62.2598684 50.9186404,61.5449561 50.9186404,60.6611842 L50.9186404,58.1326754 L54.6050439,58.1326754 C54.6050439,58.1324561 54.6598684,61.1173246 54.1927632,62.4791667 Z M50.9186404,49.9309211 C50.9186404,49.0493421 50.2037281,48.3322368 49.3221491,48.3322368 C48.4383772,48.3322368 47.7234649,49.0493421 47.7234649,49.9309211 L47.7234649,52.691886 L50.9186404,52.691886 L50.9186404,49.9309211 Z M37.3067982,49.0515351 C37.1225877,48.5932018 36.7278509,48.3651316 36.2322368,48.316886 C35.6510965,48.2598684 35.1861842,48.4945175 34.7651316,48.8673246 C34.5962719,49.0142544 34.5195175,49.2335526 34.5195175,49.2335526 L34.5282895,61.0690789 L34.5282895,61.3607456 C34.5282895,61.3607456 34.6291667,61.4967105 34.6445175,61.5142544 C34.9866228,61.8848684 35.3857456,62.1787281 35.8967105,62.2839912 C36.7388158,62.4572368 37.333114,62.1063596 37.4975877,61.3256579 C37.5392544,61.1304825 37.5633772,60.9287281 37.5633772,60.7291667 C37.5677632,57.2050439 37.5743421,53.683114 37.5567982,50.1611842 C37.5546053,49.7881579 37.4449561,49.4 37.3067982,49.0515351 Z" id="Shape"></path>
                <path d="M46.4664474,7.01535088 L46.4653509,26.8057018 L42.7982456,26.8057018 L42.8026316,24.6796053 C42.3971491,25.0789474 42.0510965,25.4519737 41.6708333,25.7870614 C40.9967105,26.3809211 40.233114,26.8236842 39.3399123,26.9984649 C37.9686404,27.2666667 36.8006579,26.833114 36.3633772,25.4129386 C36.2177632,24.9399123 36.1298246,24.4300439 36.1260965,23.9361842 L36.1260965,7.01535088 L39.7655702,7.01535088 L39.7655702,22.1076754 C39.7655702,22.3076754 39.7815789,22.5098684 39.8166667,22.7059211 C39.927193,23.3278509 40.3868421,23.620614 40.9857456,23.4129386 C41.7157895,23.160307 42.272807,22.6548246 42.7453947,22.0592105 C42.8125,21.9741228 42.8004386,21.8153509 42.8004386,21.6905702 L42.8004386,7.01535088 L46.4664474,7.01535088 Z" id="Shape"></path>
                <path d="M16.1355263,10.454386 C15.3394737,7.09890351 13.6717105,0.0153508772 13.6717105,0.0153508772 L9.49868421,0.0153508772 C9.49868421,0.0153508772 12.7048246,10.6484649 14.1385965,15.3905702 C14.1901316,15.5620614 14.2138158,15.7482456 14.2138158,15.9278509 L14.2122807,26.8015351 L18.060307,26.8015351 L18.0587719,15.9278509 C18.0587719,15.7482456 18.0824561,15.5620614 18.1339912,15.3905702 C19.5677632,10.6484649 22.7739035,0.0153508772 22.7739035,0.0153508772 L18.6008772,0.0153508772 C18.6008772,0.0153508772 16.9328947,7.09890351 16.1370614,10.454386 L16.1355263,10.454386 Z" id="Shape"></path>
                <path d="M27.7964912,6.51995614 C24.8964912,6.51995614 22.545614,8.87083333 22.545614,11.7708333 L22.545614,22.0469298 C22.545614,24.9469298 24.8964912,27.297807 27.7964912,27.297807 C30.6964912,27.297807 33.0473684,24.9469298 33.0473684,22.0469298 L33.0473684,11.7708333 C33.0475877,8.87083333 30.6964912,6.51995614 27.7964912,6.51995614 Z M29.3118421,22.254386 C29.3118421,23.0899123 28.6320175,23.7695175 27.7967105,23.7695175 C26.9614035,23.7695175 26.2815789,23.0899123 26.2815789,22.254386 L26.2815789,11.5631579 C26.2815789,10.7276316 26.9614035,10.0480263 27.7967105,10.0480263 C28.6320175,10.0480263 29.3118421,10.7278509 29.3118421,11.5631579 L29.3118421,22.254386 Z" id="Shape"></path>
            </g>
        </g>
    </g>
</svg>